G04 #@! TF.GenerationSoftware,KiCad,Pcbnew,9.0.0*
G04 #@! TF.CreationDate,2025-03-14T23:22:53+09:00*
G04 #@! TF.ProjectId,cv-depot,63762d64-6570-46f7-942e-6b696361645f,rev?*
G04 #@! TF.SameCoordinates,Original*
G04 #@! TF.FileFunction,Copper,L1,Top*
G04 #@! TF.FilePolarity,Positive*
%FSLAX46Y46*%
G04 Gerber Fmt 4.6, Leading zero omitted, Abs format (unit mm)*
G04 Created by KiCad (PCBNEW 9.0.0) date 2025-03-14 23:22:53*
%MOMM*%
%LPD*%
G01*
G04 APERTURE LIST*
G04 Aperture macros list*
%AMRoundRect*
0 Rectangle with rounded corners*
0 $1 Rounding radius*
0 $2 $3 $4 $5 $6 $7 $8 $9 X,Y pos of 4 corners*
0 Add a 4 corners polygon primitive as box body*
4,1,4,$2,$3,$4,$5,$6,$7,$8,$9,$2,$3,0*
0 Add four circle primitives for the rounded corners*
1,1,$1+$1,$2,$3*
1,1,$1+$1,$4,$5*
1,1,$1+$1,$6,$7*
1,1,$1+$1,$8,$9*
0 Add four rect primitives between the rounded corners*
20,1,$1+$1,$2,$3,$4,$5,0*
20,1,$1+$1,$4,$5,$6,$7,0*
20,1,$1+$1,$6,$7,$8,$9,0*
20,1,$1+$1,$8,$9,$2,$3,0*%
G04 Aperture macros list end*
G04 #@! TA.AperFunction,EtchedComponent*
%ADD10C,0.000000*%
G04 #@! TD*
G04 #@! TA.AperFunction,SMDPad,CuDef*
%ADD11RoundRect,0.250000X0.325000X0.450000X-0.325000X0.450000X-0.325000X-0.450000X0.325000X-0.450000X0*%
G04 #@! TD*
G04 #@! TA.AperFunction,SMDPad,CuDef*
%ADD12RoundRect,0.250000X-0.325000X-0.450000X0.325000X-0.450000X0.325000X0.450000X-0.325000X0.450000X0*%
G04 #@! TD*
G04 #@! TA.AperFunction,SMDPad,CuDef*
%ADD13RoundRect,0.250000X-0.450000X0.350000X-0.450000X-0.350000X0.450000X-0.350000X0.450000X0.350000X0*%
G04 #@! TD*
G04 #@! TA.AperFunction,SMDPad,CuDef*
%ADD14RoundRect,0.250000X-0.350000X0.275000X-0.350000X-0.275000X0.350000X-0.275000X0.350000X0.275000X0*%
G04 #@! TD*
G04 #@! TA.AperFunction,SMDPad,CuDef*
%ADD15RoundRect,0.250000X-0.475000X0.337500X-0.475000X-0.337500X0.475000X-0.337500X0.475000X0.337500X0*%
G04 #@! TD*
G04 #@! TA.AperFunction,SMDPad,CuDef*
%ADD16RoundRect,0.250000X0.350000X0.450000X-0.350000X0.450000X-0.350000X-0.450000X0.350000X-0.450000X0*%
G04 #@! TD*
G04 #@! TA.AperFunction,SMDPad,CuDef*
%ADD17RoundRect,0.250000X-0.250000X-0.250000X0.250000X-0.250000X0.250000X0.250000X-0.250000X0.250000X0*%
G04 #@! TD*
G04 #@! TA.AperFunction,ComponentPad*
%ADD18O,1.270000X2.286000*%
G04 #@! TD*
G04 #@! TA.AperFunction,ComponentPad*
%ADD19O,2.286000X1.270000*%
G04 #@! TD*
G04 #@! TA.AperFunction,SMDPad,CuDef*
%ADD20RoundRect,0.250000X-0.450000X0.325000X-0.450000X-0.325000X0.450000X-0.325000X0.450000X0.325000X0*%
G04 #@! TD*
G04 #@! TA.AperFunction,SMDPad,CuDef*
%ADD21RoundRect,0.250000X0.450000X-0.350000X0.450000X0.350000X-0.450000X0.350000X-0.450000X-0.350000X0*%
G04 #@! TD*
G04 #@! TA.AperFunction,SMDPad,CuDef*
%ADD22RoundRect,0.150000X0.825000X0.150000X-0.825000X0.150000X-0.825000X-0.150000X0.825000X-0.150000X0*%
G04 #@! TD*
G04 #@! TA.AperFunction,SMDPad,CuDef*
%ADD23RoundRect,0.250000X0.450000X-0.325000X0.450000X0.325000X-0.450000X0.325000X-0.450000X-0.325000X0*%
G04 #@! TD*
G04 #@! TA.AperFunction,SMDPad,CuDef*
%ADD24RoundRect,0.250000X0.337500X0.475000X-0.337500X0.475000X-0.337500X-0.475000X0.337500X-0.475000X0*%
G04 #@! TD*
G04 #@! TA.AperFunction,ComponentPad*
%ADD25R,1.700000X1.700000*%
G04 #@! TD*
G04 #@! TA.AperFunction,ComponentPad*
%ADD26O,1.700000X1.700000*%
G04 #@! TD*
G04 #@! TA.AperFunction,SMDPad,CuDef*
%ADD27RoundRect,0.150000X0.587500X0.150000X-0.587500X0.150000X-0.587500X-0.150000X0.587500X-0.150000X0*%
G04 #@! TD*
G04 #@! TA.AperFunction,ComponentPad*
%ADD28R,1.600000X1.600000*%
G04 #@! TD*
G04 #@! TA.AperFunction,ComponentPad*
%ADD29C,1.600000*%
G04 #@! TD*
G04 #@! TA.AperFunction,SMDPad,CuDef*
%ADD30RoundRect,0.250000X0.475000X-0.337500X0.475000X0.337500X-0.475000X0.337500X-0.475000X-0.337500X0*%
G04 #@! TD*
G04 #@! TA.AperFunction,SMDPad,CuDef*
%ADD31RoundRect,0.250000X-0.537500X-0.425000X0.537500X-0.425000X0.537500X0.425000X-0.537500X0.425000X0*%
G04 #@! TD*
G04 #@! TA.AperFunction,ComponentPad*
%ADD32RoundRect,0.250000X0.600000X0.600000X-0.600000X0.600000X-0.600000X-0.600000X0.600000X-0.600000X0*%
G04 #@! TD*
G04 #@! TA.AperFunction,ComponentPad*
%ADD33C,1.700000*%
G04 #@! TD*
G04 #@! TA.AperFunction,SMDPad,CuDef*
%ADD34C,0.500000*%
G04 #@! TD*
G04 #@! TA.AperFunction,SMDPad,CuDef*
%ADD35RoundRect,0.150000X0.150000X-0.587500X0.150000X0.587500X-0.150000X0.587500X-0.150000X-0.587500X0*%
G04 #@! TD*
G04 #@! TA.AperFunction,SMDPad,CuDef*
%ADD36RoundRect,0.150000X-0.150000X0.587500X-0.150000X-0.587500X0.150000X-0.587500X0.150000X0.587500X0*%
G04 #@! TD*
G04 #@! TA.AperFunction,ComponentPad*
%ADD37R,1.498600X1.498600*%
G04 #@! TD*
G04 #@! TA.AperFunction,ComponentPad*
%ADD38C,1.498600*%
G04 #@! TD*
G04 #@! TA.AperFunction,SMDPad,CuDef*
%ADD39RoundRect,0.250000X-0.350000X-0.450000X0.350000X-0.450000X0.350000X0.450000X-0.350000X0.450000X0*%
G04 #@! TD*
G04 #@! TA.AperFunction,SMDPad,CuDef*
%ADD40RoundRect,0.150000X-0.587500X-0.150000X0.587500X-0.150000X0.587500X0.150000X-0.587500X0.150000X0*%
G04 #@! TD*
G04 #@! TA.AperFunction,SMDPad,CuDef*
%ADD41RoundRect,0.250000X-0.250000X0.250000X-0.250000X-0.250000X0.250000X-0.250000X0.250000X0.250000X0*%
G04 #@! TD*
G04 #@! TA.AperFunction,ComponentPad*
%ADD42C,1.574800*%
G04 #@! TD*
G04 #@! TA.AperFunction,SMDPad,CuDef*
%ADD43RoundRect,0.250000X0.250000X0.250000X-0.250000X0.250000X-0.250000X-0.250000X0.250000X-0.250000X0*%
G04 #@! TD*
G04 #@! TA.AperFunction,ComponentPad*
%ADD44R,1.800000X1.800000*%
G04 #@! TD*
G04 #@! TA.AperFunction,ComponentPad*
%ADD45C,1.800000*%
G04 #@! TD*
G04 #@! TA.AperFunction,ComponentPad*
%ADD46C,1.803400*%
G04 #@! TD*
G04 #@! TA.AperFunction,SMDPad,CuDef*
%ADD47RoundRect,0.150000X-0.825000X-0.150000X0.825000X-0.150000X0.825000X0.150000X-0.825000X0.150000X0*%
G04 #@! TD*
G04 #@! TA.AperFunction,ComponentPad*
%ADD48C,1.270000*%
G04 #@! TD*
G04 #@! TA.AperFunction,ComponentPad*
%ADD49R,2.400000X1.600000*%
G04 #@! TD*
G04 #@! TA.AperFunction,ComponentPad*
%ADD50O,2.400000X1.600000*%
G04 #@! TD*
G04 #@! TA.AperFunction,SMDPad,CuDef*
%ADD51RoundRect,0.250000X-1.250000X-0.550000X1.250000X-0.550000X1.250000X0.550000X-1.250000X0.550000X0*%
G04 #@! TD*
G04 #@! TA.AperFunction,ComponentPad*
%ADD52R,3.000000X3.000000*%
G04 #@! TD*
G04 #@! TA.AperFunction,ComponentPad*
%ADD53C,1.750000*%
G04 #@! TD*
G04 #@! TA.AperFunction,ComponentPad*
%ADD54O,1.600000X1.600000*%
G04 #@! TD*
G04 #@! TA.AperFunction,ViaPad*
%ADD55C,0.600000*%
G04 #@! TD*
G04 #@! TA.AperFunction,ViaPad*
%ADD56C,0.800000*%
G04 #@! TD*
G04 #@! TA.AperFunction,ViaPad*
%ADD57C,0.700000*%
G04 #@! TD*
G04 #@! TA.AperFunction,Conductor*
%ADD58C,0.200000*%
G04 #@! TD*
G04 #@! TA.AperFunction,Conductor*
%ADD59C,0.400000*%
G04 #@! TD*
G04 #@! TA.AperFunction,Conductor*
%ADD60C,0.300000*%
G04 #@! TD*
G04 APERTURE END LIST*
D10*
G04 #@! TA.AperFunction,EtchedComponent*
G36*
X93500000Y-111250000D02*
G01*
X92500000Y-111250000D01*
X92500000Y-110750000D01*
X93500000Y-110750000D01*
X93500000Y-111250000D01*
G37*
G04 #@! TD.AperFunction*
D11*
X80750000Y-103500000D03*
X78700000Y-103500000D03*
D12*
X84750000Y-51750000D03*
X86800000Y-51750000D03*
D13*
X140500000Y-127000000D03*
X140500000Y-129000000D03*
D14*
X146500000Y-128600000D03*
X146500000Y-130900000D03*
D15*
X130250000Y-120425000D03*
X130250000Y-122500000D03*
D13*
X97500000Y-118750000D03*
X97500000Y-120750000D03*
D16*
X136000000Y-131750000D03*
X134000000Y-131750000D03*
D17*
X107500000Y-145500000D03*
X110000000Y-145500000D03*
D18*
X60050001Y-107250000D03*
D19*
X67843002Y-102049800D03*
X66443002Y-104744800D03*
D18*
X71043002Y-111250200D03*
D19*
X63450002Y-111755200D03*
D11*
X80750000Y-101250000D03*
X78700000Y-101250000D03*
D20*
X97500000Y-122725000D03*
X97500000Y-124775000D03*
D21*
X115450000Y-58750000D03*
X115450000Y-56750000D03*
D22*
X102700000Y-135500000D03*
X102700000Y-134230000D03*
X102700000Y-132960000D03*
X102700000Y-131690000D03*
X97750000Y-131690000D03*
X97750000Y-132960000D03*
X97750000Y-134230000D03*
X97750000Y-135500000D03*
D23*
X88250000Y-98025000D03*
X88250000Y-95975000D03*
X115779420Y-118612500D03*
X115779420Y-116562500D03*
D24*
X106825000Y-117550000D03*
X104750000Y-117550000D03*
D22*
X139650000Y-144090000D03*
X139650000Y-142820000D03*
X139650000Y-141550000D03*
X139650000Y-140280000D03*
X139650000Y-139010000D03*
X139650000Y-137740000D03*
X139650000Y-136470000D03*
X134700000Y-136470000D03*
X134700000Y-137740000D03*
X134700000Y-139010000D03*
X134700000Y-140280000D03*
X134700000Y-141550000D03*
X134700000Y-142820000D03*
X134700000Y-144090000D03*
D13*
X138750000Y-120500000D03*
X138750000Y-122500000D03*
D25*
X84150000Y-87630502D03*
D26*
X81610000Y-87630502D03*
X79070000Y-87630502D03*
D11*
X102212500Y-117550000D03*
X100162500Y-117550000D03*
D22*
X117250000Y-143000000D03*
X117250000Y-141730000D03*
X117250000Y-140460000D03*
X117250000Y-139190000D03*
X117250000Y-137920000D03*
X117250000Y-136650000D03*
X117250000Y-135380000D03*
X112300000Y-135380000D03*
X112300000Y-136650000D03*
X112300000Y-137920000D03*
X112300000Y-139190000D03*
X112300000Y-140460000D03*
X112300000Y-141730000D03*
X112300000Y-143000000D03*
X117250000Y-132060000D03*
X117250000Y-130790000D03*
X117250000Y-129520000D03*
X117250000Y-128250000D03*
X112300000Y-128250000D03*
X112300000Y-129520000D03*
X112300000Y-130790000D03*
X112300000Y-132060000D03*
D27*
X109750000Y-149500000D03*
X109750000Y-147600000D03*
X107875000Y-148550000D03*
D28*
X152000000Y-145500000D03*
D29*
X152000000Y-148000000D03*
D30*
X118029420Y-123075000D03*
X118029420Y-121000000D03*
D31*
X120312500Y-128250000D03*
X123187500Y-128250000D03*
D23*
X123529420Y-118587500D03*
X123529420Y-116537500D03*
D16*
X132000000Y-138750000D03*
X130000000Y-138750000D03*
D21*
X138950000Y-58500000D03*
X138950000Y-56500000D03*
D11*
X95550000Y-108500000D03*
X93500000Y-108500000D03*
D32*
X161900000Y-145380000D03*
D33*
X159360000Y-145380000D03*
X161900000Y-142840000D03*
X159360000Y-142840000D03*
X161900000Y-140300000D03*
X159360000Y-140300000D03*
X161900000Y-137760000D03*
X159360000Y-137760000D03*
X161900000Y-135220000D03*
X159360000Y-135220000D03*
X161900000Y-132680000D03*
X159360000Y-132680000D03*
X161900000Y-130140000D03*
X159360000Y-130140000D03*
D17*
X107500000Y-132750000D03*
X110000000Y-132750000D03*
D30*
X125779420Y-123050000D03*
X125779420Y-120975000D03*
D34*
X93500000Y-111000000D03*
X92500000Y-111000000D03*
D20*
X118029420Y-116562500D03*
X118029420Y-118612500D03*
D12*
X89250000Y-51750000D03*
X91300000Y-51750000D03*
D13*
X140500000Y-131000000D03*
X140500000Y-133000000D03*
D18*
X60050001Y-82750000D03*
D19*
X67843002Y-77549800D03*
X66443002Y-80244800D03*
D18*
X71043002Y-86750200D03*
D19*
X63450002Y-87255200D03*
D30*
X115779420Y-123075000D03*
X115779420Y-121000000D03*
D18*
X60050001Y-95050000D03*
D19*
X67843002Y-89849800D03*
X66443002Y-92544800D03*
D18*
X71043002Y-99050200D03*
D19*
X63450002Y-99555200D03*
D11*
X82025000Y-51750000D03*
X79975000Y-51750000D03*
D27*
X136000000Y-129500000D03*
X136000000Y-127600000D03*
X134125000Y-128550000D03*
D16*
X144500000Y-136250000D03*
X142500000Y-136250000D03*
D11*
X119950000Y-61875000D03*
X117900000Y-61875000D03*
D35*
X107750000Y-62875000D03*
X109650000Y-62875000D03*
X108700000Y-61000000D03*
D18*
X60050001Y-143850000D03*
D19*
X67843002Y-138649800D03*
X66443002Y-141344800D03*
D18*
X71043002Y-147850200D03*
D19*
X63450002Y-148355200D03*
D20*
X125779420Y-116537500D03*
X125779420Y-118587500D03*
D30*
X113529420Y-123075000D03*
X113529420Y-121000000D03*
D16*
X144500000Y-132000000D03*
X142500000Y-132000000D03*
D13*
X105450000Y-56750000D03*
X105450000Y-58750000D03*
D30*
X123503495Y-123012500D03*
X123503495Y-120937500D03*
D16*
X92000000Y-130750000D03*
X90000000Y-130750000D03*
D36*
X119850000Y-64000000D03*
X117950000Y-64000000D03*
X118900000Y-65875000D03*
D23*
X95000000Y-106500000D03*
X95000000Y-104450000D03*
D13*
X85500000Y-125250000D03*
X85500000Y-127250000D03*
D30*
X121253495Y-123012500D03*
X121253495Y-120937500D03*
D16*
X132000000Y-141500000D03*
X130000000Y-141500000D03*
D37*
X110900000Y-79299999D03*
D38*
X104399999Y-79299999D03*
X110900000Y-83800000D03*
X104399999Y-83800000D03*
D22*
X91200000Y-112250000D03*
X91200000Y-110980000D03*
X91200000Y-109710000D03*
X91200000Y-108440000D03*
X91200000Y-107170000D03*
X91200000Y-105900000D03*
X91200000Y-104630000D03*
X86250000Y-104630000D03*
X86250000Y-105900000D03*
X86250000Y-107170000D03*
X86250000Y-108440000D03*
X86250000Y-109710000D03*
X86250000Y-110980000D03*
X86250000Y-112250000D03*
D20*
X97250000Y-104450000D03*
X97250000Y-106500000D03*
D39*
X130000000Y-136500000D03*
X132000000Y-136500000D03*
D11*
X132000000Y-143750000D03*
X129950000Y-143750000D03*
D18*
X60050001Y-131650000D03*
D19*
X67843002Y-126449800D03*
X66443002Y-129144800D03*
D18*
X71043002Y-135650200D03*
D19*
X63450002Y-136155200D03*
D20*
X121279420Y-116562500D03*
X121279420Y-118612500D03*
D40*
X103250000Y-124350000D03*
X103250000Y-126250000D03*
X105125000Y-125300000D03*
D25*
X152450000Y-63250000D03*
D26*
X152450000Y-60710000D03*
X152450000Y-58170000D03*
D41*
X90750000Y-95750000D03*
X90750000Y-98250000D03*
D39*
X142500000Y-139250000D03*
X144500000Y-139250000D03*
D42*
X161150000Y-119050000D03*
X161150000Y-116510000D03*
D43*
X87250000Y-132000000D03*
X84750000Y-132000000D03*
D44*
X92590000Y-43500000D03*
D45*
X90050000Y-43500000D03*
X87510000Y-43500000D03*
D20*
X77500000Y-135725000D03*
X77500000Y-137775000D03*
D12*
X78700000Y-112500000D03*
X80750000Y-112500000D03*
D22*
X94950000Y-128310000D03*
X94950000Y-127040000D03*
X94950000Y-125770000D03*
X94950000Y-124500000D03*
X90000000Y-124500000D03*
X90000000Y-125770000D03*
X90000000Y-127040000D03*
X90000000Y-128310000D03*
D35*
X93750000Y-113750000D03*
X95650000Y-113750000D03*
X94700000Y-111875000D03*
D46*
X136450000Y-49500000D03*
X143950000Y-49500000D03*
X151450000Y-49500000D03*
X138950000Y-52000000D03*
X148950000Y-52000000D03*
X141450000Y-39500000D03*
X146450000Y-39500000D03*
D22*
X102750000Y-144500000D03*
X102750000Y-143230000D03*
X102750000Y-141960000D03*
X102750000Y-140690000D03*
X97800000Y-140690000D03*
X97800000Y-141960000D03*
X97800000Y-143230000D03*
X97800000Y-144500000D03*
D28*
X99790000Y-109800000D03*
D29*
X102330000Y-109800000D03*
X104870000Y-109800000D03*
X107410000Y-109800000D03*
X109950000Y-109800000D03*
X112490000Y-109800000D03*
X115030000Y-109800000D03*
X117570000Y-109800000D03*
X120110000Y-109800000D03*
X122650000Y-109800000D03*
X125190000Y-109800000D03*
X127730000Y-109800000D03*
X130270000Y-109800000D03*
X132810000Y-109800000D03*
X135350000Y-109800000D03*
X137890000Y-109800000D03*
X140430000Y-109800000D03*
X142970000Y-109800000D03*
X145510000Y-109800000D03*
X148050000Y-109800000D03*
X150590000Y-109800000D03*
X153130000Y-109800000D03*
X155670000Y-109800000D03*
X158210000Y-109800000D03*
X160750000Y-109800000D03*
X163290000Y-109800000D03*
D28*
X99790000Y-89480000D03*
D29*
X102330000Y-89480000D03*
X104870000Y-89480000D03*
X107410000Y-89480000D03*
X109950000Y-89480000D03*
X112490000Y-89480000D03*
X115030000Y-89480000D03*
X117570000Y-89480000D03*
X120110000Y-89480000D03*
X122650000Y-89480000D03*
X125190000Y-89480000D03*
X127730000Y-89480000D03*
X130270000Y-89480000D03*
X132810000Y-89480000D03*
X135350000Y-89480000D03*
X137890000Y-89480000D03*
X140430000Y-89480000D03*
X142970000Y-89480000D03*
X145510000Y-89480000D03*
X148050000Y-89480000D03*
X150590000Y-89480000D03*
X153130000Y-89480000D03*
X155670000Y-89480000D03*
X158210000Y-89480000D03*
X160750000Y-89480000D03*
X163290000Y-89480000D03*
D23*
X87500000Y-127300000D03*
X87500000Y-125250000D03*
D11*
X80750000Y-117000000D03*
X78700000Y-117000000D03*
D15*
X144500000Y-117225000D03*
X144500000Y-119300000D03*
D23*
X97500000Y-128775000D03*
X97500000Y-126725000D03*
D24*
X122037500Y-132000000D03*
X119962500Y-132000000D03*
X106831861Y-119800000D03*
X104756861Y-119800000D03*
D12*
X100162500Y-115300000D03*
X102212500Y-115300000D03*
D15*
X135750000Y-120425000D03*
X135750000Y-122500000D03*
D25*
X123620000Y-81300000D03*
D26*
X123620000Y-78760000D03*
X126160000Y-81300000D03*
X126160000Y-78760000D03*
X128700000Y-81300000D03*
X128700000Y-78760000D03*
X131240000Y-81300000D03*
X131240000Y-78760000D03*
X133780000Y-81300000D03*
X133780000Y-78760000D03*
X136320000Y-81300000D03*
X136320000Y-78760000D03*
X138860000Y-81300000D03*
X138860000Y-78760000D03*
X141400000Y-81300000D03*
X141400000Y-78760000D03*
X143940000Y-81300000D03*
X143940000Y-78760000D03*
X146480000Y-81300000D03*
X146480000Y-78760000D03*
X149020000Y-81300000D03*
X149020000Y-78760000D03*
X151560000Y-81300000D03*
X151560000Y-78760000D03*
D36*
X95150000Y-96125000D03*
X93250000Y-96125000D03*
X94200000Y-98000000D03*
D35*
X75050000Y-49750000D03*
X76950000Y-49750000D03*
X76000000Y-47875000D03*
D20*
X95500000Y-53225000D03*
X95500000Y-55275000D03*
D27*
X109750000Y-130750000D03*
X109750000Y-128850000D03*
X107875000Y-129800000D03*
D47*
X147200000Y-116240000D03*
X147200000Y-117510000D03*
X147200000Y-118780000D03*
X147200000Y-120050000D03*
X152150000Y-120050000D03*
X152150000Y-118780000D03*
X152150000Y-117510000D03*
X152150000Y-116240000D03*
D13*
X131750000Y-126750000D03*
X131750000Y-128750000D03*
D44*
X83590000Y-43500000D03*
D45*
X81050000Y-43500000D03*
X78510000Y-43500000D03*
D48*
X84160000Y-55170000D03*
X81620000Y-55170000D03*
X79080000Y-55170000D03*
X76540000Y-55170000D03*
X74000000Y-55170000D03*
X71460000Y-55170000D03*
X68920000Y-55170000D03*
X68920000Y-65330000D03*
X76540000Y-65330000D03*
X79080000Y-65330000D03*
X84160000Y-65330000D03*
X86700000Y-65330000D03*
D49*
X135820000Y-70250000D03*
D50*
X135820000Y-67710000D03*
X135820000Y-65170000D03*
X135820000Y-62630000D03*
X128200000Y-62630000D03*
X128200000Y-65170000D03*
X128200000Y-67710000D03*
X128200000Y-70250000D03*
D51*
X149300000Y-127000000D03*
X153700000Y-127000000D03*
D23*
X100750000Y-125750000D03*
X100750000Y-123700000D03*
D39*
X142500000Y-141500000D03*
X144500000Y-141500000D03*
D12*
X142475000Y-143750000D03*
X144525000Y-143750000D03*
X78736598Y-105750000D03*
X80786598Y-105750000D03*
D11*
X115250000Y-65000000D03*
X113200000Y-65000000D03*
D23*
X86000000Y-98025000D03*
X86000000Y-95975000D03*
D18*
X60050001Y-119450000D03*
D19*
X67843002Y-114249800D03*
X66443002Y-116944800D03*
D18*
X71043002Y-123450200D03*
D19*
X63450002Y-123955200D03*
D23*
X95450000Y-44275000D03*
X95450000Y-42225000D03*
D24*
X80784474Y-110250000D03*
X78709474Y-110250000D03*
D21*
X87500000Y-120750000D03*
X87500000Y-118750000D03*
D22*
X82700000Y-133250000D03*
X82700000Y-131980000D03*
X82700000Y-130710000D03*
X82700000Y-129440000D03*
X77750000Y-129440000D03*
X77750000Y-130710000D03*
X77750000Y-131980000D03*
X77750000Y-133250000D03*
X117225000Y-150655000D03*
X117225000Y-149385000D03*
X117225000Y-148115000D03*
X117225000Y-146845000D03*
X112275000Y-146845000D03*
X112275000Y-148115000D03*
X112275000Y-149385000D03*
X112275000Y-150655000D03*
D24*
X121537500Y-150500000D03*
X119462500Y-150500000D03*
D11*
X80741315Y-114750000D03*
X78691315Y-114750000D03*
D35*
X89250000Y-49750000D03*
X91150000Y-49750000D03*
X90200000Y-47875000D03*
D12*
X121900000Y-61875000D03*
X123950000Y-61875000D03*
D28*
X152000000Y-138500000D03*
D29*
X152000000Y-141000000D03*
D46*
X102950000Y-49500000D03*
X110450000Y-49500000D03*
X117950000Y-49500000D03*
X105450000Y-52000000D03*
X115450000Y-52000000D03*
X107950000Y-39500000D03*
X112950000Y-39500000D03*
D35*
X80000000Y-49750000D03*
X81900000Y-49750000D03*
X80950000Y-47875000D03*
D13*
X125150000Y-66875000D03*
X125150000Y-68875000D03*
D11*
X77000000Y-51750000D03*
X74950000Y-51750000D03*
D31*
X120136809Y-146838981D03*
X123011809Y-146838981D03*
D35*
X84850000Y-49750000D03*
X86750000Y-49750000D03*
X85800000Y-47875000D03*
D21*
X95000000Y-132750000D03*
X95000000Y-130750000D03*
D12*
X100225000Y-119803659D03*
X102275000Y-119803659D03*
D52*
X71888000Y-44250000D03*
X60712000Y-44250000D03*
D53*
X63300000Y-51250000D03*
X65300000Y-51250000D03*
X67300000Y-51250000D03*
X69299744Y-51269700D03*
D46*
X68800000Y-36750000D03*
X63800000Y-36750000D03*
X66300000Y-36750000D03*
D24*
X106835773Y-115304300D03*
X104760773Y-115304300D03*
D13*
X131750000Y-130750000D03*
X131750000Y-132750000D03*
D12*
X103200000Y-122250000D03*
X105250000Y-122250000D03*
D27*
X144500000Y-129250000D03*
X144500000Y-127350000D03*
X142625000Y-128300000D03*
D24*
X80784474Y-108000000D03*
X78709474Y-108000000D03*
D20*
X113529420Y-116562500D03*
X113529420Y-118612500D03*
D51*
X149300000Y-133000000D03*
X153700000Y-133000000D03*
D23*
X95500000Y-71000000D03*
X95500000Y-68950000D03*
D12*
X107700000Y-65000000D03*
X109750000Y-65000000D03*
D11*
X83000000Y-126595000D03*
X80950000Y-126595000D03*
D13*
X133000000Y-120500000D03*
X133000000Y-122500000D03*
D28*
X142450000Y-67560000D03*
D54*
X142450000Y-59940000D03*
D25*
X64010000Y-69000000D03*
D26*
X64010000Y-71540000D03*
X66550000Y-69000000D03*
X66550000Y-71540000D03*
X69090000Y-69000000D03*
X69090000Y-71540000D03*
X71630000Y-69000000D03*
X71630000Y-71540000D03*
X74170000Y-69000000D03*
X74170000Y-71540000D03*
X76710000Y-69000000D03*
X76710000Y-71540000D03*
X79250000Y-69000000D03*
X79250000Y-71540000D03*
X81790000Y-69000000D03*
X81790000Y-71540000D03*
X84330000Y-69000000D03*
X84330000Y-71540000D03*
X86870000Y-69000000D03*
X86870000Y-71540000D03*
X89410000Y-69000000D03*
X89410000Y-71540000D03*
X91950000Y-69000000D03*
X91950000Y-71540000D03*
D55*
X126400000Y-98550000D03*
X123778580Y-95971420D03*
X140250000Y-140300000D03*
D56*
X84500000Y-129462500D03*
D55*
X91500000Y-108440000D03*
X89325000Y-128825000D03*
D56*
X91722519Y-123027481D03*
D55*
X113529420Y-121000000D03*
X115750000Y-133750000D03*
X121253495Y-120937500D03*
X118750000Y-132750000D03*
X86250000Y-114000000D03*
D56*
X90050000Y-114025603D03*
X125500000Y-129000000D03*
D55*
X134000000Y-134000000D03*
X94950000Y-124500000D03*
D56*
X84500000Y-108500000D03*
X124000000Y-126500000D03*
D55*
X134075000Y-140300000D03*
X102700000Y-135500000D03*
X118940000Y-139190000D03*
X90750000Y-115250000D03*
X96449155Y-125949264D03*
D57*
X143250000Y-134500000D03*
D55*
X100500000Y-145500000D03*
D57*
X145268414Y-134231586D03*
D55*
X86250000Y-109710000D03*
X86250000Y-107170000D03*
X157210000Y-131750000D03*
X155750000Y-136250000D03*
X145725000Y-142475000D03*
X83750000Y-124000000D03*
X89250000Y-123000000D03*
D57*
X130450000Y-149450000D03*
D55*
X72650000Y-131500000D03*
X97500000Y-124775000D03*
X94510387Y-122239613D03*
X165500000Y-131750000D03*
X129000000Y-151550000D03*
X158000000Y-148750000D03*
D57*
X154874694Y-150774694D03*
D55*
X77500000Y-150850000D03*
X164500000Y-138750000D03*
D56*
X115400000Y-131000000D03*
D55*
X140500000Y-125000000D03*
X135750000Y-125000000D03*
X148000000Y-138250000D03*
X102700000Y-134230000D03*
D56*
X88620000Y-108380000D03*
D55*
X110500000Y-139250000D03*
D56*
X81500000Y-130750000D03*
D55*
X137250000Y-140250000D03*
X94950000Y-125770000D03*
X141717123Y-138187222D03*
D57*
X153700000Y-127000000D03*
D55*
X100500000Y-143425000D03*
D56*
X90656833Y-123093167D03*
D55*
X121535377Y-152200000D03*
D57*
X149300000Y-127000000D03*
D55*
X77750000Y-129440000D03*
X141650000Y-85550000D03*
X137900000Y-85550000D03*
X136650000Y-84300000D03*
X154230000Y-92050000D03*
X150099265Y-85600735D03*
X152150000Y-117510000D03*
X99100000Y-104740256D03*
D57*
X107479511Y-91200000D03*
D55*
X148400000Y-85700000D03*
X148150000Y-86800000D03*
X131949265Y-84500735D03*
X149500000Y-98000000D03*
X146650000Y-86750000D03*
X131750000Y-118250000D03*
X131750000Y-122750000D03*
X92150000Y-50500000D03*
X83000000Y-49750000D03*
X94250000Y-55250000D03*
X144500000Y-136250000D03*
X139650000Y-137740000D03*
X145534770Y-132766983D03*
X110995972Y-147495795D03*
X115850000Y-147750000D03*
X91481667Y-61086230D03*
X142650000Y-83950000D03*
X142650000Y-81950000D03*
X136650000Y-85550000D03*
X93500000Y-46500000D03*
X92382428Y-61075000D03*
X96000000Y-59750000D03*
X123900000Y-90800000D03*
X127400000Y-82300000D03*
X123900000Y-94300000D03*
X120500000Y-125250000D03*
X105000000Y-134875000D03*
X105500000Y-133000000D03*
X97050000Y-137454080D03*
X109000000Y-125500000D03*
X131600735Y-85849265D03*
X147200000Y-120050000D03*
X98090000Y-115000000D03*
X99700000Y-129000000D03*
X99100000Y-116750000D03*
X96450000Y-139000000D03*
X97000000Y-130500000D03*
X98750000Y-129000000D03*
X147200000Y-116240000D03*
X121400000Y-97800000D03*
X121400000Y-112300000D03*
X120113553Y-95263553D03*
X104250000Y-135750000D03*
X112300000Y-132060000D03*
X98875000Y-139500000D03*
X99450735Y-136700735D03*
X108100000Y-135600000D03*
X126800000Y-84450001D03*
X129954265Y-84550000D03*
X114000000Y-128850000D03*
X114000000Y-132000000D03*
X112634365Y-108100000D03*
X110500000Y-111000000D03*
X90983511Y-113233511D03*
X136500000Y-138325000D03*
X135000000Y-135500000D03*
X135000000Y-133250000D03*
X86000000Y-98025000D03*
X83250000Y-110310000D03*
X134700000Y-136470000D03*
X139650000Y-136470000D03*
X100750000Y-123700000D03*
X74750000Y-54000000D03*
X65450000Y-72500000D03*
X91200000Y-105900000D03*
X112450000Y-62750000D03*
X110250000Y-135000000D03*
X106900000Y-135000000D03*
X91200000Y-104630000D03*
X129150000Y-105550000D03*
X115500000Y-140750000D03*
X127200735Y-114549265D03*
X119786027Y-122312500D03*
X128500000Y-113250000D03*
X113750000Y-106750000D03*
X113769265Y-110230735D03*
X111000000Y-128000000D03*
D58*
X138675000Y-120425000D02*
X138750000Y-120500000D01*
X134925000Y-119600000D02*
X135750000Y-120425000D01*
X126400000Y-112334314D02*
X130959744Y-116894058D01*
X126400000Y-98550000D02*
X126400000Y-112334314D01*
X130959744Y-118459744D02*
X132100000Y-119600000D01*
X135750000Y-120425000D02*
X138675000Y-120425000D01*
X130959744Y-116894058D02*
X130959744Y-118459744D01*
X132100000Y-119600000D02*
X134925000Y-119600000D01*
X124090000Y-96282840D02*
X123778580Y-95971420D01*
X124090000Y-110590000D02*
X130250000Y-116750000D01*
X130250000Y-120425000D02*
X132925000Y-120425000D01*
X124090000Y-109344365D02*
X124090000Y-110590000D01*
X124090000Y-109344365D02*
X124090000Y-96282840D01*
X132925000Y-120425000D02*
X133000000Y-120500000D01*
X130250000Y-116750000D02*
X130250000Y-120425000D01*
D59*
X91775000Y-123079962D02*
X91775000Y-127587658D01*
D58*
X91200000Y-108440000D02*
X91500000Y-108440000D01*
D59*
X91052658Y-128310000D02*
X90000000Y-128310000D01*
X91722519Y-123027481D02*
X91775000Y-123079962D01*
D58*
X140230000Y-140280000D02*
X140250000Y-140300000D01*
X91500000Y-108440000D02*
X93440000Y-108440000D01*
X139670000Y-140300000D02*
X139650000Y-140280000D01*
X90000000Y-128310000D02*
X89840000Y-128310000D01*
D59*
X84477500Y-129440000D02*
X84500000Y-129462500D01*
X82700000Y-129440000D02*
X84477500Y-129440000D01*
D58*
X93440000Y-108440000D02*
X93500000Y-108500000D01*
X139650000Y-140280000D02*
X140230000Y-140280000D01*
D59*
X91775000Y-127587658D02*
X91052658Y-128310000D01*
D58*
X89840000Y-128310000D02*
X89325000Y-128825000D01*
X102212500Y-115300000D02*
X102212500Y-117550000D01*
X104756473Y-115300000D02*
X104760773Y-115304300D01*
X102212500Y-115300000D02*
X104756473Y-115300000D01*
X116275001Y-140460000D02*
X115750000Y-139934999D01*
X113529420Y-121000000D02*
X113529420Y-118612500D01*
X115750000Y-139934999D02*
X115750000Y-133750000D01*
X117250000Y-140460000D02*
X116275001Y-140460000D01*
X113550026Y-120979394D02*
X113529420Y-121000000D01*
X104750000Y-117550000D02*
X103550000Y-118750000D01*
X100162500Y-119741159D02*
X100225000Y-119803659D01*
X100162500Y-118750000D02*
X100162500Y-119741159D01*
X103550000Y-118750000D02*
X100162500Y-118750000D01*
X100162500Y-117550000D02*
X100162500Y-118750000D01*
X101275000Y-120803659D02*
X99665256Y-120803659D01*
X102275000Y-119803659D02*
X101275000Y-120803659D01*
X98275000Y-105475000D02*
X97250000Y-104450000D01*
X97490000Y-115705686D02*
X97490000Y-108010000D01*
X98500000Y-116715686D02*
X97490000Y-115705686D01*
X99665256Y-120803659D02*
X98500000Y-119638403D01*
X97490000Y-108010000D02*
X98275000Y-107225000D01*
X102275000Y-119803659D02*
X104753202Y-119803659D01*
X98275000Y-107225000D02*
X98275000Y-105475000D01*
X98500000Y-119638403D02*
X98500000Y-116715686D01*
X104753202Y-119803659D02*
X104756861Y-119800000D01*
X122529420Y-119963425D02*
X122529420Y-117537500D01*
X123503495Y-120937500D02*
X122529420Y-119963425D01*
X121279420Y-116562500D02*
X121304420Y-116537500D01*
X121304420Y-116537500D02*
X123529420Y-116537500D01*
X122529420Y-117537500D02*
X123529420Y-116537500D01*
X117250000Y-128250000D02*
X120312500Y-128250000D01*
X120940995Y-121250000D02*
X121253495Y-120937500D01*
X118750000Y-137394999D02*
X118750000Y-132750000D01*
X117250000Y-137920000D02*
X118224999Y-137920000D01*
X121253495Y-120937500D02*
X121253495Y-118638425D01*
X121253495Y-118638425D02*
X121279420Y-118612500D01*
X118224999Y-137920000D02*
X118750000Y-137394999D01*
X121279420Y-118612500D02*
X121279420Y-118252756D01*
D59*
X124000000Y-126500000D02*
X108750000Y-126500000D01*
X99676166Y-122250000D02*
X98126166Y-123800000D01*
X84560000Y-108440000D02*
X84500000Y-108500000D01*
X140500000Y-134000000D02*
X134000000Y-134000000D01*
X142000000Y-133750000D02*
X141750000Y-134000000D01*
X90050000Y-114025603D02*
X90024397Y-114000000D01*
X141750000Y-134000000D02*
X140500000Y-134000000D01*
X106225000Y-121523834D02*
X105851166Y-121150000D01*
X143726166Y-133750000D02*
X142000000Y-133750000D01*
X103200000Y-122250000D02*
X99676166Y-122250000D01*
D58*
X134095000Y-140280000D02*
X134075000Y-140300000D01*
D59*
X132250000Y-134000000D02*
X131750000Y-133500000D01*
D58*
X134700000Y-140280000D02*
X134095000Y-140280000D01*
X140500000Y-133000000D02*
X140500000Y-134000000D01*
D59*
X131750000Y-132750000D02*
X129250000Y-132750000D01*
X86250000Y-108440000D02*
X84560000Y-108440000D01*
X104300000Y-121150000D02*
X103200000Y-122250000D01*
X129250000Y-132750000D02*
X125500000Y-129000000D01*
X146425000Y-142425000D02*
X146425000Y-136448834D01*
X90024397Y-114000000D02*
X86250000Y-114000000D01*
X95650000Y-123800000D02*
X94950000Y-124500000D01*
X106225000Y-123975000D02*
X106225000Y-121523834D01*
X108750000Y-126500000D02*
X106225000Y-123975000D01*
D58*
X134683343Y-140263343D02*
X134700000Y-140280000D01*
D59*
X131750000Y-133500000D02*
X131750000Y-132750000D01*
X152000000Y-148000000D02*
X146425000Y-142425000D01*
X134000000Y-134000000D02*
X132250000Y-134000000D01*
X98126166Y-123800000D02*
X95650000Y-123800000D01*
X146425000Y-136448834D02*
X143726166Y-133750000D01*
X105851166Y-121150000D02*
X104300000Y-121150000D01*
X159360000Y-145380000D02*
X161900000Y-145380000D01*
D58*
X117225000Y-150655000D02*
X119307500Y-150655000D01*
D60*
X143250000Y-134500000D02*
X142950000Y-134800000D01*
D58*
X118940000Y-139190000D02*
X117250000Y-139190000D01*
D59*
X147450000Y-130900000D02*
X149300000Y-132750000D01*
D58*
X96449155Y-125949264D02*
X96449155Y-127233899D01*
X102700000Y-135500000D02*
X103045552Y-135500000D01*
D60*
X122762500Y-134800000D02*
X118940000Y-138622500D01*
D58*
X99739950Y-127750000D02*
X100619975Y-128630025D01*
D59*
X149300000Y-133000000D02*
X148068414Y-134231586D01*
D58*
X116250001Y-150655000D02*
X117225000Y-150655000D01*
X118940000Y-143514448D02*
X115250000Y-147204448D01*
D59*
X148068414Y-134231586D02*
X145268414Y-134231586D01*
D58*
X102250000Y-126250000D02*
X103250000Y-126250000D01*
X103715552Y-132360000D02*
X101099950Y-132360000D01*
X119902500Y-132060000D02*
X119962500Y-132000000D01*
X115250000Y-147204448D02*
X115250000Y-149654999D01*
X103975000Y-134570552D02*
X103975000Y-132619448D01*
D60*
X142950000Y-134800000D02*
X122762500Y-134800000D01*
D58*
X92250000Y-115250000D02*
X93750000Y-113750000D01*
X90750000Y-115250000D02*
X92250000Y-115250000D01*
X100619975Y-128750000D02*
X100619975Y-131880025D01*
X118940000Y-139190000D02*
X118940000Y-143514448D01*
X119307500Y-150655000D02*
X119462500Y-150500000D01*
D59*
X149300000Y-132750000D02*
X149300000Y-133000000D01*
D58*
X101099950Y-132360000D02*
X100619975Y-131880025D01*
X96965256Y-127750000D02*
X99739950Y-127750000D01*
D59*
X146500000Y-130900000D02*
X147450000Y-130900000D01*
D58*
X103045552Y-135500000D02*
X103975000Y-134570552D01*
X96449155Y-127233899D02*
X96965256Y-127750000D01*
X90750000Y-115100000D02*
X90750000Y-115250000D01*
X115250000Y-149654999D02*
X116250001Y-150655000D01*
X100619975Y-127880025D02*
X102250000Y-126250000D01*
X100619975Y-128630025D02*
X100619975Y-128750000D01*
D60*
X118940000Y-138622500D02*
X118940000Y-139190000D01*
D58*
X103975000Y-132619448D02*
X103715552Y-132360000D01*
X102750000Y-144500000D02*
X101500000Y-144500000D01*
X101500000Y-144500000D02*
X100500000Y-145500000D01*
X117250000Y-132060000D02*
X119902500Y-132060000D01*
X100619975Y-128750000D02*
X100619975Y-127880025D01*
D60*
X122762500Y-134800000D02*
X119962500Y-132000000D01*
D58*
X114779420Y-117562500D02*
X114779420Y-120000000D01*
X115779420Y-116562500D02*
X114779420Y-117562500D01*
X113529420Y-116562500D02*
X115779420Y-116562500D01*
X114779420Y-120000000D02*
X115779420Y-121000000D01*
X82250000Y-110250000D02*
X80784474Y-110250000D01*
X86250000Y-109710000D02*
X82790000Y-109710000D01*
X82790000Y-109710000D02*
X82250000Y-110250000D01*
X80784474Y-108000000D02*
X81614474Y-107170000D01*
X81614474Y-107170000D02*
X86250000Y-107170000D01*
X123529420Y-118587500D02*
X125779420Y-118587500D01*
X125779420Y-120975000D02*
X125779420Y-118587500D01*
X115779420Y-118612500D02*
X118029420Y-118612500D01*
X118029420Y-118612500D02*
X118029420Y-121000000D01*
X80950000Y-47875000D02*
X80950000Y-43600000D01*
X81050000Y-47650000D02*
X80950000Y-47750000D01*
X80950000Y-43600000D02*
X81050000Y-43500000D01*
X92590000Y-43500000D02*
X92590000Y-43610000D01*
X93340000Y-44250000D02*
X92590000Y-43500000D01*
X95450000Y-42225000D02*
X93865000Y-42225000D01*
X93865000Y-42225000D02*
X92590000Y-43500000D01*
X90547057Y-42300000D02*
X88710000Y-42300000D01*
X88710000Y-42300000D02*
X87510000Y-43500000D01*
X91250000Y-43002943D02*
X90547057Y-42300000D01*
X95225000Y-53225000D02*
X92750000Y-50750000D01*
X92750000Y-47000000D02*
X91250000Y-45500000D01*
X91250000Y-45500000D02*
X91250000Y-43002943D01*
X92750000Y-50750000D02*
X92750000Y-47000000D01*
X95500000Y-53225000D02*
X95225000Y-53225000D01*
X135970000Y-67560000D02*
X135820000Y-67710000D01*
X142450000Y-67560000D02*
X138950000Y-67560000D01*
X138950000Y-58500000D02*
X138950000Y-67560000D01*
X138950000Y-67560000D02*
X135970000Y-67560000D01*
X148950000Y-52000000D02*
X148950000Y-53440000D01*
X148950000Y-53440000D02*
X142450000Y-59940000D01*
X90200000Y-47875000D02*
X90200000Y-43650000D01*
X90200000Y-43650000D02*
X90050000Y-43500000D01*
X145700000Y-142500000D02*
X145725000Y-142475000D01*
X144525000Y-142500000D02*
X145700000Y-142500000D01*
X144525000Y-143750000D02*
X144525000Y-142500000D01*
X144525000Y-141525000D02*
X144500000Y-141500000D01*
D60*
X155750000Y-136250000D02*
X157210000Y-134790000D01*
X157210000Y-134790000D02*
X157210000Y-131750000D01*
D58*
X144525000Y-142500000D02*
X144525000Y-141525000D01*
X91412500Y-95087500D02*
X90750000Y-95750000D01*
X86000000Y-95975000D02*
X88250000Y-95975000D01*
X88250000Y-95975000D02*
X88725000Y-95975000D01*
X88725000Y-95975000D02*
X88950000Y-95750000D01*
X94112500Y-95087500D02*
X91412500Y-95087500D01*
X88950000Y-95750000D02*
X90750000Y-95750000D01*
X95150000Y-96125000D02*
X94112500Y-95087500D01*
X79250000Y-130825552D02*
X78695552Y-131380000D01*
X97500000Y-124775000D02*
X97500000Y-126725000D01*
X80390256Y-125595000D02*
X79250000Y-126735256D01*
D60*
X132500000Y-151500000D02*
X160000000Y-151500000D01*
X165500000Y-146000000D02*
X165500000Y-131750000D01*
X160000000Y-151500000D02*
X165500000Y-146000000D01*
D58*
X83000000Y-124750000D02*
X83750000Y-124000000D01*
X83000000Y-126595000D02*
X82000000Y-125595000D01*
X78695552Y-131380000D02*
X72770000Y-131380000D01*
X72770000Y-131380000D02*
X72650000Y-131500000D01*
X79250000Y-126735256D02*
X79250000Y-130825552D01*
D60*
X130450000Y-149450000D02*
X132500000Y-151500000D01*
D58*
X83000000Y-126595000D02*
X83000000Y-124750000D01*
X82000000Y-125595000D02*
X80390256Y-125595000D01*
X90010387Y-122239613D02*
X94510387Y-122239613D01*
X89250000Y-123000000D02*
X90010387Y-122239613D01*
D60*
X158500000Y-139000000D02*
X159817057Y-139000000D01*
D58*
X129000000Y-144700000D02*
X129000000Y-151550000D01*
D60*
X158000000Y-139500000D02*
X158500000Y-139000000D01*
X160700000Y-134020000D02*
X159360000Y-132680000D01*
D58*
X130000000Y-141500000D02*
X130000000Y-143700000D01*
D60*
X158000000Y-148750000D02*
X158000000Y-139500000D01*
D58*
X129950000Y-143750000D02*
X129000000Y-144700000D01*
X130000000Y-143700000D02*
X129950000Y-143750000D01*
D60*
X160700000Y-138117057D02*
X160700000Y-134020000D01*
X159817057Y-139000000D02*
X160700000Y-138117057D01*
D58*
X77500000Y-137775000D02*
X77500000Y-150850000D01*
X86000000Y-134284744D02*
X86000000Y-127750000D01*
D60*
X159950000Y-150800000D02*
X164500000Y-146250000D01*
D58*
X77500000Y-137775000D02*
X82509744Y-137775000D01*
X82509744Y-137775000D02*
X86000000Y-134284744D01*
D60*
X164500000Y-146250000D02*
X164500000Y-138750000D01*
D58*
X85500000Y-127250000D02*
X87500000Y-125250000D01*
X86000000Y-127750000D02*
X85500000Y-127250000D01*
D60*
X158374694Y-150774694D02*
X158400000Y-150800000D01*
X158400000Y-150800000D02*
X159950000Y-150800000D01*
X154874694Y-150774694D02*
X158374694Y-150774694D01*
D58*
X90184448Y-111650000D02*
X92215552Y-111650000D01*
X90225001Y-109710000D02*
X89925000Y-110010001D01*
X85600000Y-131150000D02*
X85600000Y-128934744D01*
X91200000Y-109710000D02*
X90225001Y-109710000D01*
X86915256Y-117750000D02*
X84500000Y-120165256D01*
X82700000Y-133250000D02*
X83500000Y-133250000D01*
X85600000Y-128934744D02*
X84500000Y-127834744D01*
X87315552Y-117750000D02*
X86915256Y-117750000D01*
X92215552Y-111650000D02*
X92500000Y-111934448D01*
X89925000Y-111390552D02*
X90184448Y-111650000D01*
X92500000Y-111934448D02*
X92500000Y-112565552D01*
X89925000Y-110010001D02*
X89925000Y-111390552D01*
X84750000Y-132000000D02*
X85600000Y-131150000D01*
X84500000Y-120165256D02*
X84500000Y-127834744D01*
X83500000Y-133250000D02*
X84750000Y-132000000D01*
X92500000Y-112565552D02*
X87315552Y-117750000D01*
X107500000Y-132750000D02*
X107500000Y-145500000D01*
X107500000Y-132750000D02*
X105125000Y-130375000D01*
X105125000Y-122375000D02*
X105250000Y-122250000D01*
X105125000Y-130375000D02*
X105125000Y-125300000D01*
X105125000Y-125300000D02*
X105125000Y-122375000D01*
X107875000Y-129800000D02*
X107875000Y-130625000D01*
X107875000Y-130625000D02*
X110000000Y-132750000D01*
X106825000Y-117550000D02*
X106825000Y-117725000D01*
X121250000Y-150500000D02*
X120125000Y-149375000D01*
D59*
X127614710Y-124885290D02*
X125779420Y-123050000D01*
D58*
X102750000Y-143230000D02*
X100695000Y-143230000D01*
D59*
X120491166Y-130790000D02*
X117250000Y-130790000D01*
D58*
X121535377Y-152200000D02*
X121537500Y-152197877D01*
D59*
X153700000Y-132750000D02*
X153700000Y-127000000D01*
D58*
X123000000Y-146500000D02*
X120125000Y-149375000D01*
X92730552Y-109625000D02*
X92215552Y-109110000D01*
X137250000Y-140250000D02*
X137250000Y-139010000D01*
X106831861Y-117556861D02*
X106825000Y-117550000D01*
X92215552Y-109110000D02*
X89350000Y-109110000D01*
D59*
X124250000Y-128250000D02*
X124250000Y-131250000D01*
D58*
X137250000Y-139010000D02*
X139650000Y-139010000D01*
D59*
X81540000Y-130710000D02*
X81500000Y-130750000D01*
D58*
X78700000Y-110300000D02*
X78700000Y-112500000D01*
X100695000Y-143230000D02*
X100500000Y-143425000D01*
D59*
X134750000Y-121500000D02*
X135750000Y-122500000D01*
D58*
X120125000Y-149375000D02*
X120115000Y-149385000D01*
X137250000Y-141550000D02*
X137250000Y-140250000D01*
X140894345Y-139010000D02*
X141717123Y-138187222D01*
X137250000Y-141550000D02*
X139650000Y-141550000D01*
D59*
X121701166Y-132000000D02*
X120491166Y-130790000D01*
X124250000Y-131250000D02*
X123500000Y-132000000D01*
D58*
X89350000Y-109110000D02*
X88620000Y-108380000D01*
X106825000Y-117325000D02*
X106835773Y-117314227D01*
X110560000Y-139190000D02*
X110500000Y-139250000D01*
X93187499Y-109625000D02*
X92730552Y-109625000D01*
X123187500Y-123328495D02*
X123503495Y-123012500D01*
X78736598Y-105750000D02*
X78736598Y-107972876D01*
D59*
X130250000Y-125000000D02*
X130250000Y-126250000D01*
D58*
X106825000Y-117725000D02*
X106831861Y-117731861D01*
X78709474Y-110290526D02*
X78700000Y-110300000D01*
D59*
X90000000Y-123750000D02*
X90656833Y-123093167D01*
D58*
X78759474Y-109200000D02*
X78709474Y-109250000D01*
D59*
X91200000Y-107170000D02*
X89830000Y-107170000D01*
X135750000Y-125000000D02*
X135750000Y-122500000D01*
X113529420Y-123075000D02*
X112879420Y-122425000D01*
X140500000Y-125000000D02*
X140500000Y-127000000D01*
X130750000Y-126750000D02*
X131750000Y-126750000D01*
D58*
X150750000Y-141000000D02*
X152000000Y-141000000D01*
D59*
X115610000Y-130790000D02*
X115400000Y-131000000D01*
X124250000Y-128250000D02*
X123187500Y-128250000D01*
X130500000Y-122500000D02*
X131500000Y-121500000D01*
X153700000Y-139300000D02*
X153700000Y-132750000D01*
D58*
X78736598Y-107972876D02*
X78709474Y-108000000D01*
D59*
X107925000Y-122425000D02*
X106835773Y-121335773D01*
X123503495Y-123012500D02*
X113591920Y-123012500D01*
X130250000Y-125000000D02*
X130250000Y-122500000D01*
X123500000Y-132000000D02*
X122037500Y-132000000D01*
X112879420Y-122425000D02*
X107925000Y-122425000D01*
D58*
X121537500Y-152197877D02*
X121537500Y-150500000D01*
D59*
X127614710Y-124885290D02*
X124250000Y-128250000D01*
D58*
X120115000Y-149385000D02*
X117225000Y-149385000D01*
D59*
X113591920Y-123012500D02*
X113529420Y-123075000D01*
X106835773Y-121335773D02*
X106835773Y-115304300D01*
D58*
X112300000Y-139190000D02*
X110560000Y-139190000D01*
D59*
X80270000Y-131980000D02*
X81500000Y-130750000D01*
X127729420Y-125000000D02*
X127614710Y-124885290D01*
D58*
X121537500Y-150500000D02*
X121250000Y-150500000D01*
X78709474Y-108000000D02*
X78709474Y-109250000D01*
D59*
X89830000Y-107170000D02*
X88620000Y-108380000D01*
D58*
X134700000Y-139010000D02*
X137250000Y-139010000D01*
X123187500Y-128430000D02*
X123187500Y-128250000D01*
X125779420Y-123050000D02*
X125741920Y-123012500D01*
D59*
X77750000Y-131980000D02*
X80270000Y-131980000D01*
X82700000Y-130710000D02*
X81540000Y-130710000D01*
D58*
X85304448Y-109040000D02*
X85144448Y-109200000D01*
X85144448Y-109200000D02*
X78759474Y-109200000D01*
D59*
X122037500Y-132000000D02*
X121701166Y-132000000D01*
D58*
X94700000Y-111875000D02*
X94700000Y-111137501D01*
X85304448Y-109040000D02*
X87960000Y-109040000D01*
X112970579Y-122516159D02*
X113529420Y-123075000D01*
X139650000Y-139010000D02*
X140894345Y-139010000D01*
X94700000Y-111137501D02*
X93187499Y-109625000D01*
D59*
X125779420Y-123050000D02*
X123540995Y-123050000D01*
X130250000Y-125000000D02*
X127729420Y-125000000D01*
D58*
X106831861Y-119800000D02*
X106825000Y-119793139D01*
D59*
X152000000Y-141000000D02*
X153700000Y-139300000D01*
X130250000Y-122500000D02*
X130500000Y-122500000D01*
D58*
X113529420Y-123075000D02*
X113079420Y-122625000D01*
D59*
X90000000Y-124500000D02*
X90000000Y-123750000D01*
D58*
X134700000Y-141550000D02*
X137250000Y-141550000D01*
D59*
X117250000Y-130790000D02*
X115610000Y-130790000D01*
D58*
X121228495Y-123075000D02*
X121253495Y-123050000D01*
X121253495Y-123012500D02*
X121190995Y-123075000D01*
X148000000Y-138250000D02*
X150750000Y-141000000D01*
X87960000Y-109040000D02*
X88620000Y-108380000D01*
X106825000Y-117550000D02*
X106825000Y-117325000D01*
D59*
X123540995Y-123050000D02*
X123503495Y-123012500D01*
X130250000Y-126250000D02*
X130750000Y-126750000D01*
X131500000Y-121500000D02*
X134750000Y-121500000D01*
D58*
X78709474Y-109250000D02*
X78709474Y-110250000D01*
X78709474Y-110250000D02*
X78709474Y-110290526D01*
X110000000Y-145971948D02*
X110000000Y-145500000D01*
X107875000Y-148096948D02*
X110000000Y-145971948D01*
X107875000Y-148550000D02*
X107875000Y-148096948D01*
X115450000Y-56750000D02*
X115450000Y-52000000D01*
X147200000Y-118780000D02*
X145020000Y-118780000D01*
D60*
X84150000Y-87630502D02*
X86730502Y-85050000D01*
D58*
X157810000Y-128415001D02*
X157810000Y-136210000D01*
X157810000Y-136210000D02*
X159360000Y-137760000D01*
X148174999Y-118780000D02*
X157810000Y-128415001D01*
D60*
X163290000Y-109800000D02*
X163290000Y-136370000D01*
X95360000Y-85050000D02*
X99790000Y-89480000D01*
X163290000Y-136370000D02*
X161900000Y-137760000D01*
X86730502Y-85050000D02*
X95360000Y-85050000D01*
D59*
X147700000Y-128600000D02*
X149300000Y-127000000D01*
X146500000Y-128600000D02*
X147700000Y-128600000D01*
D58*
X147200000Y-118780000D02*
X148174999Y-118780000D01*
X145020000Y-118780000D02*
X144500000Y-119300000D01*
X105450000Y-56750000D02*
X105450000Y-52000000D01*
X138950000Y-56500000D02*
X138950000Y-52000000D01*
D60*
X161900000Y-140300000D02*
X161057057Y-140300000D01*
X164500000Y-136857057D02*
X164500000Y-89000000D01*
X159360000Y-140300000D02*
X161900000Y-140300000D01*
X164500000Y-89000000D02*
X154260000Y-78760000D01*
X154260000Y-78760000D02*
X151560000Y-78760000D01*
X161057057Y-140300000D02*
X164500000Y-136857057D01*
D58*
X124905000Y-61875000D02*
X128200000Y-65170000D01*
X126495000Y-66875000D02*
X128200000Y-65170000D01*
X125150000Y-66875000D02*
X126495000Y-66875000D01*
X123950000Y-61875000D02*
X124905000Y-61875000D01*
X153828529Y-90800000D02*
X155670000Y-92641471D01*
X147814365Y-90800000D02*
X153828529Y-90800000D01*
X143150000Y-85550000D02*
X146750000Y-89150000D01*
X146750000Y-89735635D02*
X147814365Y-90800000D01*
X141650000Y-85550000D02*
X143150000Y-85550000D01*
X155670000Y-92641471D02*
X155670000Y-109800000D01*
X136650000Y-84300000D02*
X137900000Y-85550000D01*
X146750000Y-89150000D02*
X146750000Y-89735635D01*
X149020000Y-84521470D02*
X150099265Y-85600735D01*
X154230000Y-108700000D02*
X153130000Y-109800000D01*
X154230000Y-92050000D02*
X154230000Y-108700000D01*
X149020000Y-81300000D02*
X149020000Y-84521470D01*
X94200000Y-99840256D02*
X94200000Y-98000000D01*
X99100000Y-104740256D02*
X94200000Y-99840256D01*
X87000000Y-51700000D02*
X86950000Y-51750000D01*
X86800000Y-51700000D02*
X84850000Y-49750000D01*
X86800000Y-51750000D02*
X86800000Y-51700000D01*
X82000000Y-51750000D02*
X80000000Y-49750000D01*
X82025000Y-51750000D02*
X82000000Y-51750000D01*
X107479511Y-91200000D02*
X99310000Y-91200000D01*
X93910000Y-85800000D02*
X88400000Y-85800000D01*
X82760000Y-88780502D02*
X81610000Y-87630502D01*
X99310000Y-91200000D02*
X93910000Y-85800000D01*
X85419498Y-88780502D02*
X82760000Y-88780502D01*
X88400000Y-85800000D02*
X85419498Y-88780502D01*
X146480000Y-81300000D02*
X146480000Y-83780000D01*
X146480000Y-83780000D02*
X148400000Y-85700000D01*
X151560000Y-81300000D02*
X151560000Y-84988529D01*
X148650000Y-86300000D02*
X148150000Y-86800000D01*
X151560000Y-84988529D02*
X150248529Y-86300000D01*
X150248529Y-86300000D02*
X148650000Y-86300000D01*
X131498530Y-84050000D02*
X131450000Y-84050000D01*
X131450000Y-84050000D02*
X128700000Y-81300000D01*
X131949265Y-84500735D02*
X131498530Y-84050000D01*
X156670000Y-118780000D02*
X158940000Y-116510000D01*
X152150000Y-118780000D02*
X156670000Y-118780000D01*
X158940000Y-116510000D02*
X161150000Y-116510000D01*
X138065256Y-123400000D02*
X139748529Y-123400000D01*
X132810000Y-109800000D02*
X132810000Y-108940000D01*
X143940000Y-78760000D02*
X145330000Y-80150000D01*
X138065256Y-121600000D02*
X137750000Y-121915256D01*
X139234744Y-121600000D02*
X138065256Y-121600000D01*
X142625000Y-126276471D02*
X142625000Y-128300000D01*
X145330000Y-80150000D02*
X145330000Y-85430000D01*
X139750000Y-121084744D02*
X139234744Y-121600000D01*
X139750000Y-116740000D02*
X139750000Y-121084744D01*
X132810000Y-109800000D02*
X139750000Y-116740000D01*
X132810000Y-108940000D02*
X140750000Y-101000000D01*
X137750000Y-121915256D02*
X137750000Y-123084744D01*
X145330000Y-85430000D02*
X146650000Y-86750000D01*
X139748529Y-123400000D02*
X142625000Y-126276471D01*
X137750000Y-123084744D02*
X138065256Y-123400000D01*
X146500000Y-101000000D02*
X149500000Y-98000000D01*
X140750000Y-101000000D02*
X146500000Y-101000000D01*
X135224365Y-88050000D02*
X133910000Y-89364365D01*
X140250000Y-85224365D02*
X137424365Y-88050000D01*
X134125000Y-128550000D02*
X134125000Y-127540256D01*
X140250000Y-79910000D02*
X140250000Y-85224365D01*
X141400000Y-78760000D02*
X140250000Y-79910000D01*
X131750000Y-116500000D02*
X130270000Y-115020000D01*
X137424365Y-88050000D02*
X135224365Y-88050000D01*
X134125000Y-127540256D02*
X131750000Y-125165256D01*
X133910000Y-89364365D02*
X133910000Y-94724314D01*
X131750000Y-125165256D02*
X131750000Y-122750000D01*
X131750000Y-118250000D02*
X131750000Y-116500000D01*
X130270000Y-115020000D02*
X130270000Y-112792808D01*
X133910000Y-94724314D02*
X130270000Y-98364314D01*
X130270000Y-112792808D02*
X130270000Y-109800000D01*
X130270000Y-98364314D02*
X130270000Y-109800000D01*
X92175000Y-52434744D02*
X92175000Y-50525000D01*
X83000000Y-49750000D02*
X81900000Y-49750000D01*
X91400000Y-49750000D02*
X92150000Y-50500000D01*
X90740256Y-70330256D02*
X90740256Y-53869488D01*
X92175000Y-50525000D02*
X92150000Y-50500000D01*
X91150000Y-49750000D02*
X91400000Y-49750000D01*
X90740256Y-53869488D02*
X92175000Y-52434744D01*
X91950000Y-71540000D02*
X90740256Y-70330256D01*
X75050000Y-51650000D02*
X74950000Y-51750000D01*
X75050000Y-51900000D02*
X74950000Y-52000000D01*
X75050000Y-49750000D02*
X75050000Y-51650000D01*
X119780000Y-146845000D02*
X120125000Y-146500000D01*
X117225000Y-146845000D02*
X119780000Y-146845000D01*
X91220000Y-111000000D02*
X91200000Y-110980000D01*
X92500000Y-111000000D02*
X91220000Y-111000000D01*
X103250000Y-124350000D02*
X102150000Y-124350000D01*
X102150000Y-124350000D02*
X100750000Y-125750000D01*
X118029420Y-115339420D02*
X112490000Y-109800000D01*
X118029420Y-116562500D02*
X118029420Y-115339420D01*
X119980000Y-114750000D02*
X115030000Y-109800000D01*
X125779420Y-116537500D02*
X123991920Y-114750000D01*
X123991920Y-114750000D02*
X119980000Y-114750000D01*
X100162500Y-110172500D02*
X99790000Y-109800000D01*
X100162500Y-115300000D02*
X100162500Y-110172500D01*
X99562500Y-110027500D02*
X99790000Y-109800000D01*
X95475000Y-55250000D02*
X95500000Y-55275000D01*
X94250000Y-55250000D02*
X95475000Y-55250000D01*
X95196948Y-113750000D02*
X94000000Y-112553052D01*
X94000000Y-111500000D02*
X93500000Y-111000000D01*
X95650000Y-113750000D02*
X95196948Y-113750000D01*
X93500000Y-110971948D02*
X93500000Y-111000000D01*
X94000000Y-112553052D02*
X94000000Y-111500000D01*
X90550000Y-51000000D02*
X91300000Y-51750000D01*
X88821948Y-47875000D02*
X90550000Y-49603052D01*
X90550000Y-49603052D02*
X90550000Y-51000000D01*
X85800000Y-47875000D02*
X88821948Y-47875000D01*
X138675001Y-137740000D02*
X138375000Y-137439999D01*
X139710000Y-137800000D02*
X139650000Y-137740000D01*
X145537500Y-128387500D02*
X145537500Y-132764253D01*
X145537500Y-132764253D02*
X145534770Y-132766983D01*
X143500000Y-135250000D02*
X144500000Y-136250000D01*
X138375000Y-136129448D02*
X139254448Y-135250000D01*
X138375000Y-137439999D02*
X138375000Y-136129448D01*
X144500000Y-127350000D02*
X139650000Y-122500000D01*
X144500000Y-127350000D02*
X145537500Y-128387500D01*
X139650000Y-122500000D02*
X138750000Y-122500000D01*
X139650000Y-137740000D02*
X138675001Y-137740000D01*
X139254448Y-135250000D02*
X143500000Y-135250000D01*
X144500000Y-132000000D02*
X144500000Y-129250000D01*
X111135000Y-148115000D02*
X109750000Y-149500000D01*
X117250000Y-144114999D02*
X113249999Y-148115000D01*
X112275000Y-148115000D02*
X111135000Y-148115000D01*
X117250000Y-141730000D02*
X117250000Y-143000000D01*
X117250000Y-143000000D02*
X117250000Y-144114999D01*
X113249999Y-148115000D02*
X112275000Y-148115000D01*
X113200000Y-65000000D02*
X111700000Y-66500000D01*
X111700000Y-66500000D02*
X109200000Y-66500000D01*
X109200000Y-66500000D02*
X107700000Y-65000000D01*
X107750000Y-64950000D02*
X107700000Y-65000000D01*
X107750000Y-62875000D02*
X107750000Y-64950000D01*
X117225000Y-148115000D02*
X116215000Y-148115000D01*
X113575000Y-140760001D02*
X113575000Y-143775000D01*
X113575000Y-143775000D02*
X109750000Y-147600000D01*
X109854205Y-147495795D02*
X109750000Y-147600000D01*
X116215000Y-148115000D02*
X115850000Y-147750000D01*
X113274999Y-140460000D02*
X113575000Y-140760001D01*
X112300000Y-140460000D02*
X113274999Y-140460000D01*
X110995972Y-147495795D02*
X109854205Y-147495795D01*
X91500000Y-64250000D02*
X91500000Y-61104563D01*
X95500000Y-68250000D02*
X91500000Y-64250000D01*
X91500000Y-61104563D02*
X91481667Y-61086230D01*
X95500000Y-68950000D02*
X95500000Y-68250000D01*
X131710000Y-88990000D02*
X131710000Y-92740000D01*
X142650000Y-81950000D02*
X142650000Y-83950000D01*
X132650000Y-88050000D02*
X131710000Y-88990000D01*
X136650000Y-85550000D02*
X134150000Y-88050000D01*
X134150000Y-88050000D02*
X132650000Y-88050000D01*
X131710000Y-92740000D02*
X127730000Y-96720000D01*
X127730000Y-96720000D02*
X127730000Y-109800000D01*
X134930000Y-80150000D02*
X136320000Y-78760000D01*
X133930000Y-86800000D02*
X134930000Y-85800000D01*
X131394365Y-86800000D02*
X133930000Y-86800000D01*
X125190000Y-98550000D02*
X128900000Y-94840000D01*
X128900000Y-89294365D02*
X131394365Y-86800000D01*
X128900000Y-94840000D02*
X128900000Y-89294365D01*
X134930000Y-85800000D02*
X134930000Y-80150000D01*
X125190000Y-98510000D02*
X125190000Y-109800000D01*
X95450000Y-44275000D02*
X95450000Y-44000000D01*
X93500000Y-46225000D02*
X93500000Y-46500000D01*
X94675000Y-61075000D02*
X96000000Y-59750000D01*
X95450000Y-44275000D02*
X93500000Y-46225000D01*
X92382428Y-61075000D02*
X94675000Y-61075000D01*
X123900000Y-94300000D02*
X117570000Y-100630000D01*
X127400000Y-82300000D02*
X127400000Y-85300000D01*
X123900000Y-88800000D02*
X123900000Y-90800000D01*
X125400000Y-87300000D02*
X123900000Y-88800000D01*
X117570000Y-100630000D02*
X117570000Y-109800000D01*
X127400000Y-85300000D02*
X125400000Y-87300000D01*
X109250000Y-125250000D02*
X109000000Y-125500000D01*
X105500000Y-134375000D02*
X105500000Y-133000000D01*
X120500000Y-125250000D02*
X109250000Y-125250000D01*
X92500000Y-132000000D02*
X94500000Y-134000000D01*
X90334744Y-132000000D02*
X92500000Y-132000000D01*
X94600000Y-135004080D02*
X97050000Y-137454080D01*
X87250000Y-132000000D02*
X90334744Y-132000000D01*
X105000000Y-134875000D02*
X105500000Y-134375000D01*
X94500000Y-134000000D02*
X94600000Y-134100000D01*
X94600000Y-134100000D02*
X94600000Y-135004080D01*
X132630000Y-84730507D02*
X132630000Y-84820000D01*
X131716346Y-80150000D02*
X132630000Y-81063654D01*
X126160000Y-78760000D02*
X127550000Y-80150000D01*
X127550000Y-80150000D02*
X131716346Y-80150000D01*
X132630000Y-84820000D02*
X131600735Y-85849265D01*
X132630000Y-81063654D02*
X132630000Y-84730507D01*
X98090000Y-108734314D02*
X99848529Y-106975785D01*
X98090000Y-115000000D02*
X98090000Y-108734314D01*
X109950000Y-93348529D02*
X109950000Y-89480000D01*
X99700000Y-129000000D02*
X99700000Y-129740000D01*
X99700000Y-129740000D02*
X97750000Y-131690000D01*
X99848529Y-103450000D02*
X109950000Y-93348529D01*
X99848529Y-106975785D02*
X99848529Y-103450000D01*
X110950000Y-58750000D02*
X108700000Y-61000000D01*
X115450000Y-58750000D02*
X110950000Y-58750000D01*
X98750000Y-129925552D02*
X98750000Y-129000000D01*
X96450000Y-139340000D02*
X96450000Y-139000000D01*
X112490000Y-89480000D02*
X112490000Y-91374215D01*
X100500000Y-103364215D02*
X100500000Y-106890000D01*
X97800000Y-140690000D02*
X96450000Y-139340000D01*
X98175552Y-130500000D02*
X98750000Y-129925552D01*
X112490000Y-91374215D02*
X100500000Y-103364215D01*
X100500000Y-106890000D02*
X98690000Y-108700000D01*
X97000000Y-130500000D02*
X98175552Y-130500000D01*
X98690000Y-108700000D02*
X98690000Y-116340000D01*
X98690000Y-116340000D02*
X99100000Y-116750000D01*
X120113553Y-93013553D02*
X120110000Y-93010000D01*
X99450735Y-136700735D02*
X99851470Y-136300000D01*
X103900000Y-136100000D02*
X100100000Y-136100000D01*
X97800000Y-144500000D02*
X98774999Y-144500000D01*
X112300000Y-132060000D02*
X108760000Y-135600000D01*
X99851470Y-136300000D02*
X99900000Y-136300000D01*
X121400000Y-97800000D02*
X121400000Y-112300000D01*
X98774999Y-144500000D02*
X99075000Y-144199999D01*
X112275000Y-150655000D02*
X103955000Y-150655000D01*
X112300000Y-132060000D02*
X112250000Y-132110000D01*
X104250000Y-135750000D02*
X103900000Y-136100000D01*
X98950735Y-136700735D02*
X99450735Y-136700735D01*
X120110000Y-89480000D02*
X120110000Y-93010000D01*
X108760000Y-135600000D02*
X108100000Y-135600000D01*
X99075000Y-144199999D02*
X99075000Y-139700000D01*
X97750000Y-135500000D02*
X98950735Y-136700735D01*
X99900000Y-136300000D02*
X100100000Y-136100000D01*
X103955000Y-150655000D02*
X97800000Y-144500000D01*
X99075000Y-139700000D02*
X98875000Y-139500000D01*
X120113553Y-95263553D02*
X120113553Y-93013553D01*
X119850000Y-89480000D02*
X120110000Y-89480000D01*
X126800000Y-84450001D02*
X125010000Y-82660001D01*
X125010000Y-80150000D02*
X123620000Y-78760000D01*
X125010000Y-82660001D02*
X125010000Y-80150000D01*
X107675635Y-108550000D02*
X106120000Y-108550000D01*
X126630000Y-89595635D02*
X107675635Y-108550000D01*
X126630000Y-87820000D02*
X126630000Y-89595635D01*
X129900000Y-84550000D02*
X126630000Y-87820000D01*
X106120000Y-108550000D02*
X104870000Y-109800000D01*
X129954265Y-84550000D02*
X129900000Y-84550000D01*
X111954448Y-137920000D02*
X112645552Y-137920000D01*
X114000000Y-136565552D02*
X114000000Y-132000000D01*
X116580000Y-128850000D02*
X114000000Y-128850000D01*
X117250000Y-129520000D02*
X116580000Y-128850000D01*
X112645552Y-137920000D02*
X114000000Y-136565552D01*
X114000000Y-128850000D02*
X109750000Y-128850000D01*
X112300000Y-137920000D02*
X111954448Y-137920000D01*
X77750000Y-130710000D02*
X76775001Y-130710000D01*
X111390000Y-109344365D02*
X111390000Y-110110000D01*
X76475000Y-122926471D02*
X86167960Y-113233511D01*
X76775001Y-130710000D02*
X76475000Y-130409999D01*
X86167960Y-113233511D02*
X90983511Y-113233511D01*
X112634365Y-108100000D02*
X111390000Y-109344365D01*
X111390000Y-110110000D02*
X110500000Y-111000000D01*
X76475000Y-130409999D02*
X76475000Y-122926471D01*
X110980000Y-129520000D02*
X112300000Y-129520000D01*
X109750000Y-130750000D02*
X110980000Y-129520000D01*
X117250000Y-134124448D02*
X117250000Y-135380000D01*
X112645552Y-129520000D02*
X117250000Y-134124448D01*
X117250000Y-136650000D02*
X117250000Y-135380000D01*
X112300000Y-129520000D02*
X112645552Y-129520000D01*
X136000000Y-127600000D02*
X136000000Y-128121948D01*
X131000000Y-135500000D02*
X135000000Y-135500000D01*
X136000000Y-128121948D02*
X134962500Y-129159448D01*
X135674999Y-137740000D02*
X134700000Y-137740000D01*
X135345552Y-135500000D02*
X135975000Y-136129448D01*
X130000000Y-136500000D02*
X131000000Y-135500000D01*
X134700000Y-137740000D02*
X135915000Y-137740000D01*
X133000000Y-122500000D02*
X133000000Y-124600000D01*
X135975000Y-136129448D02*
X135975000Y-137439999D01*
X135000000Y-135500000D02*
X135345552Y-135500000D01*
X134962500Y-129159448D02*
X134962500Y-133212500D01*
X133000000Y-124600000D02*
X136000000Y-127600000D01*
X135975000Y-137439999D02*
X135674999Y-137740000D01*
X134962500Y-133212500D02*
X135000000Y-133250000D01*
X135915000Y-137740000D02*
X136500000Y-138325000D01*
X89135552Y-112250000D02*
X87195552Y-110310000D01*
X91200000Y-112250000D02*
X89135552Y-112250000D01*
X87195552Y-110310000D02*
X83250000Y-110310000D01*
X136000000Y-131750000D02*
X136000000Y-129500000D01*
X132000000Y-138750000D02*
X132000000Y-136500000D01*
X134700000Y-136470000D02*
X132030000Y-136470000D01*
X132030000Y-136470000D02*
X132000000Y-136500000D01*
X142500000Y-139250000D02*
X142500000Y-136250000D01*
X139650000Y-136470000D02*
X142280000Y-136470000D01*
X142280000Y-136470000D02*
X142500000Y-136250000D01*
X76453052Y-47875000D02*
X76000000Y-47875000D01*
X79975000Y-51396948D02*
X76453052Y-47875000D01*
X79975000Y-51750000D02*
X79975000Y-51396948D01*
X135150000Y-110000000D02*
X135350000Y-109800000D01*
X80750000Y-105713402D02*
X80786598Y-105750000D01*
X80750000Y-103500000D02*
X80750000Y-105713402D01*
X80936598Y-105900000D02*
X80786598Y-105750000D01*
X86250000Y-105900000D02*
X80936598Y-105900000D01*
X85095000Y-66595000D02*
X86250000Y-67750000D01*
X84160000Y-64007710D02*
X85095000Y-64942710D01*
X85095000Y-64942710D02*
X85095000Y-66595000D01*
X88160000Y-67750000D02*
X89410000Y-69000000D01*
X84160000Y-55170000D02*
X84160000Y-64007710D01*
X86250000Y-67750000D02*
X88160000Y-67750000D01*
X93810000Y-72690000D02*
X95500000Y-71000000D01*
X90560000Y-72690000D02*
X93810000Y-72690000D01*
X89410000Y-71540000D02*
X90560000Y-72690000D01*
X82940000Y-53560000D02*
X84750000Y-51750000D01*
X84330000Y-71540000D02*
X82940000Y-70150000D01*
X82940000Y-70150000D02*
X82940000Y-53560000D01*
X80640000Y-65567710D02*
X80640000Y-70390000D01*
X78135000Y-54235000D02*
X77000000Y-53100000D01*
X78135000Y-63062710D02*
X80640000Y-65567710D01*
X77000000Y-53100000D02*
X77000000Y-51750000D01*
X78135000Y-54235000D02*
X78135000Y-63062710D01*
X80640000Y-70390000D02*
X81790000Y-71540000D01*
X75560000Y-70390000D02*
X76710000Y-71540000D01*
X75560000Y-54810000D02*
X74750000Y-54000000D01*
X75560000Y-65060000D02*
X75560000Y-70390000D01*
X75560000Y-65060000D02*
X75560000Y-54810000D01*
X75464026Y-48785974D02*
X75390552Y-48712500D01*
X76428052Y-49750000D02*
X75464026Y-48785974D01*
X65837500Y-48712500D02*
X63300000Y-51250000D01*
X78465552Y-46837500D02*
X75659448Y-46837500D01*
X75390552Y-48712500D02*
X65837500Y-48712500D01*
X76950000Y-49750000D02*
X76428052Y-49750000D01*
X65400000Y-72450000D02*
X65400000Y-70390000D01*
X75400000Y-48721948D02*
X75464026Y-48785974D01*
X80600000Y-48971948D02*
X78465552Y-46837500D01*
X86296948Y-49750000D02*
X85259448Y-48712500D01*
X81559448Y-48712500D02*
X81300000Y-48971948D01*
X66300000Y-36750000D02*
X66300000Y-48250000D01*
X85259448Y-48712500D02*
X81559448Y-48712500D01*
X66300000Y-48250000D02*
X63300000Y-51250000D01*
X75400000Y-47096948D02*
X75400000Y-48721948D01*
X65400000Y-70390000D02*
X64010000Y-69000000D01*
X75659448Y-46837500D02*
X75400000Y-47096948D01*
X86750000Y-49750000D02*
X86296948Y-49750000D01*
X81300000Y-48971948D02*
X80600000Y-48971948D01*
X65450000Y-72500000D02*
X65400000Y-72450000D01*
X80750000Y-112500000D02*
X80750000Y-114741315D01*
X86250000Y-110980000D02*
X82270000Y-110980000D01*
X82270000Y-110980000D02*
X80750000Y-112500000D01*
X80750000Y-114741315D02*
X80741315Y-114750000D01*
X73020000Y-70390000D02*
X74170000Y-71540000D01*
X73020000Y-63070000D02*
X73020000Y-70390000D01*
X69299744Y-51269700D02*
X69950000Y-51919956D01*
X69950000Y-51919956D02*
X69950000Y-60000000D01*
X69950000Y-60000000D02*
X73020000Y-63070000D01*
X97250000Y-106500000D02*
X95000000Y-106500000D01*
X95000000Y-106500000D02*
X94400000Y-105900000D01*
X95550000Y-107050000D02*
X95000000Y-106500000D01*
X94400000Y-105900000D02*
X91200000Y-105900000D01*
X95250000Y-108587500D02*
X95640552Y-108587500D01*
X95550000Y-108500000D02*
X95550000Y-107050000D01*
X87500000Y-124375000D02*
X86375000Y-124375000D01*
X90000000Y-130750000D02*
X88725000Y-129475000D01*
X89054448Y-127640000D02*
X91015552Y-127640000D01*
X91275000Y-127380552D02*
X91275000Y-126070001D01*
X87500000Y-120750000D02*
X87500000Y-124375000D01*
X91015552Y-127640000D02*
X91275000Y-127380552D01*
X88725000Y-127969448D02*
X89054448Y-127640000D01*
X89579744Y-125770000D02*
X88184744Y-124375000D01*
X91275000Y-126070001D02*
X90974999Y-125770000D01*
X90000000Y-125770000D02*
X89579744Y-125770000D01*
X88725000Y-129475000D02*
X88725000Y-127969448D01*
X88184744Y-124375000D02*
X87500000Y-124375000D01*
X90974999Y-125770000D02*
X90000000Y-125770000D01*
X86375000Y-124375000D02*
X85500000Y-125250000D01*
X89250000Y-49750000D02*
X89250000Y-51750000D01*
X81500000Y-101250000D02*
X80750000Y-101250000D01*
X84880000Y-104630000D02*
X81500000Y-101250000D01*
X86250000Y-104630000D02*
X84880000Y-104630000D01*
X90000000Y-127040000D02*
X87760000Y-127040000D01*
X87760000Y-127040000D02*
X87500000Y-127300000D01*
X80950000Y-126595000D02*
X83117500Y-128762500D01*
X83117500Y-128762500D02*
X84789950Y-128762500D01*
X85200000Y-129825552D02*
X83045552Y-131980000D01*
X85200000Y-129172550D02*
X85200000Y-129825552D01*
X84789950Y-128762500D02*
X85200000Y-129172550D01*
X83045552Y-131980000D02*
X82700000Y-131980000D01*
X105450000Y-58750000D02*
X106350000Y-57850000D01*
X117900000Y-63950000D02*
X117950000Y-64000000D01*
X116136160Y-57850000D02*
X117900000Y-59613840D01*
X117900000Y-59613840D02*
X117900000Y-61875000D01*
X123278052Y-68875000D02*
X125150000Y-68875000D01*
X118403052Y-64000000D02*
X123278052Y-68875000D01*
X117950000Y-64000000D02*
X118200000Y-64000000D01*
X117900000Y-61875000D02*
X117900000Y-63950000D01*
X106350000Y-57850000D02*
X116136160Y-57850000D01*
X105450000Y-58750000D02*
X105450000Y-59128052D01*
X126825000Y-68875000D02*
X128200000Y-70250000D01*
X118200000Y-64000000D02*
X118471948Y-64000000D01*
X125150000Y-68875000D02*
X126825000Y-68875000D01*
X118200000Y-64000000D02*
X118403052Y-64000000D01*
X109650000Y-62875000D02*
X109650000Y-64900000D01*
X111950000Y-62750000D02*
X111825000Y-62875000D01*
X112450000Y-62750000D02*
X111950000Y-62750000D01*
X109650000Y-64900000D02*
X109750000Y-65000000D01*
X111825000Y-62875000D02*
X109650000Y-62875000D01*
X99365552Y-132960000D02*
X98695552Y-132290000D01*
X96290000Y-132290000D02*
X95650000Y-131650000D01*
X102700000Y-132960000D02*
X99365552Y-132960000D01*
X95650000Y-131650000D02*
X92900000Y-131650000D01*
X92900000Y-131650000D02*
X92000000Y-130750000D01*
X98695552Y-132290000D02*
X96290000Y-132290000D01*
X77500000Y-133500000D02*
X77750000Y-133250000D01*
X77500000Y-135725000D02*
X77500000Y-133500000D01*
X93675000Y-124159448D02*
X93675000Y-126425000D01*
X93675000Y-129425000D02*
X93675000Y-127325000D01*
X93675000Y-126425000D02*
X94290000Y-127040000D01*
X95109448Y-122725000D02*
X93675000Y-124159448D01*
X97500000Y-122725000D02*
X95109448Y-122725000D01*
X97500000Y-122725000D02*
X97500000Y-120750000D01*
X93675000Y-127325000D02*
X93960000Y-127040000D01*
X94290000Y-127040000D02*
X94950000Y-127040000D01*
X95000000Y-130750000D02*
X93675000Y-129425000D01*
X93960000Y-127040000D02*
X94950000Y-127040000D01*
X106250000Y-134350000D02*
X106250000Y-132750000D01*
X106250000Y-132750000D02*
X105190000Y-131690000D01*
X112300000Y-135380000D02*
X112300000Y-136650000D01*
X110630000Y-135380000D02*
X112300000Y-135380000D01*
X105190000Y-131690000D02*
X102700000Y-131690000D01*
X106900000Y-135000000D02*
X106250000Y-134350000D01*
X110250000Y-135000000D02*
X110630000Y-135380000D01*
X112300000Y-141730000D02*
X112300000Y-143000000D01*
X110500000Y-143000000D02*
X112300000Y-143000000D01*
X107984744Y-146300000D02*
X106800000Y-146300000D01*
X104025000Y-143525000D02*
X104025000Y-140775000D01*
X108750000Y-145534744D02*
X108750000Y-144750000D01*
X104025000Y-140775000D02*
X103940000Y-140690000D01*
X108750000Y-144750000D02*
X110500000Y-143000000D01*
X106800000Y-146300000D02*
X104025000Y-143525000D01*
X107984744Y-146300000D02*
X108750000Y-145534744D01*
X103940000Y-140690000D02*
X102750000Y-140690000D01*
X119950000Y-63900000D02*
X119850000Y-64000000D01*
X119950000Y-61875000D02*
X121900000Y-61875000D01*
X119950000Y-61875000D02*
X119950000Y-63900000D01*
X115250000Y-65000000D02*
X116125000Y-65875000D01*
X116125000Y-65875000D02*
X118900000Y-65875000D01*
X95000000Y-132750000D02*
X95000000Y-134555552D01*
X95000000Y-134555552D02*
X102404448Y-141960000D01*
X102404448Y-141960000D02*
X102750000Y-141960000D01*
X86250000Y-112250000D02*
X85500000Y-112250000D01*
X85500000Y-112250000D02*
X80750000Y-117000000D01*
X93250000Y-96125000D02*
X91125000Y-98250000D01*
D60*
X97400000Y-84550000D02*
X102330000Y-89480000D01*
D58*
X91125000Y-98250000D02*
X90750000Y-98250000D01*
D60*
X81650502Y-85050000D02*
X81650502Y-85049498D01*
D58*
X88475000Y-98250000D02*
X88250000Y-98025000D01*
D60*
X81650502Y-85049498D02*
X82150000Y-84550000D01*
D58*
X147545552Y-117510000D02*
X158210000Y-128174448D01*
D60*
X82150000Y-84550000D02*
X97400000Y-84550000D01*
D58*
X147200000Y-117510000D02*
X147545552Y-117510000D01*
X87375000Y-97150000D02*
X85400000Y-97150000D01*
X88250000Y-98025000D02*
X87375000Y-97150000D01*
X144785000Y-117510000D02*
X144500000Y-117225000D01*
X158210000Y-134070000D02*
X159360000Y-135220000D01*
X85400000Y-97150000D02*
X79070000Y-90820000D01*
X147200000Y-117510000D02*
X144785000Y-117510000D01*
D60*
X79070000Y-87630502D02*
X81650502Y-85050000D01*
D58*
X90750000Y-98250000D02*
X88475000Y-98250000D01*
X79805502Y-87630502D02*
X79070000Y-87630502D01*
X79070000Y-90820000D02*
X79070000Y-87630502D01*
X158210000Y-128174448D02*
X158210000Y-134070000D01*
X94500000Y-110296948D02*
X96250000Y-112046948D01*
X91200000Y-104630000D02*
X94820000Y-104630000D01*
X96250000Y-112046948D02*
X96250000Y-118750000D01*
X91200000Y-104630000D02*
X90225001Y-104630000D01*
X93059744Y-106500000D02*
X94500000Y-107940256D01*
X94820000Y-104630000D02*
X95000000Y-104450000D01*
X90000000Y-106500000D02*
X93059744Y-106500000D01*
X89500000Y-105355001D02*
X89500000Y-106000000D01*
X97500000Y-118750000D02*
X97090000Y-118340000D01*
X89500000Y-106000000D02*
X90000000Y-106500000D01*
X90225001Y-104630000D02*
X89500000Y-105355001D01*
X97500000Y-118750000D02*
X96250000Y-118750000D01*
X96250000Y-118750000D02*
X87500000Y-118750000D01*
X94500000Y-107940256D02*
X94500000Y-110296948D01*
X74551203Y-117698797D02*
X63450002Y-128799998D01*
X74551203Y-107648797D02*
X74551203Y-117698797D01*
X78700000Y-101250000D02*
X78700000Y-103500000D01*
X78700000Y-103500000D02*
X74551203Y-107648797D01*
X63450002Y-128799998D02*
X63450002Y-136155200D01*
X78700000Y-114758685D02*
X78691315Y-114750000D01*
X78700000Y-117000000D02*
X78700000Y-114758685D01*
X65000000Y-132418092D02*
X65000000Y-146805202D01*
X78700000Y-118718092D02*
X65000000Y-132418092D01*
X65000000Y-146805202D02*
X63450002Y-148355200D01*
X78700000Y-117000000D02*
X78700000Y-118718092D01*
X97035000Y-128310000D02*
X97500000Y-128775000D01*
X94950000Y-128310000D02*
X97035000Y-128310000D01*
X131750000Y-128750000D02*
X131750000Y-130750000D01*
X134000000Y-131750000D02*
X132750000Y-131750000D01*
X132750000Y-131750000D02*
X131750000Y-130750000D01*
X133320000Y-142820000D02*
X132000000Y-141500000D01*
X130000000Y-139500000D02*
X132000000Y-141500000D01*
X134700000Y-142820000D02*
X133320000Y-142820000D01*
X130000000Y-138750000D02*
X130000000Y-139500000D01*
X141500000Y-132000000D02*
X142500000Y-132000000D01*
X140500000Y-129000000D02*
X140500000Y-131000000D01*
X140500000Y-131000000D02*
X141500000Y-132000000D01*
X141180000Y-142820000D02*
X142500000Y-141500000D01*
X139650000Y-142820000D02*
X141180000Y-142820000D01*
X144500000Y-139500000D02*
X144500000Y-139250000D01*
X142500000Y-141500000D02*
X144500000Y-139500000D01*
X139650000Y-144090000D02*
X142135000Y-144090000D01*
X142135000Y-144090000D02*
X142475000Y-143750000D01*
X134700000Y-144090000D02*
X132340000Y-144090000D01*
X132340000Y-144090000D02*
X132000000Y-143750000D01*
X104870000Y-84270001D02*
X104399999Y-83800000D01*
X104399999Y-83800000D02*
X110900000Y-83800000D01*
X126500000Y-122000000D02*
X120098527Y-122000000D01*
X114000000Y-146250000D02*
X113405000Y-146845000D01*
X114000000Y-142250000D02*
X114000000Y-146250000D01*
X129150000Y-112601470D02*
X128501470Y-113250000D01*
X127200735Y-121299265D02*
X126500000Y-122000000D01*
X128501470Y-113250000D02*
X128500000Y-113250000D01*
X129150000Y-107300000D02*
X129150000Y-112601470D01*
X129150000Y-105550000D02*
X129150000Y-107300000D01*
X120098527Y-122000000D02*
X119786027Y-122312500D01*
X113405000Y-146845000D02*
X112275000Y-146845000D01*
X127200735Y-114549265D02*
X127200735Y-121299265D01*
X115500000Y-140750000D02*
X114000000Y-142250000D01*
X113750000Y-106750000D02*
X113750000Y-110211470D01*
X113750000Y-110211470D02*
X113769265Y-110230735D01*
X112300000Y-128250000D02*
X111250000Y-128250000D01*
X111250000Y-128250000D02*
X111000000Y-128000000D01*
M02*
