G04 #@! TF.GenerationSoftware,KiCad,Pcbnew,9.0.0*
G04 #@! TF.CreationDate,2025-03-14T23:22:53+09:00*
G04 #@! TF.ProjectId,cv-depot,63762d64-6570-46f7-942e-6b696361645f,rev?*
G04 #@! TF.SameCoordinates,Original*
G04 #@! TF.FileFunction,Paste,Bot*
G04 #@! TF.FilePolarity,Positive*
%FSLAX46Y46*%
G04 Gerber Fmt 4.6, Leading zero omitted, Abs format (unit mm)*
G04 Created by KiCad (PCBNEW 9.0.0) date 2025-03-14 23:22:53*
%MOMM*%
%LPD*%
G01*
G04 APERTURE LIST*
G04 Aperture macros list*
%AMRoundRect*
0 Rectangle with rounded corners*
0 $1 Rounding radius*
0 $2 $3 $4 $5 $6 $7 $8 $9 X,Y pos of 4 corners*
0 Add a 4 corners polygon primitive as box body*
4,1,4,$2,$3,$4,$5,$6,$7,$8,$9,$2,$3,0*
0 Add four circle primitives for the rounded corners*
1,1,$1+$1,$2,$3*
1,1,$1+$1,$4,$5*
1,1,$1+$1,$6,$7*
1,1,$1+$1,$8,$9*
0 Add four rect primitives between the rounded corners*
20,1,$1+$1,$2,$3,$4,$5,0*
20,1,$1+$1,$4,$5,$6,$7,0*
20,1,$1+$1,$6,$7,$8,$9,0*
20,1,$1+$1,$8,$9,$2,$3,0*%
G04 Aperture macros list end*
%ADD10RoundRect,0.250000X-0.475000X0.337500X-0.475000X-0.337500X0.475000X-0.337500X0.475000X0.337500X0*%
%ADD11RoundRect,0.250000X-0.450000X0.350000X-0.450000X-0.350000X0.450000X-0.350000X0.450000X0.350000X0*%
%ADD12RoundRect,0.250000X-0.325000X-0.450000X0.325000X-0.450000X0.325000X0.450000X-0.325000X0.450000X0*%
%ADD13R,3.405000X2.006600*%
%ADD14RoundRect,0.250000X0.337500X0.475000X-0.337500X0.475000X-0.337500X-0.475000X0.337500X-0.475000X0*%
%ADD15RoundRect,0.150000X0.587500X0.150000X-0.587500X0.150000X-0.587500X-0.150000X0.587500X-0.150000X0*%
%ADD16O,4.000000X6.500000*%
%ADD17RoundRect,0.250000X0.475000X-0.337500X0.475000X0.337500X-0.475000X0.337500X-0.475000X-0.337500X0*%
%ADD18RoundRect,0.150000X-0.587500X-0.150000X0.587500X-0.150000X0.587500X0.150000X-0.587500X0.150000X0*%
%ADD19RoundRect,0.250000X0.350000X0.450000X-0.350000X0.450000X-0.350000X-0.450000X0.350000X-0.450000X0*%
%ADD20RoundRect,0.250000X0.325000X0.450000X-0.325000X0.450000X-0.325000X-0.450000X0.325000X-0.450000X0*%
%ADD21RoundRect,0.250000X-0.450000X0.325000X-0.450000X-0.325000X0.450000X-0.325000X0.450000X0.325000X0*%
%ADD22RoundRect,0.250000X0.450000X-0.325000X0.450000X0.325000X-0.450000X0.325000X-0.450000X-0.325000X0*%
%ADD23RoundRect,0.250000X0.450000X-0.350000X0.450000X0.350000X-0.450000X0.350000X-0.450000X-0.350000X0*%
%ADD24RoundRect,0.250000X-0.337500X-0.475000X0.337500X-0.475000X0.337500X0.475000X-0.337500X0.475000X0*%
G04 APERTURE END LIST*
D10*
X100750000Y-134175000D03*
X100750000Y-136250000D03*
D11*
X78950000Y-56750000D03*
X78950000Y-58750000D03*
X71450000Y-57000000D03*
X71450000Y-59000000D03*
D12*
X81450000Y-46000000D03*
X83500000Y-46000000D03*
D10*
X80500000Y-129462500D03*
X80500000Y-131537500D03*
D13*
X144000000Y-94000000D03*
X138207400Y-94000000D03*
D14*
X115812500Y-139190000D03*
X113737500Y-139190000D03*
D15*
X74375000Y-48050000D03*
X74375000Y-49950000D03*
X72500000Y-49000000D03*
D16*
X17850000Y-41520000D03*
D17*
X93500000Y-125750000D03*
X93500000Y-123675000D03*
D10*
X136500000Y-136250000D03*
X136500000Y-138325000D03*
D18*
X94125000Y-59925000D03*
X94125000Y-58025000D03*
X96000000Y-58975000D03*
D14*
X91587500Y-108380000D03*
X89512500Y-108380000D03*
D19*
X155750000Y-138500000D03*
X153750000Y-138500000D03*
D18*
X87875000Y-60000000D03*
X87875000Y-58100000D03*
X89750000Y-59050000D03*
D12*
X90000000Y-62250000D03*
X92050000Y-62250000D03*
D20*
X88025000Y-62250000D03*
X85975000Y-62250000D03*
D16*
X53150000Y-41520000D03*
D21*
X64950000Y-53475000D03*
X64950000Y-55525000D03*
D11*
X81700000Y-56750000D03*
X81700000Y-58750000D03*
D18*
X66875000Y-48900000D03*
X66875000Y-47000000D03*
X68750000Y-47950000D03*
D10*
X139500000Y-136175000D03*
X139500000Y-138250000D03*
D21*
X64500000Y-46975000D03*
X64500000Y-49025000D03*
D10*
X89500000Y-103750000D03*
X89500000Y-105825000D03*
D22*
X67200000Y-55525000D03*
X67200000Y-53475000D03*
D16*
X17850000Y-56520000D03*
D22*
X64500000Y-45000000D03*
X64500000Y-42950000D03*
D23*
X132200000Y-67500000D03*
X132200000Y-65500000D03*
D12*
X74725000Y-52000000D03*
X76775000Y-52000000D03*
D17*
X91500000Y-127075000D03*
X91500000Y-125000000D03*
D20*
X76050000Y-41250000D03*
X74000000Y-41250000D03*
D14*
X140250000Y-140300000D03*
X138175000Y-140300000D03*
D18*
X88000000Y-56250000D03*
X88000000Y-54350000D03*
X89875000Y-55300000D03*
D11*
X76450000Y-56750000D03*
X76450000Y-58750000D03*
D19*
X156000000Y-148000000D03*
X154000000Y-148000000D03*
D14*
X136150000Y-140300000D03*
X134075000Y-140300000D03*
X145037500Y-97500000D03*
X142962500Y-97500000D03*
D11*
X81200000Y-63500000D03*
X81200000Y-65500000D03*
D18*
X66875000Y-45200000D03*
X66875000Y-43300000D03*
X68750000Y-44250000D03*
D14*
X87662500Y-108380000D03*
X85587500Y-108380000D03*
D16*
X53150000Y-72500000D03*
D11*
X88450000Y-64250000D03*
X88450000Y-66250000D03*
D22*
X92000000Y-60000000D03*
X92000000Y-57950000D03*
D24*
X137212500Y-97500000D03*
X139287500Y-97500000D03*
D21*
X76500000Y-47975000D03*
X76500000Y-50025000D03*
D11*
X67200000Y-63750000D03*
X67200000Y-65750000D03*
X74700000Y-63750000D03*
X74700000Y-65750000D03*
D10*
X100500000Y-143425000D03*
X100500000Y-145500000D03*
M02*
