M48
; DRILL file {KiCad 9.0.0} date 2025-03-14T23:23:06+0900
; FORMAT={-:-/ absolute / metric / decimal}
; #@! TF.CreationDate,2025-03-14T23:23:06+09:00
; #@! TF.GenerationSoftware,Kicad,Pcbnew,9.0.0
; #@! TF.FileFunction,Plated,1,2,PTH
FMAT,2
METRIC
; #@! TA.AperFunction,Plated,PTH,ViaDrill
T1C0.300
; #@! TA.AperFunction,Plated,PTH,ViaDrill
T2C0.400
; #@! TA.AperFunction,Plated,PTH,ComponentDrill
T3C0.750
; #@! TA.AperFunction,Plated,PTH,ComponentDrill
T4C0.762
; #@! TA.AperFunction,Plated,PTH,ComponentDrill
T5C0.800
; #@! TA.AperFunction,Plated,PTH,ComponentDrill
T6C0.900
; #@! TA.AperFunction,Plated,PTH,ComponentDrill
T7C0.991
; #@! TA.AperFunction,Plated,PTH,ComponentDrill
T8C1.000
; #@! TA.AperFunction,Plated,PTH,ComponentDrill
T9C1.067
; #@! TA.AperFunction,Plated,PTH,ComponentDrill
T10C1.100
; #@! TA.AperFunction,Plated,PTH,ComponentDrill
T11C1.200
; #@! TA.AperFunction,Plated,PTH,ComponentDrill
T12C1.295
; #@! TA.AperFunction,Plated,PTH,ComponentDrill
T13C2.000
%
G90
G05
T1
X65.45Y-72.5
X72.65Y-131.5
X74.75Y-54.0
X77.5Y-150.85
X77.75Y-129.44
X83.0Y-49.75
X83.25Y-110.31
X83.75Y-124.0
X86.0Y-98.025
X86.25Y-107.17
X86.25Y-109.71
X86.25Y-114.0
X89.25Y-123.0
X89.325Y-128.825
X90.75Y-115.25
X90.984Y-113.234
X91.2Y-104.63
X91.2Y-105.9
X91.482Y-61.086
X91.5Y-108.44
X92.15Y-50.5
X92.382Y-61.075
X93.5Y-46.5
X94.25Y-55.25
X94.51Y-122.24
X94.95Y-124.5
X94.95Y-125.77
X96.0Y-59.75
X96.449Y-125.949
X96.45Y-139.0
X97.0Y-130.5
X97.05Y-137.454
X97.5Y-124.775
X98.09Y-115.0
X98.75Y-129.0
X98.875Y-139.5
X99.1Y-104.74
X99.1Y-116.75
X99.451Y-136.701
X99.7Y-129.0
X100.5Y-143.425
X100.5Y-145.5
X100.75Y-123.7
X102.7Y-134.23
X102.7Y-135.5
X104.25Y-135.75
X105.0Y-134.875
X105.5Y-133.0
X106.9Y-135.0
X107.48Y-91.2
X108.1Y-135.6
X109.0Y-125.5
X110.25Y-135.0
X110.5Y-111.0
X110.5Y-139.25
X110.996Y-147.496
X111.0Y-128.0
X112.3Y-132.06
X112.45Y-62.75
X112.634Y-108.1
X113.529Y-121.0
X113.75Y-106.75
X113.769Y-110.231
X114.0Y-128.85
X114.0Y-132.0
X115.5Y-140.75
X115.75Y-133.75
X115.85Y-147.75
X118.75Y-132.75
X118.94Y-139.19
X119.786Y-122.312
X120.114Y-95.264
X120.5Y-125.25
X121.253Y-120.938
X121.4Y-97.8
X121.4Y-112.3
X121.535Y-152.2
X123.779Y-95.971
X123.9Y-90.8
X123.9Y-94.3
X126.4Y-98.55
X126.8Y-84.45
X127.201Y-114.549
X127.4Y-82.3
X128.5Y-113.25
X129.0Y-151.55
X129.15Y-105.55
X129.954Y-84.55
X131.601Y-85.849
X131.75Y-118.25
X131.75Y-122.75
X131.949Y-84.501
X134.0Y-134.0
X134.075Y-140.3
X134.7Y-136.47
X135.0Y-133.25
X135.0Y-135.5
X135.75Y-125.0
X136.5Y-138.325
X136.65Y-84.3
X136.65Y-85.55
X137.25Y-140.25
X137.9Y-85.55
X139.65Y-136.47
X139.65Y-137.74
X140.25Y-140.3
X140.5Y-125.0
X141.65Y-85.55
X141.717Y-138.187
X142.65Y-81.95
X142.65Y-83.95
X143.25Y-134.5
X144.5Y-136.25
X145.268Y-134.232
X145.535Y-132.767
X145.725Y-142.475
X146.65Y-86.75
X147.2Y-116.24
X147.2Y-120.05
X148.0Y-138.25
X148.15Y-86.8
X148.4Y-85.7
X149.5Y-98.0
X150.099Y-85.601
X152.15Y-117.51
X154.23Y-92.05
X155.75Y-136.25
X157.21Y-131.75
X158.0Y-148.75
X164.5Y-138.75
X165.5Y-131.75
T2
X81.5Y-130.75
X84.5Y-108.5
X84.5Y-129.463
X88.62Y-108.38
X90.05Y-114.026
X90.657Y-123.093
X91.723Y-123.027
X115.4Y-131.0
X124.0Y-126.5
X125.5Y-129.0
X130.45Y-149.45
X149.3Y-127.0
X153.7Y-127.0
X154.875Y-150.775
T4
X68.92Y-55.17
X68.92Y-65.33
X71.46Y-55.17
X74.0Y-55.17
X76.54Y-55.17
X76.54Y-65.33
X79.08Y-55.17
X79.08Y-65.33
X81.62Y-55.17
X84.16Y-55.17
X84.16Y-65.33
X86.7Y-65.33
T5
X99.79Y-89.48
X99.79Y-109.8
X102.33Y-89.48
X102.33Y-109.8
X104.87Y-89.48
X104.87Y-109.8
X107.41Y-89.48
X107.41Y-109.8
X109.95Y-89.48
X109.95Y-109.8
X112.49Y-89.48
X112.49Y-109.8
X115.03Y-89.48
X115.03Y-109.8
X117.57Y-89.48
X117.57Y-109.8
X120.11Y-89.48
X120.11Y-109.8
X122.65Y-89.48
X122.65Y-109.8
X125.19Y-89.48
X125.19Y-109.8
X127.73Y-89.48
X127.73Y-109.8
X128.2Y-62.63
X128.2Y-65.17
X128.2Y-67.71
X128.2Y-70.25
X130.27Y-89.48
X130.27Y-109.8
X132.81Y-89.48
X132.81Y-109.8
X135.35Y-89.48
X135.35Y-109.8
X135.82Y-62.63
X135.82Y-65.17
X135.82Y-67.71
X135.82Y-70.25
X137.89Y-89.48
X137.89Y-109.8
X140.43Y-89.48
X140.43Y-109.8
X142.45Y-59.94
X142.45Y-67.56
X142.97Y-89.48
X142.97Y-109.8
X145.51Y-89.48
X145.51Y-109.8
X148.05Y-89.48
X148.05Y-109.8
X150.59Y-89.48
X150.59Y-109.8
X152.0Y-138.5
X152.0Y-141.0
X152.0Y-145.5
X152.0Y-148.0
X153.13Y-89.48
X153.13Y-109.8
X155.67Y-89.48
X155.67Y-109.8
X158.21Y-89.48
X158.21Y-109.8
X160.75Y-89.48
X160.75Y-109.8
X163.29Y-89.48
X163.29Y-109.8
T6
X78.51Y-43.5
X81.05Y-43.5
X83.59Y-43.5
X87.51Y-43.5
X90.05Y-43.5
X92.59Y-43.5
T7
X104.4Y-79.3
X104.4Y-83.8
X110.9Y-79.3
X110.9Y-83.8
T8
X64.01Y-69.0
X64.01Y-71.54
X66.55Y-69.0
X66.55Y-71.54
X69.09Y-69.0
X69.09Y-71.54
X71.63Y-69.0
X71.63Y-71.54
X74.17Y-69.0
X74.17Y-71.54
X76.71Y-69.0
X76.71Y-71.54
X79.07Y-87.631
X79.25Y-69.0
X79.25Y-71.54
X81.61Y-87.631
X81.79Y-69.0
X81.79Y-71.54
X84.15Y-87.631
X84.33Y-69.0
X84.33Y-71.54
X86.87Y-69.0
X86.87Y-71.54
X89.41Y-69.0
X89.41Y-71.54
X91.95Y-69.0
X91.95Y-71.54
X123.62Y-78.76
X123.62Y-81.3
X126.16Y-78.76
X126.16Y-81.3
X128.7Y-78.76
X128.7Y-81.3
X131.24Y-78.76
X131.24Y-81.3
X133.78Y-78.76
X133.78Y-81.3
X136.32Y-78.76
X136.32Y-81.3
X138.86Y-78.76
X138.86Y-81.3
X141.4Y-78.76
X141.4Y-81.3
X143.94Y-78.76
X143.94Y-81.3
X146.48Y-78.76
X146.48Y-81.3
X149.02Y-78.76
X149.02Y-81.3
X151.56Y-78.76
X151.56Y-81.3
X152.45Y-58.17
X152.45Y-60.71
X152.45Y-63.25
X159.36Y-130.14
X159.36Y-132.68
X159.36Y-135.22
X159.36Y-137.76
X159.36Y-140.3
X159.36Y-142.84
X159.36Y-145.38
X161.9Y-130.14
X161.9Y-132.68
X161.9Y-135.22
X161.9Y-137.76
X161.9Y-140.3
X161.9Y-142.84
X161.9Y-145.38
T9
X161.15Y-116.51
X161.15Y-119.05
T10
X63.3Y-51.25
X65.3Y-51.25
X67.3Y-51.25
X69.3Y-51.27
T11
X63.8Y-36.75
X66.3Y-36.75
X68.8Y-36.75
T12
X102.95Y-49.5
X105.45Y-52.0
X107.95Y-39.5
X110.45Y-49.5
X112.95Y-39.5
X115.45Y-52.0
X117.95Y-49.5
X136.45Y-49.5
X138.95Y-52.0
X141.45Y-39.5
X143.95Y-49.5
X146.45Y-39.5
X148.95Y-52.0
X151.45Y-49.5
T3
G00X60.05Y-83.25
M15
G01X60.05Y-82.25
M16
G05
G00X60.05Y-95.55
M15
G01X60.05Y-94.55
M16
G05
G00X60.05Y-107.75
M15
G01X60.05Y-106.75
M16
G05
G00X60.05Y-119.95
M15
G01X60.05Y-118.95
M16
G05
G00X60.05Y-132.15
M15
G01X60.05Y-131.15
M16
G05
G00X60.05Y-144.35
M15
G01X60.05Y-143.35
M16
G05
G00X62.95Y-87.255
M15
G01X63.95Y-87.255
M16
G05
G00X62.95Y-99.555
M15
G01X63.95Y-99.555
M16
G05
G00X62.95Y-111.755
M15
G01X63.95Y-111.755
M16
G05
G00X62.95Y-123.955
M15
G01X63.95Y-123.955
M16
G05
G00X62.95Y-136.155
M15
G01X63.95Y-136.155
M16
G05
G00X62.95Y-148.355
M15
G01X63.95Y-148.355
M16
G05
G00X65.943Y-80.245
M15
G01X66.943Y-80.245
M16
G05
G00X65.943Y-92.545
M15
G01X66.943Y-92.545
M16
G05
G00X65.943Y-104.745
M15
G01X66.943Y-104.745
M16
G05
G00X65.943Y-116.945
M15
G01X66.943Y-116.945
M16
G05
G00X65.943Y-129.145
M15
G01X66.943Y-129.145
M16
G05
G00X65.943Y-141.345
M15
G01X66.943Y-141.345
M16
G05
G00X67.343Y-77.55
M15
G01X68.343Y-77.55
M16
G05
G00X67.343Y-89.85
M15
G01X68.343Y-89.85
M16
G05
G00X67.343Y-102.05
M15
G01X68.343Y-102.05
M16
G05
G00X67.343Y-114.25
M15
G01X68.343Y-114.25
M16
G05
G00X67.343Y-126.45
M15
G01X68.343Y-126.45
M16
G05
G00X67.343Y-138.65
M15
G01X68.343Y-138.65
M16
G05
G00X71.043Y-87.25
M15
G01X71.043Y-86.25
M16
G05
G00X71.043Y-99.55
M15
G01X71.043Y-98.55
M16
G05
G00X71.043Y-111.75
M15
G01X71.043Y-110.75
M16
G05
G00X71.043Y-123.95
M15
G01X71.043Y-122.95
M16
G05
G00X71.043Y-136.15
M15
G01X71.043Y-135.15
M16
G05
G00X71.043Y-148.35
M15
G01X71.043Y-147.35
M16
G05
T13
G00X60.812Y-44.25
M15
G01X60.612Y-44.25
M16
G05
G00X71.988Y-44.25
M15
G01X71.788Y-44.25
M16
G05
M30
