M48
; DRILL file {KiCad 9.0.0} date 2025-03-14T23:23:06+0900
; FORMAT={-:-/ absolute / metric / decimal}
; #@! TF.CreationDate,2025-03-14T23:23:06+09:00
; #@! TF.GenerationSoftware,Kicad,Pcbnew,9.0.0
; #@! TF.FileFunction,NonPlated,1,2,NPTH
FMAT,2
METRIC
; #@! TA.AperFunction,NonPlated,NPTH,ComponentDrill
T1C0.500
; #@! TA.AperFunction,NonPlated,NPTH,ComponentDrill
T2C2.300
; #@! TA.AperFunction,NonPlated,NPTH,ComponentDrill
T3C2.388
; #@! TA.AperFunction,NonPlated,NPTH,ComponentDrill
T4C3.200
%
G90
G05
T1
X55.9Y-49.388
X55.9Y-50.138
X55.9Y-50.888
X55.9Y-111.158
X55.9Y-111.908
X55.9Y-112.658
X57.4Y-49.388
X57.4Y-50.138
X57.4Y-50.888
X57.4Y-111.158
X57.4Y-111.908
X57.4Y-112.658
X77.25Y-74.25
X77.25Y-75.75
X78.0Y-74.25
X78.0Y-75.75
X78.75Y-74.25
X78.75Y-75.75
X98.2Y-55.75
X98.2Y-56.5
X98.2Y-57.25
X99.7Y-55.75
X99.7Y-56.5
X99.7Y-57.25
X127.0Y-74.25
X127.0Y-75.75
X127.75Y-74.25
X127.75Y-75.75
X128.5Y-74.25
X128.5Y-75.75
T2
X39.344Y-96.0
X39.344Y-129.5
X39.362Y-78.815
X39.362Y-112.315
X52.75Y-87.381
X52.75Y-120.881
T3
X102.95Y-44.5
X117.95Y-44.5
X136.45Y-44.5
X151.45Y-44.5
T4
X90.65Y-89.881
X90.65Y-135.631
X104.45Y-69.75
X150.2Y-69.75
M30
