%TF.GenerationSoftware,KiCad,Pcbnew,9.0.0*%
%TF.CreationDate,2025-03-14T23:23:06+09:00*%
%TF.ProjectId,cv-depot,63762d64-6570-46f7-942e-6b696361645f,rev?*%
%TF.SameCoordinates,Original*%
%TF.FileFunction,Drillmap*%
%TF.FilePolarity,Positive*%
%FSLAX45Y45*%
G04 Gerber Fmt 4.5, Leading zero omitted, Abs format (unit mm)*
G04 Created by KiCad (PCBNEW 9.0.0) date 2025-03-14 23:23:06*
%MOMM*%
%LPD*%
G01*
G04 APERTURE LIST*
%ADD10C,0.050000*%
%ADD11C,0.200000*%
%ADD12C,0.100000*%
%ADD13C,0.230000*%
%ADD14C,0.238760*%
%ADD15C,0.320000*%
G04 APERTURE END LIST*
D10*
X4675000Y-15160000D02*
G75*
G02*
X4675000Y-14840000I0J160000D01*
G01*
X2425000Y-2590000D02*
G75*
G02*
X2425000Y-2910000I0J-160000D01*
G01*
X9655000Y-4900000D02*
G75*
G02*
X9435000Y-4900000I-110000J0D01*
G01*
X9435000Y-4900000D02*
G75*
G02*
X9655000Y-4900000I110000J0D01*
G01*
X9795000Y-3950000D02*
X7645000Y-3950000D01*
X4675000Y-15160000D02*
X4955000Y-15160000D01*
X5565000Y-11391000D02*
G75*
G02*
X5765000Y-11391000I100000J0D01*
G01*
X9995000Y-5449995D02*
G75*
G02*
X9795000Y-5449995I-100000J0D01*
G01*
X2145000Y-15160000D02*
G75*
G02*
X2145000Y-14840000I0J160000D01*
G01*
X8000000Y-7600000D02*
G75*
G02*
X8000000Y-7400000I0J100000D01*
G01*
X5565000Y-5214000D02*
G75*
G02*
X5765019Y-5214000I100010J0D01*
G01*
X5765000Y-15300000D02*
X16765000Y-15300000D01*
X9995000Y-5449995D02*
X9995000Y-3675000D01*
X5765000Y-15300000D02*
X5765000Y-11391000D01*
X5765000Y-7400000D02*
X7600000Y-7400000D01*
X2145000Y-2910000D02*
G75*
G02*
X2145000Y-2590000I0J160000D01*
G01*
X5765000Y-10991000D02*
X5765000Y-7600000D01*
X1535000Y-2450000D02*
X5565000Y-2450000D01*
X4675000Y-2910000D02*
G75*
G02*
X4675000Y-2590000I0J160000D01*
G01*
X15445000Y-7400000D02*
X12975000Y-7400000D01*
X9795000Y-7400000D02*
X8000000Y-7400000D01*
X2145000Y-2910000D02*
X2425000Y-2910000D01*
X4675000Y-2910000D02*
X4955000Y-2910000D01*
X5765000Y-3025000D02*
X5765000Y-4813500D01*
X6130000Y-3300000D02*
G75*
G02*
X5910000Y-3300000I-110000J0D01*
G01*
X5910000Y-3300000D02*
G75*
G02*
X6130000Y-3300000I110000J0D01*
G01*
X7345000Y-3025000D02*
X5765000Y-3025000D01*
X5765000Y-4813500D02*
G75*
G02*
X5565000Y-4813500I-100000J0D01*
G01*
X8000000Y-7600000D02*
X12575000Y-7600000D01*
X7600000Y-7400000D02*
G75*
G02*
X7600000Y-7600000I0J-100000D01*
G01*
X5765000Y-10991000D02*
G75*
G02*
X5565000Y-10991000I-100000J0D01*
G01*
X5765000Y-7600000D02*
X7600000Y-7600000D01*
X2145000Y-15160000D02*
X2425000Y-15160000D01*
X15445000Y-7400000D02*
X15445000Y-3675000D01*
X9795000Y-5850000D02*
G75*
G02*
X9995000Y-5850000I100000J0D01*
G01*
X15445000Y-3675000D02*
X9995000Y-3675000D01*
X4955000Y-2590000D02*
G75*
G02*
X4955000Y-2910000I0J-160000D01*
G01*
X7645000Y-3950000D02*
X7345000Y-3025000D01*
X16765000Y-7600000D02*
X12975000Y-7600000D01*
X12575000Y-7400000D02*
G75*
G02*
X12575000Y-7600000I0J-100000D01*
G01*
X2145000Y-14840000D02*
X2425000Y-14840000D01*
X9795000Y-7400000D02*
X9795000Y-5850000D01*
X2145000Y-2590000D02*
X2425000Y-2590000D01*
X1535000Y-15300000D02*
X1535000Y-2450000D01*
X12975000Y-7600000D02*
G75*
G02*
X12975000Y-7400000I0J100000D01*
G01*
X6130000Y-6400000D02*
G75*
G02*
X5910000Y-6400000I-110000J0D01*
G01*
X5910000Y-6400000D02*
G75*
G02*
X6130000Y-6400000I110000J0D01*
G01*
X5765019Y-5214000D02*
X5765000Y-7400000D01*
X4675000Y-14840000D02*
X4955000Y-14840000D01*
X9655000Y-6400000D02*
G75*
G02*
X9435000Y-6400000I-110000J0D01*
G01*
X9435000Y-6400000D02*
G75*
G02*
X9655000Y-6400000I110000J0D01*
G01*
X9995000Y-7400000D02*
X9995000Y-5850000D01*
X4675000Y-2590000D02*
X4955000Y-2590000D01*
X16765000Y-15300000D02*
X16765000Y-7600000D01*
X5565000Y-2450000D02*
X5565000Y-4813500D01*
X2425000Y-14840000D02*
G75*
G02*
X2425000Y-15160000I0J-160000D01*
G01*
X4955000Y-14840000D02*
G75*
G02*
X4955000Y-15160000I0J-160000D01*
G01*
X9995000Y-7400000D02*
X12575000Y-7400000D01*
X5565000Y-15300000D02*
X1535000Y-15300000D01*
X5565000Y-15300000D02*
X5565000Y-11391000D01*
X5565000Y-10991000D02*
X5565000Y-5214000D01*
X9795000Y-3950000D02*
X9795000Y-5449995D01*
X2745237Y-13510000D02*
G75*
G02*
X2125237Y-13510000I-310000J0D01*
G01*
X2125237Y-13510000D02*
G75*
G02*
X2745237Y-13510000I310000J0D01*
G01*
X5035200Y-8738050D02*
G75*
G02*
X3635200Y-8738050I-700000J0D01*
G01*
X3635200Y-8738050D02*
G75*
G02*
X5035200Y-8738050I700000J0D01*
G01*
X2038000Y-5175000D02*
X5060000Y-5175000D01*
X5060000Y-3875000D01*
X2038000Y-3875000D01*
X2038000Y-5175000D01*
X2745237Y-11070000D02*
G75*
G02*
X2125237Y-11070000I-310000J0D01*
G01*
X2125237Y-11070000D02*
G75*
G02*
X2745237Y-11070000I310000J0D01*
G01*
X2745237Y-8630000D02*
G75*
G02*
X2125237Y-8630000I-310000J0D01*
G01*
X2125237Y-8630000D02*
G75*
G02*
X2745237Y-8630000I310000J0D01*
G01*
X2745237Y-7400000D02*
G75*
G02*
X2125237Y-7400000I-310000J0D01*
G01*
X2125237Y-7400000D02*
G75*
G02*
X2745237Y-7400000I310000J0D01*
G01*
X2745237Y-12290000D02*
G75*
G02*
X2125237Y-12290000I-310000J0D01*
G01*
X2125237Y-12290000D02*
G75*
G02*
X2745237Y-12290000I310000J0D01*
G01*
X5050000Y-6125000D02*
G75*
G02*
X4350000Y-6125000I-350000J0D01*
G01*
X4350000Y-6125000D02*
G75*
G02*
X5050000Y-6125000I350000J0D01*
G01*
X2745237Y-9850000D02*
G75*
G02*
X2125237Y-9850000I-310000J0D01*
G01*
X2125237Y-9850000D02*
G75*
G02*
X2745237Y-9850000I310000J0D01*
G01*
X5035200Y-12088050D02*
G75*
G02*
X3635200Y-12088050I-700000J0D01*
G01*
X3635200Y-12088050D02*
G75*
G02*
X5035200Y-12088050I700000J0D01*
G01*
D11*
D12*
X5565000Y-4913820D02*
X5615000Y-4963820D01*
X5615000Y-4913820D02*
X5565000Y-4963820D01*
X5565000Y-4988820D02*
X5615000Y-5038820D01*
X5615000Y-4988820D02*
X5565000Y-5038820D01*
X5565000Y-5063820D02*
X5615000Y-5113820D01*
X5615000Y-5063820D02*
X5565000Y-5113820D01*
X5565000Y-11090831D02*
X5615000Y-11140831D01*
X5615000Y-11090831D02*
X5565000Y-11140831D01*
X5565000Y-11165831D02*
X5615000Y-11215830D01*
X5615000Y-11165831D02*
X5565000Y-11215830D01*
X5565000Y-11240830D02*
X5615000Y-11290830D01*
X5615000Y-11240830D02*
X5565000Y-11290830D01*
X5715000Y-4913820D02*
X5765000Y-4963820D01*
X5765000Y-4913820D02*
X5715000Y-4963820D01*
X5715000Y-4988820D02*
X5765000Y-5038820D01*
X5765000Y-4988820D02*
X5715000Y-5038820D01*
X5715000Y-5063820D02*
X5765000Y-5113820D01*
X5765000Y-5063820D02*
X5715000Y-5113820D01*
X5715000Y-11090831D02*
X5765000Y-11140831D01*
X5765000Y-11090831D02*
X5715000Y-11140831D01*
X5715000Y-11165831D02*
X5765000Y-11215830D01*
X5765000Y-11165831D02*
X5715000Y-11215830D01*
X5715000Y-11240830D02*
X5765000Y-11290830D01*
X5765000Y-11240830D02*
X5715000Y-11290830D01*
X7700000Y-7400000D02*
X7750000Y-7450000D01*
X7750000Y-7400000D02*
X7700000Y-7450000D01*
X7700000Y-7550000D02*
X7750000Y-7600000D01*
X7750000Y-7550000D02*
X7700000Y-7600000D01*
X7775000Y-7400000D02*
X7825000Y-7450000D01*
X7825000Y-7400000D02*
X7775000Y-7450000D01*
X7775000Y-7550000D02*
X7825000Y-7600000D01*
X7825000Y-7550000D02*
X7775000Y-7600000D01*
X7850000Y-7400000D02*
X7900000Y-7450000D01*
X7900000Y-7400000D02*
X7850000Y-7450000D01*
X7850000Y-7550000D02*
X7900000Y-7600000D01*
X7900000Y-7550000D02*
X7850000Y-7600000D01*
X9795000Y-5550000D02*
X9845000Y-5600000D01*
X9845000Y-5550000D02*
X9795000Y-5600000D01*
X9795000Y-5625000D02*
X9845000Y-5675000D01*
X9845000Y-5625000D02*
X9795000Y-5675000D01*
X9795000Y-5700000D02*
X9845000Y-5750000D01*
X9845000Y-5700000D02*
X9795000Y-5750000D01*
X9945000Y-5550000D02*
X9995000Y-5600000D01*
X9995000Y-5550000D02*
X9945000Y-5600000D01*
X9945000Y-5625000D02*
X9995000Y-5675000D01*
X9995000Y-5625000D02*
X9945000Y-5675000D01*
X9945000Y-5700000D02*
X9995000Y-5750000D01*
X9995000Y-5700000D02*
X9945000Y-5750000D01*
X12675000Y-7400000D02*
X12725000Y-7450000D01*
X12725000Y-7400000D02*
X12675000Y-7450000D01*
X12675000Y-7550000D02*
X12725000Y-7600000D01*
X12725000Y-7550000D02*
X12675000Y-7600000D01*
X12750000Y-7400000D02*
X12800000Y-7450000D01*
X12800000Y-7400000D02*
X12750000Y-7450000D01*
X12750000Y-7550000D02*
X12800000Y-7600000D01*
X12800000Y-7550000D02*
X12750000Y-7600000D01*
X12825000Y-7400000D02*
X12875000Y-7450000D01*
X12875000Y-7400000D02*
X12825000Y-7450000D01*
X12825000Y-7550000D02*
X12875000Y-7600000D01*
X12875000Y-7550000D02*
X12825000Y-7600000D01*
D13*
X4049363Y-9600000D02*
G75*
G02*
X3819363Y-9600000I-115000J0D01*
G01*
X3819363Y-9600000D02*
G75*
G02*
X4049363Y-9600000I115000J0D01*
G01*
X4049363Y-12950000D02*
G75*
G02*
X3819363Y-12950000I-115000J0D01*
G01*
X3819363Y-12950000D02*
G75*
G02*
X4049363Y-12950000I115000J0D01*
G01*
X4051163Y-7881465D02*
G75*
G02*
X3821163Y-7881465I-115000J0D01*
G01*
X3821163Y-7881465D02*
G75*
G02*
X4051163Y-7881465I115000J0D01*
G01*
X4051163Y-11231465D02*
G75*
G02*
X3821163Y-11231465I-115000J0D01*
G01*
X3821163Y-11231465D02*
G75*
G02*
X4051163Y-11231465I115000J0D01*
G01*
X5390000Y-8738050D02*
G75*
G02*
X5160000Y-8738050I-115000J0D01*
G01*
X5160000Y-8738050D02*
G75*
G02*
X5390000Y-8738050I115000J0D01*
G01*
X5390000Y-12088050D02*
G75*
G02*
X5160000Y-12088050I-115000J0D01*
G01*
X5160000Y-12088050D02*
G75*
G02*
X5390000Y-12088050I115000J0D01*
G01*
D14*
X10295000Y-4330620D02*
X10295000Y-4569380D01*
X10175620Y-4450000D02*
X10414380Y-4450000D01*
X11795000Y-4330620D02*
X11795000Y-4569380D01*
X11675620Y-4450000D02*
X11914380Y-4450000D01*
X13645000Y-4330620D02*
X13645000Y-4569380D01*
X13525620Y-4450000D02*
X13764380Y-4450000D01*
X15145000Y-4330620D02*
X15145000Y-4569380D01*
X15025620Y-4450000D02*
X15264380Y-4450000D01*
D15*
X9178138Y-9101188D02*
X9178138Y-8874912D01*
X8951862Y-8874912D01*
X8951862Y-9101188D01*
X9178138Y-9101188D01*
X9178138Y-13676188D02*
X9178138Y-13449912D01*
X8951862Y-13449912D01*
X8951862Y-13676188D01*
X9178138Y-13676188D01*
X10558138Y-7088138D02*
X10558138Y-6861862D01*
X10331862Y-6861862D01*
X10331862Y-7088138D01*
X10558138Y-7088138D01*
X15133138Y-7088138D02*
X15133138Y-6861862D01*
X14906862Y-6861862D01*
X14906862Y-7088138D01*
X15133138Y-7088138D01*
D11*
X1793277Y-15613984D02*
X1793277Y-15413984D01*
X1793277Y-15413984D02*
X1840896Y-15413984D01*
X1840896Y-15413984D02*
X1869467Y-15423508D01*
X1869467Y-15423508D02*
X1888515Y-15442555D01*
X1888515Y-15442555D02*
X1898039Y-15461603D01*
X1898039Y-15461603D02*
X1907562Y-15499698D01*
X1907562Y-15499698D02*
X1907562Y-15528269D01*
X1907562Y-15528269D02*
X1898039Y-15566365D01*
X1898039Y-15566365D02*
X1888515Y-15585412D01*
X1888515Y-15585412D02*
X1869467Y-15604460D01*
X1869467Y-15604460D02*
X1840896Y-15613984D01*
X1840896Y-15613984D02*
X1793277Y-15613984D01*
X1993277Y-15613984D02*
X1993277Y-15480650D01*
X1993277Y-15518746D02*
X2002801Y-15499698D01*
X2002801Y-15499698D02*
X2012324Y-15490174D01*
X2012324Y-15490174D02*
X2031372Y-15480650D01*
X2031372Y-15480650D02*
X2050420Y-15480650D01*
X2117086Y-15613984D02*
X2117086Y-15480650D01*
X2117086Y-15413984D02*
X2107563Y-15423508D01*
X2107563Y-15423508D02*
X2117086Y-15433031D01*
X2117086Y-15433031D02*
X2126610Y-15423508D01*
X2126610Y-15423508D02*
X2117086Y-15413984D01*
X2117086Y-15413984D02*
X2117086Y-15433031D01*
X2240896Y-15613984D02*
X2221848Y-15604460D01*
X2221848Y-15604460D02*
X2212324Y-15585412D01*
X2212324Y-15585412D02*
X2212324Y-15413984D01*
X2345658Y-15613984D02*
X2326610Y-15604460D01*
X2326610Y-15604460D02*
X2317086Y-15585412D01*
X2317086Y-15585412D02*
X2317086Y-15413984D01*
X2574229Y-15613984D02*
X2574229Y-15413984D01*
X2574229Y-15413984D02*
X2640896Y-15556841D01*
X2640896Y-15556841D02*
X2707563Y-15413984D01*
X2707563Y-15413984D02*
X2707563Y-15613984D01*
X2888515Y-15613984D02*
X2888515Y-15509222D01*
X2888515Y-15509222D02*
X2878991Y-15490174D01*
X2878991Y-15490174D02*
X2859943Y-15480650D01*
X2859943Y-15480650D02*
X2821848Y-15480650D01*
X2821848Y-15480650D02*
X2802801Y-15490174D01*
X2888515Y-15604460D02*
X2869467Y-15613984D01*
X2869467Y-15613984D02*
X2821848Y-15613984D01*
X2821848Y-15613984D02*
X2802801Y-15604460D01*
X2802801Y-15604460D02*
X2793277Y-15585412D01*
X2793277Y-15585412D02*
X2793277Y-15566365D01*
X2793277Y-15566365D02*
X2802801Y-15547317D01*
X2802801Y-15547317D02*
X2821848Y-15537793D01*
X2821848Y-15537793D02*
X2869467Y-15537793D01*
X2869467Y-15537793D02*
X2888515Y-15528269D01*
X2983753Y-15480650D02*
X2983753Y-15680650D01*
X2983753Y-15490174D02*
X3002801Y-15480650D01*
X3002801Y-15480650D02*
X3040896Y-15480650D01*
X3040896Y-15480650D02*
X3059943Y-15490174D01*
X3059943Y-15490174D02*
X3069467Y-15499698D01*
X3069467Y-15499698D02*
X3078991Y-15518746D01*
X3078991Y-15518746D02*
X3078991Y-15575888D01*
X3078991Y-15575888D02*
X3069467Y-15594936D01*
X3069467Y-15594936D02*
X3059943Y-15604460D01*
X3059943Y-15604460D02*
X3040896Y-15613984D01*
X3040896Y-15613984D02*
X3002801Y-15613984D01*
X3002801Y-15613984D02*
X2983753Y-15604460D01*
X3164705Y-15594936D02*
X3174229Y-15604460D01*
X3174229Y-15604460D02*
X3164705Y-15613984D01*
X3164705Y-15613984D02*
X3155182Y-15604460D01*
X3155182Y-15604460D02*
X3164705Y-15594936D01*
X3164705Y-15594936D02*
X3164705Y-15613984D01*
X3164705Y-15490174D02*
X3174229Y-15499698D01*
X3174229Y-15499698D02*
X3164705Y-15509222D01*
X3164705Y-15509222D02*
X3155182Y-15499698D01*
X3155182Y-15499698D02*
X3164705Y-15490174D01*
X3164705Y-15490174D02*
X3164705Y-15509222D01*
D12*
X1482500Y-15917500D02*
X1532500Y-15967500D01*
X1532500Y-15917500D02*
X1482500Y-15967500D01*
D11*
X1831372Y-15833984D02*
X1850420Y-15833984D01*
X1850420Y-15833984D02*
X1869467Y-15843508D01*
X1869467Y-15843508D02*
X1878991Y-15853031D01*
X1878991Y-15853031D02*
X1888515Y-15872079D01*
X1888515Y-15872079D02*
X1898039Y-15910174D01*
X1898039Y-15910174D02*
X1898039Y-15957793D01*
X1898039Y-15957793D02*
X1888515Y-15995888D01*
X1888515Y-15995888D02*
X1878991Y-16014936D01*
X1878991Y-16014936D02*
X1869467Y-16024460D01*
X1869467Y-16024460D02*
X1850420Y-16033984D01*
X1850420Y-16033984D02*
X1831372Y-16033984D01*
X1831372Y-16033984D02*
X1812324Y-16024460D01*
X1812324Y-16024460D02*
X1802801Y-16014936D01*
X1802801Y-16014936D02*
X1793277Y-15995888D01*
X1793277Y-15995888D02*
X1783753Y-15957793D01*
X1783753Y-15957793D02*
X1783753Y-15910174D01*
X1783753Y-15910174D02*
X1793277Y-15872079D01*
X1793277Y-15872079D02*
X1802801Y-15853031D01*
X1802801Y-15853031D02*
X1812324Y-15843508D01*
X1812324Y-15843508D02*
X1831372Y-15833984D01*
X1983753Y-16014936D02*
X1993277Y-16024460D01*
X1993277Y-16024460D02*
X1983753Y-16033984D01*
X1983753Y-16033984D02*
X1974229Y-16024460D01*
X1974229Y-16024460D02*
X1983753Y-16014936D01*
X1983753Y-16014936D02*
X1983753Y-16033984D01*
X2174229Y-15833984D02*
X2078991Y-15833984D01*
X2078991Y-15833984D02*
X2069467Y-15929222D01*
X2069467Y-15929222D02*
X2078991Y-15919698D01*
X2078991Y-15919698D02*
X2098039Y-15910174D01*
X2098039Y-15910174D02*
X2145658Y-15910174D01*
X2145658Y-15910174D02*
X2164705Y-15919698D01*
X2164705Y-15919698D02*
X2174229Y-15929222D01*
X2174229Y-15929222D02*
X2183753Y-15948269D01*
X2183753Y-15948269D02*
X2183753Y-15995888D01*
X2183753Y-15995888D02*
X2174229Y-16014936D01*
X2174229Y-16014936D02*
X2164705Y-16024460D01*
X2164705Y-16024460D02*
X2145658Y-16033984D01*
X2145658Y-16033984D02*
X2098039Y-16033984D01*
X2098039Y-16033984D02*
X2078991Y-16024460D01*
X2078991Y-16024460D02*
X2069467Y-16014936D01*
X2307563Y-15833984D02*
X2326610Y-15833984D01*
X2326610Y-15833984D02*
X2345658Y-15843508D01*
X2345658Y-15843508D02*
X2355182Y-15853031D01*
X2355182Y-15853031D02*
X2364705Y-15872079D01*
X2364705Y-15872079D02*
X2374229Y-15910174D01*
X2374229Y-15910174D02*
X2374229Y-15957793D01*
X2374229Y-15957793D02*
X2364705Y-15995888D01*
X2364705Y-15995888D02*
X2355182Y-16014936D01*
X2355182Y-16014936D02*
X2345658Y-16024460D01*
X2345658Y-16024460D02*
X2326610Y-16033984D01*
X2326610Y-16033984D02*
X2307563Y-16033984D01*
X2307563Y-16033984D02*
X2288515Y-16024460D01*
X2288515Y-16024460D02*
X2278991Y-16014936D01*
X2278991Y-16014936D02*
X2269467Y-15995888D01*
X2269467Y-15995888D02*
X2259944Y-15957793D01*
X2259944Y-15957793D02*
X2259944Y-15910174D01*
X2259944Y-15910174D02*
X2269467Y-15872079D01*
X2269467Y-15872079D02*
X2278991Y-15853031D01*
X2278991Y-15853031D02*
X2288515Y-15843508D01*
X2288515Y-15843508D02*
X2307563Y-15833984D01*
X2498039Y-15833984D02*
X2517086Y-15833984D01*
X2517086Y-15833984D02*
X2536134Y-15843508D01*
X2536134Y-15843508D02*
X2545658Y-15853031D01*
X2545658Y-15853031D02*
X2555182Y-15872079D01*
X2555182Y-15872079D02*
X2564705Y-15910174D01*
X2564705Y-15910174D02*
X2564705Y-15957793D01*
X2564705Y-15957793D02*
X2555182Y-15995888D01*
X2555182Y-15995888D02*
X2545658Y-16014936D01*
X2545658Y-16014936D02*
X2536134Y-16024460D01*
X2536134Y-16024460D02*
X2517086Y-16033984D01*
X2517086Y-16033984D02*
X2498039Y-16033984D01*
X2498039Y-16033984D02*
X2478991Y-16024460D01*
X2478991Y-16024460D02*
X2469467Y-16014936D01*
X2469467Y-16014936D02*
X2459944Y-15995888D01*
X2459944Y-15995888D02*
X2450420Y-15957793D01*
X2450420Y-15957793D02*
X2450420Y-15910174D01*
X2450420Y-15910174D02*
X2459944Y-15872079D01*
X2459944Y-15872079D02*
X2469467Y-15853031D01*
X2469467Y-15853031D02*
X2478991Y-15843508D01*
X2478991Y-15843508D02*
X2498039Y-15833984D01*
X2650420Y-16033984D02*
X2650420Y-15900650D01*
X2650420Y-15919698D02*
X2659944Y-15910174D01*
X2659944Y-15910174D02*
X2678991Y-15900650D01*
X2678991Y-15900650D02*
X2707563Y-15900650D01*
X2707563Y-15900650D02*
X2726610Y-15910174D01*
X2726610Y-15910174D02*
X2736134Y-15929222D01*
X2736134Y-15929222D02*
X2736134Y-16033984D01*
X2736134Y-15929222D02*
X2745658Y-15910174D01*
X2745658Y-15910174D02*
X2764705Y-15900650D01*
X2764705Y-15900650D02*
X2793277Y-15900650D01*
X2793277Y-15900650D02*
X2812324Y-15910174D01*
X2812324Y-15910174D02*
X2821848Y-15929222D01*
X2821848Y-15929222D02*
X2821848Y-16033984D01*
X2917086Y-16033984D02*
X2917086Y-15900650D01*
X2917086Y-15919698D02*
X2926610Y-15910174D01*
X2926610Y-15910174D02*
X2945658Y-15900650D01*
X2945658Y-15900650D02*
X2974229Y-15900650D01*
X2974229Y-15900650D02*
X2993277Y-15910174D01*
X2993277Y-15910174D02*
X3002801Y-15929222D01*
X3002801Y-15929222D02*
X3002801Y-16033984D01*
X3002801Y-15929222D02*
X3012324Y-15910174D01*
X3012324Y-15910174D02*
X3031372Y-15900650D01*
X3031372Y-15900650D02*
X3059943Y-15900650D01*
X3059943Y-15900650D02*
X3078991Y-15910174D01*
X3078991Y-15910174D02*
X3088515Y-15929222D01*
X3088515Y-15929222D02*
X3088515Y-16033984D01*
X3478991Y-15824460D02*
X3307563Y-16081603D01*
X3736134Y-15833984D02*
X3755182Y-15833984D01*
X3755182Y-15833984D02*
X3774229Y-15843508D01*
X3774229Y-15843508D02*
X3783753Y-15853031D01*
X3783753Y-15853031D02*
X3793277Y-15872079D01*
X3793277Y-15872079D02*
X3802801Y-15910174D01*
X3802801Y-15910174D02*
X3802801Y-15957793D01*
X3802801Y-15957793D02*
X3793277Y-15995888D01*
X3793277Y-15995888D02*
X3783753Y-16014936D01*
X3783753Y-16014936D02*
X3774229Y-16024460D01*
X3774229Y-16024460D02*
X3755182Y-16033984D01*
X3755182Y-16033984D02*
X3736134Y-16033984D01*
X3736134Y-16033984D02*
X3717086Y-16024460D01*
X3717086Y-16024460D02*
X3707563Y-16014936D01*
X3707563Y-16014936D02*
X3698039Y-15995888D01*
X3698039Y-15995888D02*
X3688515Y-15957793D01*
X3688515Y-15957793D02*
X3688515Y-15910174D01*
X3688515Y-15910174D02*
X3698039Y-15872079D01*
X3698039Y-15872079D02*
X3707563Y-15853031D01*
X3707563Y-15853031D02*
X3717086Y-15843508D01*
X3717086Y-15843508D02*
X3736134Y-15833984D01*
X3888515Y-16014936D02*
X3898039Y-16024460D01*
X3898039Y-16024460D02*
X3888515Y-16033984D01*
X3888515Y-16033984D02*
X3878991Y-16024460D01*
X3878991Y-16024460D02*
X3888515Y-16014936D01*
X3888515Y-16014936D02*
X3888515Y-16033984D01*
X4021848Y-15833984D02*
X4040896Y-15833984D01*
X4040896Y-15833984D02*
X4059944Y-15843508D01*
X4059944Y-15843508D02*
X4069467Y-15853031D01*
X4069467Y-15853031D02*
X4078991Y-15872079D01*
X4078991Y-15872079D02*
X4088515Y-15910174D01*
X4088515Y-15910174D02*
X4088515Y-15957793D01*
X4088515Y-15957793D02*
X4078991Y-15995888D01*
X4078991Y-15995888D02*
X4069467Y-16014936D01*
X4069467Y-16014936D02*
X4059944Y-16024460D01*
X4059944Y-16024460D02*
X4040896Y-16033984D01*
X4040896Y-16033984D02*
X4021848Y-16033984D01*
X4021848Y-16033984D02*
X4002801Y-16024460D01*
X4002801Y-16024460D02*
X3993277Y-16014936D01*
X3993277Y-16014936D02*
X3983753Y-15995888D01*
X3983753Y-15995888D02*
X3974229Y-15957793D01*
X3974229Y-15957793D02*
X3974229Y-15910174D01*
X3974229Y-15910174D02*
X3983753Y-15872079D01*
X3983753Y-15872079D02*
X3993277Y-15853031D01*
X3993277Y-15853031D02*
X4002801Y-15843508D01*
X4002801Y-15843508D02*
X4021848Y-15833984D01*
X4278991Y-16033984D02*
X4164706Y-16033984D01*
X4221848Y-16033984D02*
X4221848Y-15833984D01*
X4221848Y-15833984D02*
X4202801Y-15862555D01*
X4202801Y-15862555D02*
X4183753Y-15881603D01*
X4183753Y-15881603D02*
X4164706Y-15891127D01*
X4374229Y-16033984D02*
X4412325Y-16033984D01*
X4412325Y-16033984D02*
X4431372Y-16024460D01*
X4431372Y-16024460D02*
X4440896Y-16014936D01*
X4440896Y-16014936D02*
X4459944Y-15986365D01*
X4459944Y-15986365D02*
X4469468Y-15948269D01*
X4469468Y-15948269D02*
X4469468Y-15872079D01*
X4469468Y-15872079D02*
X4459944Y-15853031D01*
X4459944Y-15853031D02*
X4450420Y-15843508D01*
X4450420Y-15843508D02*
X4431372Y-15833984D01*
X4431372Y-15833984D02*
X4393277Y-15833984D01*
X4393277Y-15833984D02*
X4374229Y-15843508D01*
X4374229Y-15843508D02*
X4364706Y-15853031D01*
X4364706Y-15853031D02*
X4355182Y-15872079D01*
X4355182Y-15872079D02*
X4355182Y-15919698D01*
X4355182Y-15919698D02*
X4364706Y-15938746D01*
X4364706Y-15938746D02*
X4374229Y-15948269D01*
X4374229Y-15948269D02*
X4393277Y-15957793D01*
X4393277Y-15957793D02*
X4431372Y-15957793D01*
X4431372Y-15957793D02*
X4450420Y-15948269D01*
X4450420Y-15948269D02*
X4459944Y-15938746D01*
X4459944Y-15938746D02*
X4469468Y-15919698D01*
X4536134Y-15833984D02*
X4669468Y-15833984D01*
X4669468Y-15833984D02*
X4583753Y-16033984D01*
X4736134Y-15833984D02*
X4736134Y-15872079D01*
X4812325Y-15833984D02*
X4812325Y-15872079D01*
X5107563Y-16110174D02*
X5098039Y-16100650D01*
X5098039Y-16100650D02*
X5078991Y-16072079D01*
X5078991Y-16072079D02*
X5069468Y-16053031D01*
X5069468Y-16053031D02*
X5059944Y-16024460D01*
X5059944Y-16024460D02*
X5050420Y-15976841D01*
X5050420Y-15976841D02*
X5050420Y-15938746D01*
X5050420Y-15938746D02*
X5059944Y-15891127D01*
X5059944Y-15891127D02*
X5069468Y-15862555D01*
X5069468Y-15862555D02*
X5078991Y-15843508D01*
X5078991Y-15843508D02*
X5098039Y-15814936D01*
X5098039Y-15814936D02*
X5107563Y-15805412D01*
X5164706Y-15833984D02*
X5288515Y-15833984D01*
X5288515Y-15833984D02*
X5221849Y-15910174D01*
X5221849Y-15910174D02*
X5250420Y-15910174D01*
X5250420Y-15910174D02*
X5269468Y-15919698D01*
X5269468Y-15919698D02*
X5278991Y-15929222D01*
X5278991Y-15929222D02*
X5288515Y-15948269D01*
X5288515Y-15948269D02*
X5288515Y-15995888D01*
X5288515Y-15995888D02*
X5278991Y-16014936D01*
X5278991Y-16014936D02*
X5269468Y-16024460D01*
X5269468Y-16024460D02*
X5250420Y-16033984D01*
X5250420Y-16033984D02*
X5193277Y-16033984D01*
X5193277Y-16033984D02*
X5174230Y-16024460D01*
X5174230Y-16024460D02*
X5164706Y-16014936D01*
X5412325Y-15833984D02*
X5431372Y-15833984D01*
X5431372Y-15833984D02*
X5450420Y-15843508D01*
X5450420Y-15843508D02*
X5459944Y-15853031D01*
X5459944Y-15853031D02*
X5469468Y-15872079D01*
X5469468Y-15872079D02*
X5478991Y-15910174D01*
X5478991Y-15910174D02*
X5478991Y-15957793D01*
X5478991Y-15957793D02*
X5469468Y-15995888D01*
X5469468Y-15995888D02*
X5459944Y-16014936D01*
X5459944Y-16014936D02*
X5450420Y-16024460D01*
X5450420Y-16024460D02*
X5431372Y-16033984D01*
X5431372Y-16033984D02*
X5412325Y-16033984D01*
X5412325Y-16033984D02*
X5393277Y-16024460D01*
X5393277Y-16024460D02*
X5383753Y-16014936D01*
X5383753Y-16014936D02*
X5374230Y-15995888D01*
X5374230Y-15995888D02*
X5364706Y-15957793D01*
X5364706Y-15957793D02*
X5364706Y-15910174D01*
X5364706Y-15910174D02*
X5374230Y-15872079D01*
X5374230Y-15872079D02*
X5383753Y-15853031D01*
X5383753Y-15853031D02*
X5393277Y-15843508D01*
X5393277Y-15843508D02*
X5412325Y-15833984D01*
X5717087Y-16033984D02*
X5717087Y-15833984D01*
X5802801Y-16033984D02*
X5802801Y-15929222D01*
X5802801Y-15929222D02*
X5793277Y-15910174D01*
X5793277Y-15910174D02*
X5774230Y-15900650D01*
X5774230Y-15900650D02*
X5745658Y-15900650D01*
X5745658Y-15900650D02*
X5726610Y-15910174D01*
X5726610Y-15910174D02*
X5717087Y-15919698D01*
X5926610Y-16033984D02*
X5907563Y-16024460D01*
X5907563Y-16024460D02*
X5898039Y-16014936D01*
X5898039Y-16014936D02*
X5888515Y-15995888D01*
X5888515Y-15995888D02*
X5888515Y-15938746D01*
X5888515Y-15938746D02*
X5898039Y-15919698D01*
X5898039Y-15919698D02*
X5907563Y-15910174D01*
X5907563Y-15910174D02*
X5926610Y-15900650D01*
X5926610Y-15900650D02*
X5955182Y-15900650D01*
X5955182Y-15900650D02*
X5974230Y-15910174D01*
X5974230Y-15910174D02*
X5983753Y-15919698D01*
X5983753Y-15919698D02*
X5993277Y-15938746D01*
X5993277Y-15938746D02*
X5993277Y-15995888D01*
X5993277Y-15995888D02*
X5983753Y-16014936D01*
X5983753Y-16014936D02*
X5974230Y-16024460D01*
X5974230Y-16024460D02*
X5955182Y-16033984D01*
X5955182Y-16033984D02*
X5926610Y-16033984D01*
X6107563Y-16033984D02*
X6088515Y-16024460D01*
X6088515Y-16024460D02*
X6078991Y-16005412D01*
X6078991Y-16005412D02*
X6078991Y-15833984D01*
X6259944Y-16024460D02*
X6240896Y-16033984D01*
X6240896Y-16033984D02*
X6202801Y-16033984D01*
X6202801Y-16033984D02*
X6183753Y-16024460D01*
X6183753Y-16024460D02*
X6174230Y-16005412D01*
X6174230Y-16005412D02*
X6174230Y-15929222D01*
X6174230Y-15929222D02*
X6183753Y-15910174D01*
X6183753Y-15910174D02*
X6202801Y-15900650D01*
X6202801Y-15900650D02*
X6240896Y-15900650D01*
X6240896Y-15900650D02*
X6259944Y-15910174D01*
X6259944Y-15910174D02*
X6269468Y-15929222D01*
X6269468Y-15929222D02*
X6269468Y-15948269D01*
X6269468Y-15948269D02*
X6174230Y-15967317D01*
X6345658Y-16024460D02*
X6364706Y-16033984D01*
X6364706Y-16033984D02*
X6402801Y-16033984D01*
X6402801Y-16033984D02*
X6421849Y-16024460D01*
X6421849Y-16024460D02*
X6431372Y-16005412D01*
X6431372Y-16005412D02*
X6431372Y-15995888D01*
X6431372Y-15995888D02*
X6421849Y-15976841D01*
X6421849Y-15976841D02*
X6402801Y-15967317D01*
X6402801Y-15967317D02*
X6374230Y-15967317D01*
X6374230Y-15967317D02*
X6355182Y-15957793D01*
X6355182Y-15957793D02*
X6345658Y-15938746D01*
X6345658Y-15938746D02*
X6345658Y-15929222D01*
X6345658Y-15929222D02*
X6355182Y-15910174D01*
X6355182Y-15910174D02*
X6374230Y-15900650D01*
X6374230Y-15900650D02*
X6402801Y-15900650D01*
X6402801Y-15900650D02*
X6421849Y-15910174D01*
X6498039Y-16110174D02*
X6507563Y-16100650D01*
X6507563Y-16100650D02*
X6526611Y-16072079D01*
X6526611Y-16072079D02*
X6536134Y-16053031D01*
X6536134Y-16053031D02*
X6545658Y-16024460D01*
X6545658Y-16024460D02*
X6555182Y-15976841D01*
X6555182Y-15976841D02*
X6555182Y-15938746D01*
X6555182Y-15938746D02*
X6545658Y-15891127D01*
X6545658Y-15891127D02*
X6536134Y-15862555D01*
X6536134Y-15862555D02*
X6526611Y-15843508D01*
X6526611Y-15843508D02*
X6507563Y-15814936D01*
X6507563Y-15814936D02*
X6498039Y-15805412D01*
X6859944Y-16110174D02*
X6850420Y-16100650D01*
X6850420Y-16100650D02*
X6831372Y-16072079D01*
X6831372Y-16072079D02*
X6821849Y-16053031D01*
X6821849Y-16053031D02*
X6812325Y-16024460D01*
X6812325Y-16024460D02*
X6802801Y-15976841D01*
X6802801Y-15976841D02*
X6802801Y-15938746D01*
X6802801Y-15938746D02*
X6812325Y-15891127D01*
X6812325Y-15891127D02*
X6821849Y-15862555D01*
X6821849Y-15862555D02*
X6831372Y-15843508D01*
X6831372Y-15843508D02*
X6850420Y-15814936D01*
X6850420Y-15814936D02*
X6859944Y-15805412D01*
X6936134Y-15900650D02*
X6936134Y-16033984D01*
X6936134Y-15919698D02*
X6945658Y-15910174D01*
X6945658Y-15910174D02*
X6964706Y-15900650D01*
X6964706Y-15900650D02*
X6993277Y-15900650D01*
X6993277Y-15900650D02*
X7012325Y-15910174D01*
X7012325Y-15910174D02*
X7021849Y-15929222D01*
X7021849Y-15929222D02*
X7021849Y-16033984D01*
X7145658Y-16033984D02*
X7126611Y-16024460D01*
X7126611Y-16024460D02*
X7117087Y-16014936D01*
X7117087Y-16014936D02*
X7107563Y-15995888D01*
X7107563Y-15995888D02*
X7107563Y-15938746D01*
X7107563Y-15938746D02*
X7117087Y-15919698D01*
X7117087Y-15919698D02*
X7126611Y-15910174D01*
X7126611Y-15910174D02*
X7145658Y-15900650D01*
X7145658Y-15900650D02*
X7174230Y-15900650D01*
X7174230Y-15900650D02*
X7193277Y-15910174D01*
X7193277Y-15910174D02*
X7202801Y-15919698D01*
X7202801Y-15919698D02*
X7212325Y-15938746D01*
X7212325Y-15938746D02*
X7212325Y-15995888D01*
X7212325Y-15995888D02*
X7202801Y-16014936D01*
X7202801Y-16014936D02*
X7193277Y-16024460D01*
X7193277Y-16024460D02*
X7174230Y-16033984D01*
X7174230Y-16033984D02*
X7145658Y-16033984D01*
X7269468Y-15900650D02*
X7345658Y-15900650D01*
X7298039Y-15833984D02*
X7298039Y-16005412D01*
X7298039Y-16005412D02*
X7307563Y-16024460D01*
X7307563Y-16024460D02*
X7326611Y-16033984D01*
X7326611Y-16033984D02*
X7345658Y-16033984D01*
X7564706Y-15900650D02*
X7564706Y-16100650D01*
X7564706Y-15910174D02*
X7583753Y-15900650D01*
X7583753Y-15900650D02*
X7621849Y-15900650D01*
X7621849Y-15900650D02*
X7640896Y-15910174D01*
X7640896Y-15910174D02*
X7650420Y-15919698D01*
X7650420Y-15919698D02*
X7659944Y-15938746D01*
X7659944Y-15938746D02*
X7659944Y-15995888D01*
X7659944Y-15995888D02*
X7650420Y-16014936D01*
X7650420Y-16014936D02*
X7640896Y-16024460D01*
X7640896Y-16024460D02*
X7621849Y-16033984D01*
X7621849Y-16033984D02*
X7583753Y-16033984D01*
X7583753Y-16033984D02*
X7564706Y-16024460D01*
X7774230Y-16033984D02*
X7755182Y-16024460D01*
X7755182Y-16024460D02*
X7745658Y-16005412D01*
X7745658Y-16005412D02*
X7745658Y-15833984D01*
X7936134Y-16033984D02*
X7936134Y-15929222D01*
X7936134Y-15929222D02*
X7926611Y-15910174D01*
X7926611Y-15910174D02*
X7907563Y-15900650D01*
X7907563Y-15900650D02*
X7869468Y-15900650D01*
X7869468Y-15900650D02*
X7850420Y-15910174D01*
X7936134Y-16024460D02*
X7917087Y-16033984D01*
X7917087Y-16033984D02*
X7869468Y-16033984D01*
X7869468Y-16033984D02*
X7850420Y-16024460D01*
X7850420Y-16024460D02*
X7840896Y-16005412D01*
X7840896Y-16005412D02*
X7840896Y-15986365D01*
X7840896Y-15986365D02*
X7850420Y-15967317D01*
X7850420Y-15967317D02*
X7869468Y-15957793D01*
X7869468Y-15957793D02*
X7917087Y-15957793D01*
X7917087Y-15957793D02*
X7936134Y-15948269D01*
X8002801Y-15900650D02*
X8078992Y-15900650D01*
X8031373Y-15833984D02*
X8031373Y-16005412D01*
X8031373Y-16005412D02*
X8040896Y-16024460D01*
X8040896Y-16024460D02*
X8059944Y-16033984D01*
X8059944Y-16033984D02*
X8078992Y-16033984D01*
X8221849Y-16024460D02*
X8202801Y-16033984D01*
X8202801Y-16033984D02*
X8164706Y-16033984D01*
X8164706Y-16033984D02*
X8145658Y-16024460D01*
X8145658Y-16024460D02*
X8136134Y-16005412D01*
X8136134Y-16005412D02*
X8136134Y-15929222D01*
X8136134Y-15929222D02*
X8145658Y-15910174D01*
X8145658Y-15910174D02*
X8164706Y-15900650D01*
X8164706Y-15900650D02*
X8202801Y-15900650D01*
X8202801Y-15900650D02*
X8221849Y-15910174D01*
X8221849Y-15910174D02*
X8231373Y-15929222D01*
X8231373Y-15929222D02*
X8231373Y-15948269D01*
X8231373Y-15948269D02*
X8136134Y-15967317D01*
X8402801Y-16033984D02*
X8402801Y-15833984D01*
X8402801Y-16024460D02*
X8383754Y-16033984D01*
X8383754Y-16033984D02*
X8345658Y-16033984D01*
X8345658Y-16033984D02*
X8326611Y-16024460D01*
X8326611Y-16024460D02*
X8317087Y-16014936D01*
X8317087Y-16014936D02*
X8307563Y-15995888D01*
X8307563Y-15995888D02*
X8307563Y-15938746D01*
X8307563Y-15938746D02*
X8317087Y-15919698D01*
X8317087Y-15919698D02*
X8326611Y-15910174D01*
X8326611Y-15910174D02*
X8345658Y-15900650D01*
X8345658Y-15900650D02*
X8383754Y-15900650D01*
X8383754Y-15900650D02*
X8402801Y-15910174D01*
X8478992Y-16110174D02*
X8488516Y-16100650D01*
X8488516Y-16100650D02*
X8507563Y-16072079D01*
X8507563Y-16072079D02*
X8517087Y-16053031D01*
X8517087Y-16053031D02*
X8526611Y-16024460D01*
X8526611Y-16024460D02*
X8536135Y-15976841D01*
X8536135Y-15976841D02*
X8536135Y-15938746D01*
X8536135Y-15938746D02*
X8526611Y-15891127D01*
X8526611Y-15891127D02*
X8517087Y-15862555D01*
X8517087Y-15862555D02*
X8507563Y-15843508D01*
X8507563Y-15843508D02*
X8488516Y-15814936D01*
X8488516Y-15814936D02*
X8478992Y-15805412D01*
X1532500Y-16206500D02*
G75*
G02*
X1332500Y-16206500I-100000J0D01*
G01*
X1332500Y-16206500D02*
G75*
G02*
X1532500Y-16206500I100000J0D01*
G01*
X1783753Y-16117031D02*
X1793277Y-16107508D01*
X1793277Y-16107508D02*
X1812324Y-16097984D01*
X1812324Y-16097984D02*
X1859943Y-16097984D01*
X1859943Y-16097984D02*
X1878991Y-16107508D01*
X1878991Y-16107508D02*
X1888515Y-16117031D01*
X1888515Y-16117031D02*
X1898039Y-16136079D01*
X1898039Y-16136079D02*
X1898039Y-16155127D01*
X1898039Y-16155127D02*
X1888515Y-16183698D01*
X1888515Y-16183698D02*
X1774229Y-16297984D01*
X1774229Y-16297984D02*
X1898039Y-16297984D01*
X1983753Y-16278936D02*
X1993277Y-16288460D01*
X1993277Y-16288460D02*
X1983753Y-16297984D01*
X1983753Y-16297984D02*
X1974229Y-16288460D01*
X1974229Y-16288460D02*
X1983753Y-16278936D01*
X1983753Y-16278936D02*
X1983753Y-16297984D01*
X2059943Y-16097984D02*
X2183753Y-16097984D01*
X2183753Y-16097984D02*
X2117086Y-16174174D01*
X2117086Y-16174174D02*
X2145658Y-16174174D01*
X2145658Y-16174174D02*
X2164705Y-16183698D01*
X2164705Y-16183698D02*
X2174229Y-16193222D01*
X2174229Y-16193222D02*
X2183753Y-16212269D01*
X2183753Y-16212269D02*
X2183753Y-16259888D01*
X2183753Y-16259888D02*
X2174229Y-16278936D01*
X2174229Y-16278936D02*
X2164705Y-16288460D01*
X2164705Y-16288460D02*
X2145658Y-16297984D01*
X2145658Y-16297984D02*
X2088515Y-16297984D01*
X2088515Y-16297984D02*
X2069467Y-16288460D01*
X2069467Y-16288460D02*
X2059943Y-16278936D01*
X2307563Y-16097984D02*
X2326610Y-16097984D01*
X2326610Y-16097984D02*
X2345658Y-16107508D01*
X2345658Y-16107508D02*
X2355182Y-16117031D01*
X2355182Y-16117031D02*
X2364705Y-16136079D01*
X2364705Y-16136079D02*
X2374229Y-16174174D01*
X2374229Y-16174174D02*
X2374229Y-16221793D01*
X2374229Y-16221793D02*
X2364705Y-16259888D01*
X2364705Y-16259888D02*
X2355182Y-16278936D01*
X2355182Y-16278936D02*
X2345658Y-16288460D01*
X2345658Y-16288460D02*
X2326610Y-16297984D01*
X2326610Y-16297984D02*
X2307563Y-16297984D01*
X2307563Y-16297984D02*
X2288515Y-16288460D01*
X2288515Y-16288460D02*
X2278991Y-16278936D01*
X2278991Y-16278936D02*
X2269467Y-16259888D01*
X2269467Y-16259888D02*
X2259944Y-16221793D01*
X2259944Y-16221793D02*
X2259944Y-16174174D01*
X2259944Y-16174174D02*
X2269467Y-16136079D01*
X2269467Y-16136079D02*
X2278991Y-16117031D01*
X2278991Y-16117031D02*
X2288515Y-16107508D01*
X2288515Y-16107508D02*
X2307563Y-16097984D01*
X2498039Y-16097984D02*
X2517086Y-16097984D01*
X2517086Y-16097984D02*
X2536134Y-16107508D01*
X2536134Y-16107508D02*
X2545658Y-16117031D01*
X2545658Y-16117031D02*
X2555182Y-16136079D01*
X2555182Y-16136079D02*
X2564705Y-16174174D01*
X2564705Y-16174174D02*
X2564705Y-16221793D01*
X2564705Y-16221793D02*
X2555182Y-16259888D01*
X2555182Y-16259888D02*
X2545658Y-16278936D01*
X2545658Y-16278936D02*
X2536134Y-16288460D01*
X2536134Y-16288460D02*
X2517086Y-16297984D01*
X2517086Y-16297984D02*
X2498039Y-16297984D01*
X2498039Y-16297984D02*
X2478991Y-16288460D01*
X2478991Y-16288460D02*
X2469467Y-16278936D01*
X2469467Y-16278936D02*
X2459944Y-16259888D01*
X2459944Y-16259888D02*
X2450420Y-16221793D01*
X2450420Y-16221793D02*
X2450420Y-16174174D01*
X2450420Y-16174174D02*
X2459944Y-16136079D01*
X2459944Y-16136079D02*
X2469467Y-16117031D01*
X2469467Y-16117031D02*
X2478991Y-16107508D01*
X2478991Y-16107508D02*
X2498039Y-16097984D01*
X2650420Y-16297984D02*
X2650420Y-16164650D01*
X2650420Y-16183698D02*
X2659944Y-16174174D01*
X2659944Y-16174174D02*
X2678991Y-16164650D01*
X2678991Y-16164650D02*
X2707563Y-16164650D01*
X2707563Y-16164650D02*
X2726610Y-16174174D01*
X2726610Y-16174174D02*
X2736134Y-16193222D01*
X2736134Y-16193222D02*
X2736134Y-16297984D01*
X2736134Y-16193222D02*
X2745658Y-16174174D01*
X2745658Y-16174174D02*
X2764705Y-16164650D01*
X2764705Y-16164650D02*
X2793277Y-16164650D01*
X2793277Y-16164650D02*
X2812324Y-16174174D01*
X2812324Y-16174174D02*
X2821848Y-16193222D01*
X2821848Y-16193222D02*
X2821848Y-16297984D01*
X2917086Y-16297984D02*
X2917086Y-16164650D01*
X2917086Y-16183698D02*
X2926610Y-16174174D01*
X2926610Y-16174174D02*
X2945658Y-16164650D01*
X2945658Y-16164650D02*
X2974229Y-16164650D01*
X2974229Y-16164650D02*
X2993277Y-16174174D01*
X2993277Y-16174174D02*
X3002801Y-16193222D01*
X3002801Y-16193222D02*
X3002801Y-16297984D01*
X3002801Y-16193222D02*
X3012324Y-16174174D01*
X3012324Y-16174174D02*
X3031372Y-16164650D01*
X3031372Y-16164650D02*
X3059943Y-16164650D01*
X3059943Y-16164650D02*
X3078991Y-16174174D01*
X3078991Y-16174174D02*
X3088515Y-16193222D01*
X3088515Y-16193222D02*
X3088515Y-16297984D01*
X3478991Y-16088460D02*
X3307563Y-16345603D01*
X3736134Y-16097984D02*
X3755182Y-16097984D01*
X3755182Y-16097984D02*
X3774229Y-16107508D01*
X3774229Y-16107508D02*
X3783753Y-16117031D01*
X3783753Y-16117031D02*
X3793277Y-16136079D01*
X3793277Y-16136079D02*
X3802801Y-16174174D01*
X3802801Y-16174174D02*
X3802801Y-16221793D01*
X3802801Y-16221793D02*
X3793277Y-16259888D01*
X3793277Y-16259888D02*
X3783753Y-16278936D01*
X3783753Y-16278936D02*
X3774229Y-16288460D01*
X3774229Y-16288460D02*
X3755182Y-16297984D01*
X3755182Y-16297984D02*
X3736134Y-16297984D01*
X3736134Y-16297984D02*
X3717086Y-16288460D01*
X3717086Y-16288460D02*
X3707563Y-16278936D01*
X3707563Y-16278936D02*
X3698039Y-16259888D01*
X3698039Y-16259888D02*
X3688515Y-16221793D01*
X3688515Y-16221793D02*
X3688515Y-16174174D01*
X3688515Y-16174174D02*
X3698039Y-16136079D01*
X3698039Y-16136079D02*
X3707563Y-16117031D01*
X3707563Y-16117031D02*
X3717086Y-16107508D01*
X3717086Y-16107508D02*
X3736134Y-16097984D01*
X3888515Y-16278936D02*
X3898039Y-16288460D01*
X3898039Y-16288460D02*
X3888515Y-16297984D01*
X3888515Y-16297984D02*
X3878991Y-16288460D01*
X3878991Y-16288460D02*
X3888515Y-16278936D01*
X3888515Y-16278936D02*
X3888515Y-16297984D01*
X4021848Y-16097984D02*
X4040896Y-16097984D01*
X4040896Y-16097984D02*
X4059944Y-16107508D01*
X4059944Y-16107508D02*
X4069467Y-16117031D01*
X4069467Y-16117031D02*
X4078991Y-16136079D01*
X4078991Y-16136079D02*
X4088515Y-16174174D01*
X4088515Y-16174174D02*
X4088515Y-16221793D01*
X4088515Y-16221793D02*
X4078991Y-16259888D01*
X4078991Y-16259888D02*
X4069467Y-16278936D01*
X4069467Y-16278936D02*
X4059944Y-16288460D01*
X4059944Y-16288460D02*
X4040896Y-16297984D01*
X4040896Y-16297984D02*
X4021848Y-16297984D01*
X4021848Y-16297984D02*
X4002801Y-16288460D01*
X4002801Y-16288460D02*
X3993277Y-16278936D01*
X3993277Y-16278936D02*
X3983753Y-16259888D01*
X3983753Y-16259888D02*
X3974229Y-16221793D01*
X3974229Y-16221793D02*
X3974229Y-16174174D01*
X3974229Y-16174174D02*
X3983753Y-16136079D01*
X3983753Y-16136079D02*
X3993277Y-16117031D01*
X3993277Y-16117031D02*
X4002801Y-16107508D01*
X4002801Y-16107508D02*
X4021848Y-16097984D01*
X4183753Y-16297984D02*
X4221848Y-16297984D01*
X4221848Y-16297984D02*
X4240896Y-16288460D01*
X4240896Y-16288460D02*
X4250420Y-16278936D01*
X4250420Y-16278936D02*
X4269468Y-16250365D01*
X4269468Y-16250365D02*
X4278991Y-16212269D01*
X4278991Y-16212269D02*
X4278991Y-16136079D01*
X4278991Y-16136079D02*
X4269468Y-16117031D01*
X4269468Y-16117031D02*
X4259944Y-16107508D01*
X4259944Y-16107508D02*
X4240896Y-16097984D01*
X4240896Y-16097984D02*
X4202801Y-16097984D01*
X4202801Y-16097984D02*
X4183753Y-16107508D01*
X4183753Y-16107508D02*
X4174229Y-16117031D01*
X4174229Y-16117031D02*
X4164706Y-16136079D01*
X4164706Y-16136079D02*
X4164706Y-16183698D01*
X4164706Y-16183698D02*
X4174229Y-16202746D01*
X4174229Y-16202746D02*
X4183753Y-16212269D01*
X4183753Y-16212269D02*
X4202801Y-16221793D01*
X4202801Y-16221793D02*
X4240896Y-16221793D01*
X4240896Y-16221793D02*
X4259944Y-16212269D01*
X4259944Y-16212269D02*
X4269468Y-16202746D01*
X4269468Y-16202746D02*
X4278991Y-16183698D01*
X4402801Y-16097984D02*
X4421849Y-16097984D01*
X4421849Y-16097984D02*
X4440896Y-16107508D01*
X4440896Y-16107508D02*
X4450420Y-16117031D01*
X4450420Y-16117031D02*
X4459944Y-16136079D01*
X4459944Y-16136079D02*
X4469468Y-16174174D01*
X4469468Y-16174174D02*
X4469468Y-16221793D01*
X4469468Y-16221793D02*
X4459944Y-16259888D01*
X4459944Y-16259888D02*
X4450420Y-16278936D01*
X4450420Y-16278936D02*
X4440896Y-16288460D01*
X4440896Y-16288460D02*
X4421849Y-16297984D01*
X4421849Y-16297984D02*
X4402801Y-16297984D01*
X4402801Y-16297984D02*
X4383753Y-16288460D01*
X4383753Y-16288460D02*
X4374229Y-16278936D01*
X4374229Y-16278936D02*
X4364706Y-16259888D01*
X4364706Y-16259888D02*
X4355182Y-16221793D01*
X4355182Y-16221793D02*
X4355182Y-16174174D01*
X4355182Y-16174174D02*
X4364706Y-16136079D01*
X4364706Y-16136079D02*
X4374229Y-16117031D01*
X4374229Y-16117031D02*
X4383753Y-16107508D01*
X4383753Y-16107508D02*
X4402801Y-16097984D01*
X4640896Y-16097984D02*
X4602801Y-16097984D01*
X4602801Y-16097984D02*
X4583753Y-16107508D01*
X4583753Y-16107508D02*
X4574229Y-16117031D01*
X4574229Y-16117031D02*
X4555182Y-16145603D01*
X4555182Y-16145603D02*
X4545658Y-16183698D01*
X4545658Y-16183698D02*
X4545658Y-16259888D01*
X4545658Y-16259888D02*
X4555182Y-16278936D01*
X4555182Y-16278936D02*
X4564706Y-16288460D01*
X4564706Y-16288460D02*
X4583753Y-16297984D01*
X4583753Y-16297984D02*
X4621849Y-16297984D01*
X4621849Y-16297984D02*
X4640896Y-16288460D01*
X4640896Y-16288460D02*
X4650420Y-16278936D01*
X4650420Y-16278936D02*
X4659944Y-16259888D01*
X4659944Y-16259888D02*
X4659944Y-16212269D01*
X4659944Y-16212269D02*
X4650420Y-16193222D01*
X4650420Y-16193222D02*
X4640896Y-16183698D01*
X4640896Y-16183698D02*
X4621849Y-16174174D01*
X4621849Y-16174174D02*
X4583753Y-16174174D01*
X4583753Y-16174174D02*
X4564706Y-16183698D01*
X4564706Y-16183698D02*
X4555182Y-16193222D01*
X4555182Y-16193222D02*
X4545658Y-16212269D01*
X4736134Y-16097984D02*
X4736134Y-16136079D01*
X4812325Y-16097984D02*
X4812325Y-16136079D01*
X5107563Y-16374174D02*
X5098039Y-16364650D01*
X5098039Y-16364650D02*
X5078991Y-16336079D01*
X5078991Y-16336079D02*
X5069468Y-16317031D01*
X5069468Y-16317031D02*
X5059944Y-16288460D01*
X5059944Y-16288460D02*
X5050420Y-16240841D01*
X5050420Y-16240841D02*
X5050420Y-16202746D01*
X5050420Y-16202746D02*
X5059944Y-16155127D01*
X5059944Y-16155127D02*
X5069468Y-16126555D01*
X5069468Y-16126555D02*
X5078991Y-16107508D01*
X5078991Y-16107508D02*
X5098039Y-16078936D01*
X5098039Y-16078936D02*
X5107563Y-16069412D01*
X5269468Y-16097984D02*
X5231372Y-16097984D01*
X5231372Y-16097984D02*
X5212325Y-16107508D01*
X5212325Y-16107508D02*
X5202801Y-16117031D01*
X5202801Y-16117031D02*
X5183753Y-16145603D01*
X5183753Y-16145603D02*
X5174230Y-16183698D01*
X5174230Y-16183698D02*
X5174230Y-16259888D01*
X5174230Y-16259888D02*
X5183753Y-16278936D01*
X5183753Y-16278936D02*
X5193277Y-16288460D01*
X5193277Y-16288460D02*
X5212325Y-16297984D01*
X5212325Y-16297984D02*
X5250420Y-16297984D01*
X5250420Y-16297984D02*
X5269468Y-16288460D01*
X5269468Y-16288460D02*
X5278991Y-16278936D01*
X5278991Y-16278936D02*
X5288515Y-16259888D01*
X5288515Y-16259888D02*
X5288515Y-16212269D01*
X5288515Y-16212269D02*
X5278991Y-16193222D01*
X5278991Y-16193222D02*
X5269468Y-16183698D01*
X5269468Y-16183698D02*
X5250420Y-16174174D01*
X5250420Y-16174174D02*
X5212325Y-16174174D01*
X5212325Y-16174174D02*
X5193277Y-16183698D01*
X5193277Y-16183698D02*
X5183753Y-16193222D01*
X5183753Y-16193222D02*
X5174230Y-16212269D01*
X5526611Y-16297984D02*
X5526611Y-16097984D01*
X5612325Y-16297984D02*
X5612325Y-16193222D01*
X5612325Y-16193222D02*
X5602801Y-16174174D01*
X5602801Y-16174174D02*
X5583753Y-16164650D01*
X5583753Y-16164650D02*
X5555182Y-16164650D01*
X5555182Y-16164650D02*
X5536134Y-16174174D01*
X5536134Y-16174174D02*
X5526611Y-16183698D01*
X5736134Y-16297984D02*
X5717087Y-16288460D01*
X5717087Y-16288460D02*
X5707563Y-16278936D01*
X5707563Y-16278936D02*
X5698039Y-16259888D01*
X5698039Y-16259888D02*
X5698039Y-16202746D01*
X5698039Y-16202746D02*
X5707563Y-16183698D01*
X5707563Y-16183698D02*
X5717087Y-16174174D01*
X5717087Y-16174174D02*
X5736134Y-16164650D01*
X5736134Y-16164650D02*
X5764706Y-16164650D01*
X5764706Y-16164650D02*
X5783753Y-16174174D01*
X5783753Y-16174174D02*
X5793277Y-16183698D01*
X5793277Y-16183698D02*
X5802801Y-16202746D01*
X5802801Y-16202746D02*
X5802801Y-16259888D01*
X5802801Y-16259888D02*
X5793277Y-16278936D01*
X5793277Y-16278936D02*
X5783753Y-16288460D01*
X5783753Y-16288460D02*
X5764706Y-16297984D01*
X5764706Y-16297984D02*
X5736134Y-16297984D01*
X5917087Y-16297984D02*
X5898039Y-16288460D01*
X5898039Y-16288460D02*
X5888515Y-16269412D01*
X5888515Y-16269412D02*
X5888515Y-16097984D01*
X6069468Y-16288460D02*
X6050420Y-16297984D01*
X6050420Y-16297984D02*
X6012325Y-16297984D01*
X6012325Y-16297984D02*
X5993277Y-16288460D01*
X5993277Y-16288460D02*
X5983753Y-16269412D01*
X5983753Y-16269412D02*
X5983753Y-16193222D01*
X5983753Y-16193222D02*
X5993277Y-16174174D01*
X5993277Y-16174174D02*
X6012325Y-16164650D01*
X6012325Y-16164650D02*
X6050420Y-16164650D01*
X6050420Y-16164650D02*
X6069468Y-16174174D01*
X6069468Y-16174174D02*
X6078991Y-16193222D01*
X6078991Y-16193222D02*
X6078991Y-16212269D01*
X6078991Y-16212269D02*
X5983753Y-16231317D01*
X6155182Y-16288460D02*
X6174230Y-16297984D01*
X6174230Y-16297984D02*
X6212325Y-16297984D01*
X6212325Y-16297984D02*
X6231372Y-16288460D01*
X6231372Y-16288460D02*
X6240896Y-16269412D01*
X6240896Y-16269412D02*
X6240896Y-16259888D01*
X6240896Y-16259888D02*
X6231372Y-16240841D01*
X6231372Y-16240841D02*
X6212325Y-16231317D01*
X6212325Y-16231317D02*
X6183753Y-16231317D01*
X6183753Y-16231317D02*
X6164706Y-16221793D01*
X6164706Y-16221793D02*
X6155182Y-16202746D01*
X6155182Y-16202746D02*
X6155182Y-16193222D01*
X6155182Y-16193222D02*
X6164706Y-16174174D01*
X6164706Y-16174174D02*
X6183753Y-16164650D01*
X6183753Y-16164650D02*
X6212325Y-16164650D01*
X6212325Y-16164650D02*
X6231372Y-16174174D01*
X6307563Y-16374174D02*
X6317087Y-16364650D01*
X6317087Y-16364650D02*
X6336134Y-16336079D01*
X6336134Y-16336079D02*
X6345658Y-16317031D01*
X6345658Y-16317031D02*
X6355182Y-16288460D01*
X6355182Y-16288460D02*
X6364706Y-16240841D01*
X6364706Y-16240841D02*
X6364706Y-16202746D01*
X6364706Y-16202746D02*
X6355182Y-16155127D01*
X6355182Y-16155127D02*
X6345658Y-16126555D01*
X6345658Y-16126555D02*
X6336134Y-16107508D01*
X6336134Y-16107508D02*
X6317087Y-16078936D01*
X6317087Y-16078936D02*
X6307563Y-16069412D01*
X6669468Y-16374174D02*
X6659944Y-16364650D01*
X6659944Y-16364650D02*
X6640896Y-16336079D01*
X6640896Y-16336079D02*
X6631372Y-16317031D01*
X6631372Y-16317031D02*
X6621849Y-16288460D01*
X6621849Y-16288460D02*
X6612325Y-16240841D01*
X6612325Y-16240841D02*
X6612325Y-16202746D01*
X6612325Y-16202746D02*
X6621849Y-16155127D01*
X6621849Y-16155127D02*
X6631372Y-16126555D01*
X6631372Y-16126555D02*
X6640896Y-16107508D01*
X6640896Y-16107508D02*
X6659944Y-16078936D01*
X6659944Y-16078936D02*
X6669468Y-16069412D01*
X6745658Y-16164650D02*
X6745658Y-16297984D01*
X6745658Y-16183698D02*
X6755182Y-16174174D01*
X6755182Y-16174174D02*
X6774230Y-16164650D01*
X6774230Y-16164650D02*
X6802801Y-16164650D01*
X6802801Y-16164650D02*
X6821849Y-16174174D01*
X6821849Y-16174174D02*
X6831372Y-16193222D01*
X6831372Y-16193222D02*
X6831372Y-16297984D01*
X6955182Y-16297984D02*
X6936134Y-16288460D01*
X6936134Y-16288460D02*
X6926611Y-16278936D01*
X6926611Y-16278936D02*
X6917087Y-16259888D01*
X6917087Y-16259888D02*
X6917087Y-16202746D01*
X6917087Y-16202746D02*
X6926611Y-16183698D01*
X6926611Y-16183698D02*
X6936134Y-16174174D01*
X6936134Y-16174174D02*
X6955182Y-16164650D01*
X6955182Y-16164650D02*
X6983753Y-16164650D01*
X6983753Y-16164650D02*
X7002801Y-16174174D01*
X7002801Y-16174174D02*
X7012325Y-16183698D01*
X7012325Y-16183698D02*
X7021849Y-16202746D01*
X7021849Y-16202746D02*
X7021849Y-16259888D01*
X7021849Y-16259888D02*
X7012325Y-16278936D01*
X7012325Y-16278936D02*
X7002801Y-16288460D01*
X7002801Y-16288460D02*
X6983753Y-16297984D01*
X6983753Y-16297984D02*
X6955182Y-16297984D01*
X7078992Y-16164650D02*
X7155182Y-16164650D01*
X7107563Y-16097984D02*
X7107563Y-16269412D01*
X7107563Y-16269412D02*
X7117087Y-16288460D01*
X7117087Y-16288460D02*
X7136134Y-16297984D01*
X7136134Y-16297984D02*
X7155182Y-16297984D01*
X7374230Y-16164650D02*
X7374230Y-16364650D01*
X7374230Y-16174174D02*
X7393277Y-16164650D01*
X7393277Y-16164650D02*
X7431373Y-16164650D01*
X7431373Y-16164650D02*
X7450420Y-16174174D01*
X7450420Y-16174174D02*
X7459944Y-16183698D01*
X7459944Y-16183698D02*
X7469468Y-16202746D01*
X7469468Y-16202746D02*
X7469468Y-16259888D01*
X7469468Y-16259888D02*
X7459944Y-16278936D01*
X7459944Y-16278936D02*
X7450420Y-16288460D01*
X7450420Y-16288460D02*
X7431373Y-16297984D01*
X7431373Y-16297984D02*
X7393277Y-16297984D01*
X7393277Y-16297984D02*
X7374230Y-16288460D01*
X7583753Y-16297984D02*
X7564706Y-16288460D01*
X7564706Y-16288460D02*
X7555182Y-16269412D01*
X7555182Y-16269412D02*
X7555182Y-16097984D01*
X7745658Y-16297984D02*
X7745658Y-16193222D01*
X7745658Y-16193222D02*
X7736134Y-16174174D01*
X7736134Y-16174174D02*
X7717087Y-16164650D01*
X7717087Y-16164650D02*
X7678992Y-16164650D01*
X7678992Y-16164650D02*
X7659944Y-16174174D01*
X7745658Y-16288460D02*
X7726611Y-16297984D01*
X7726611Y-16297984D02*
X7678992Y-16297984D01*
X7678992Y-16297984D02*
X7659944Y-16288460D01*
X7659944Y-16288460D02*
X7650420Y-16269412D01*
X7650420Y-16269412D02*
X7650420Y-16250365D01*
X7650420Y-16250365D02*
X7659944Y-16231317D01*
X7659944Y-16231317D02*
X7678992Y-16221793D01*
X7678992Y-16221793D02*
X7726611Y-16221793D01*
X7726611Y-16221793D02*
X7745658Y-16212269D01*
X7812325Y-16164650D02*
X7888515Y-16164650D01*
X7840896Y-16097984D02*
X7840896Y-16269412D01*
X7840896Y-16269412D02*
X7850420Y-16288460D01*
X7850420Y-16288460D02*
X7869468Y-16297984D01*
X7869468Y-16297984D02*
X7888515Y-16297984D01*
X8031373Y-16288460D02*
X8012325Y-16297984D01*
X8012325Y-16297984D02*
X7974230Y-16297984D01*
X7974230Y-16297984D02*
X7955182Y-16288460D01*
X7955182Y-16288460D02*
X7945658Y-16269412D01*
X7945658Y-16269412D02*
X7945658Y-16193222D01*
X7945658Y-16193222D02*
X7955182Y-16174174D01*
X7955182Y-16174174D02*
X7974230Y-16164650D01*
X7974230Y-16164650D02*
X8012325Y-16164650D01*
X8012325Y-16164650D02*
X8031373Y-16174174D01*
X8031373Y-16174174D02*
X8040896Y-16193222D01*
X8040896Y-16193222D02*
X8040896Y-16212269D01*
X8040896Y-16212269D02*
X7945658Y-16231317D01*
X8212325Y-16297984D02*
X8212325Y-16097984D01*
X8212325Y-16288460D02*
X8193277Y-16297984D01*
X8193277Y-16297984D02*
X8155182Y-16297984D01*
X8155182Y-16297984D02*
X8136134Y-16288460D01*
X8136134Y-16288460D02*
X8126611Y-16278936D01*
X8126611Y-16278936D02*
X8117087Y-16259888D01*
X8117087Y-16259888D02*
X8117087Y-16202746D01*
X8117087Y-16202746D02*
X8126611Y-16183698D01*
X8126611Y-16183698D02*
X8136134Y-16174174D01*
X8136134Y-16174174D02*
X8155182Y-16164650D01*
X8155182Y-16164650D02*
X8193277Y-16164650D01*
X8193277Y-16164650D02*
X8212325Y-16174174D01*
X8288515Y-16374174D02*
X8298039Y-16364650D01*
X8298039Y-16364650D02*
X8317087Y-16336079D01*
X8317087Y-16336079D02*
X8326611Y-16317031D01*
X8326611Y-16317031D02*
X8336134Y-16288460D01*
X8336134Y-16288460D02*
X8345658Y-16240841D01*
X8345658Y-16240841D02*
X8345658Y-16202746D01*
X8345658Y-16202746D02*
X8336134Y-16155127D01*
X8336134Y-16155127D02*
X8326611Y-16126555D01*
X8326611Y-16126555D02*
X8317087Y-16107508D01*
X8317087Y-16107508D02*
X8298039Y-16078936D01*
X8298039Y-16078936D02*
X8288515Y-16069412D01*
X1432500Y-16426500D02*
X1432500Y-16626500D01*
X1332500Y-16526500D02*
X1532500Y-16526500D01*
X1783753Y-16437031D02*
X1793277Y-16427508D01*
X1793277Y-16427508D02*
X1812324Y-16417984D01*
X1812324Y-16417984D02*
X1859943Y-16417984D01*
X1859943Y-16417984D02*
X1878991Y-16427508D01*
X1878991Y-16427508D02*
X1888515Y-16437031D01*
X1888515Y-16437031D02*
X1898039Y-16456079D01*
X1898039Y-16456079D02*
X1898039Y-16475127D01*
X1898039Y-16475127D02*
X1888515Y-16503698D01*
X1888515Y-16503698D02*
X1774229Y-16617984D01*
X1774229Y-16617984D02*
X1898039Y-16617984D01*
X1983753Y-16598936D02*
X1993277Y-16608460D01*
X1993277Y-16608460D02*
X1983753Y-16617984D01*
X1983753Y-16617984D02*
X1974229Y-16608460D01*
X1974229Y-16608460D02*
X1983753Y-16598936D01*
X1983753Y-16598936D02*
X1983753Y-16617984D01*
X2059943Y-16417984D02*
X2183753Y-16417984D01*
X2183753Y-16417984D02*
X2117086Y-16494174D01*
X2117086Y-16494174D02*
X2145658Y-16494174D01*
X2145658Y-16494174D02*
X2164705Y-16503698D01*
X2164705Y-16503698D02*
X2174229Y-16513222D01*
X2174229Y-16513222D02*
X2183753Y-16532269D01*
X2183753Y-16532269D02*
X2183753Y-16579888D01*
X2183753Y-16579888D02*
X2174229Y-16598936D01*
X2174229Y-16598936D02*
X2164705Y-16608460D01*
X2164705Y-16608460D02*
X2145658Y-16617984D01*
X2145658Y-16617984D02*
X2088515Y-16617984D01*
X2088515Y-16617984D02*
X2069467Y-16608460D01*
X2069467Y-16608460D02*
X2059943Y-16598936D01*
X2298039Y-16503698D02*
X2278991Y-16494174D01*
X2278991Y-16494174D02*
X2269467Y-16484650D01*
X2269467Y-16484650D02*
X2259944Y-16465603D01*
X2259944Y-16465603D02*
X2259944Y-16456079D01*
X2259944Y-16456079D02*
X2269467Y-16437031D01*
X2269467Y-16437031D02*
X2278991Y-16427508D01*
X2278991Y-16427508D02*
X2298039Y-16417984D01*
X2298039Y-16417984D02*
X2336134Y-16417984D01*
X2336134Y-16417984D02*
X2355182Y-16427508D01*
X2355182Y-16427508D02*
X2364705Y-16437031D01*
X2364705Y-16437031D02*
X2374229Y-16456079D01*
X2374229Y-16456079D02*
X2374229Y-16465603D01*
X2374229Y-16465603D02*
X2364705Y-16484650D01*
X2364705Y-16484650D02*
X2355182Y-16494174D01*
X2355182Y-16494174D02*
X2336134Y-16503698D01*
X2336134Y-16503698D02*
X2298039Y-16503698D01*
X2298039Y-16503698D02*
X2278991Y-16513222D01*
X2278991Y-16513222D02*
X2269467Y-16522746D01*
X2269467Y-16522746D02*
X2259944Y-16541793D01*
X2259944Y-16541793D02*
X2259944Y-16579888D01*
X2259944Y-16579888D02*
X2269467Y-16598936D01*
X2269467Y-16598936D02*
X2278991Y-16608460D01*
X2278991Y-16608460D02*
X2298039Y-16617984D01*
X2298039Y-16617984D02*
X2336134Y-16617984D01*
X2336134Y-16617984D02*
X2355182Y-16608460D01*
X2355182Y-16608460D02*
X2364705Y-16598936D01*
X2364705Y-16598936D02*
X2374229Y-16579888D01*
X2374229Y-16579888D02*
X2374229Y-16541793D01*
X2374229Y-16541793D02*
X2364705Y-16522746D01*
X2364705Y-16522746D02*
X2355182Y-16513222D01*
X2355182Y-16513222D02*
X2336134Y-16503698D01*
X2488515Y-16503698D02*
X2469467Y-16494174D01*
X2469467Y-16494174D02*
X2459944Y-16484650D01*
X2459944Y-16484650D02*
X2450420Y-16465603D01*
X2450420Y-16465603D02*
X2450420Y-16456079D01*
X2450420Y-16456079D02*
X2459944Y-16437031D01*
X2459944Y-16437031D02*
X2469467Y-16427508D01*
X2469467Y-16427508D02*
X2488515Y-16417984D01*
X2488515Y-16417984D02*
X2526610Y-16417984D01*
X2526610Y-16417984D02*
X2545658Y-16427508D01*
X2545658Y-16427508D02*
X2555182Y-16437031D01*
X2555182Y-16437031D02*
X2564705Y-16456079D01*
X2564705Y-16456079D02*
X2564705Y-16465603D01*
X2564705Y-16465603D02*
X2555182Y-16484650D01*
X2555182Y-16484650D02*
X2545658Y-16494174D01*
X2545658Y-16494174D02*
X2526610Y-16503698D01*
X2526610Y-16503698D02*
X2488515Y-16503698D01*
X2488515Y-16503698D02*
X2469467Y-16513222D01*
X2469467Y-16513222D02*
X2459944Y-16522746D01*
X2459944Y-16522746D02*
X2450420Y-16541793D01*
X2450420Y-16541793D02*
X2450420Y-16579888D01*
X2450420Y-16579888D02*
X2459944Y-16598936D01*
X2459944Y-16598936D02*
X2469467Y-16608460D01*
X2469467Y-16608460D02*
X2488515Y-16617984D01*
X2488515Y-16617984D02*
X2526610Y-16617984D01*
X2526610Y-16617984D02*
X2545658Y-16608460D01*
X2545658Y-16608460D02*
X2555182Y-16598936D01*
X2555182Y-16598936D02*
X2564705Y-16579888D01*
X2564705Y-16579888D02*
X2564705Y-16541793D01*
X2564705Y-16541793D02*
X2555182Y-16522746D01*
X2555182Y-16522746D02*
X2545658Y-16513222D01*
X2545658Y-16513222D02*
X2526610Y-16503698D01*
X2650420Y-16617984D02*
X2650420Y-16484650D01*
X2650420Y-16503698D02*
X2659944Y-16494174D01*
X2659944Y-16494174D02*
X2678991Y-16484650D01*
X2678991Y-16484650D02*
X2707563Y-16484650D01*
X2707563Y-16484650D02*
X2726610Y-16494174D01*
X2726610Y-16494174D02*
X2736134Y-16513222D01*
X2736134Y-16513222D02*
X2736134Y-16617984D01*
X2736134Y-16513222D02*
X2745658Y-16494174D01*
X2745658Y-16494174D02*
X2764705Y-16484650D01*
X2764705Y-16484650D02*
X2793277Y-16484650D01*
X2793277Y-16484650D02*
X2812324Y-16494174D01*
X2812324Y-16494174D02*
X2821848Y-16513222D01*
X2821848Y-16513222D02*
X2821848Y-16617984D01*
X2917086Y-16617984D02*
X2917086Y-16484650D01*
X2917086Y-16503698D02*
X2926610Y-16494174D01*
X2926610Y-16494174D02*
X2945658Y-16484650D01*
X2945658Y-16484650D02*
X2974229Y-16484650D01*
X2974229Y-16484650D02*
X2993277Y-16494174D01*
X2993277Y-16494174D02*
X3002801Y-16513222D01*
X3002801Y-16513222D02*
X3002801Y-16617984D01*
X3002801Y-16513222D02*
X3012324Y-16494174D01*
X3012324Y-16494174D02*
X3031372Y-16484650D01*
X3031372Y-16484650D02*
X3059943Y-16484650D01*
X3059943Y-16484650D02*
X3078991Y-16494174D01*
X3078991Y-16494174D02*
X3088515Y-16513222D01*
X3088515Y-16513222D02*
X3088515Y-16617984D01*
X3478991Y-16408460D02*
X3307563Y-16665603D01*
X3736134Y-16417984D02*
X3755182Y-16417984D01*
X3755182Y-16417984D02*
X3774229Y-16427508D01*
X3774229Y-16427508D02*
X3783753Y-16437031D01*
X3783753Y-16437031D02*
X3793277Y-16456079D01*
X3793277Y-16456079D02*
X3802801Y-16494174D01*
X3802801Y-16494174D02*
X3802801Y-16541793D01*
X3802801Y-16541793D02*
X3793277Y-16579888D01*
X3793277Y-16579888D02*
X3783753Y-16598936D01*
X3783753Y-16598936D02*
X3774229Y-16608460D01*
X3774229Y-16608460D02*
X3755182Y-16617984D01*
X3755182Y-16617984D02*
X3736134Y-16617984D01*
X3736134Y-16617984D02*
X3717086Y-16608460D01*
X3717086Y-16608460D02*
X3707563Y-16598936D01*
X3707563Y-16598936D02*
X3698039Y-16579888D01*
X3698039Y-16579888D02*
X3688515Y-16541793D01*
X3688515Y-16541793D02*
X3688515Y-16494174D01*
X3688515Y-16494174D02*
X3698039Y-16456079D01*
X3698039Y-16456079D02*
X3707563Y-16437031D01*
X3707563Y-16437031D02*
X3717086Y-16427508D01*
X3717086Y-16427508D02*
X3736134Y-16417984D01*
X3888515Y-16598936D02*
X3898039Y-16608460D01*
X3898039Y-16608460D02*
X3888515Y-16617984D01*
X3888515Y-16617984D02*
X3878991Y-16608460D01*
X3878991Y-16608460D02*
X3888515Y-16598936D01*
X3888515Y-16598936D02*
X3888515Y-16617984D01*
X4021848Y-16417984D02*
X4040896Y-16417984D01*
X4040896Y-16417984D02*
X4059944Y-16427508D01*
X4059944Y-16427508D02*
X4069467Y-16437031D01*
X4069467Y-16437031D02*
X4078991Y-16456079D01*
X4078991Y-16456079D02*
X4088515Y-16494174D01*
X4088515Y-16494174D02*
X4088515Y-16541793D01*
X4088515Y-16541793D02*
X4078991Y-16579888D01*
X4078991Y-16579888D02*
X4069467Y-16598936D01*
X4069467Y-16598936D02*
X4059944Y-16608460D01*
X4059944Y-16608460D02*
X4040896Y-16617984D01*
X4040896Y-16617984D02*
X4021848Y-16617984D01*
X4021848Y-16617984D02*
X4002801Y-16608460D01*
X4002801Y-16608460D02*
X3993277Y-16598936D01*
X3993277Y-16598936D02*
X3983753Y-16579888D01*
X3983753Y-16579888D02*
X3974229Y-16541793D01*
X3974229Y-16541793D02*
X3974229Y-16494174D01*
X3974229Y-16494174D02*
X3983753Y-16456079D01*
X3983753Y-16456079D02*
X3993277Y-16437031D01*
X3993277Y-16437031D02*
X4002801Y-16427508D01*
X4002801Y-16427508D02*
X4021848Y-16417984D01*
X4183753Y-16617984D02*
X4221848Y-16617984D01*
X4221848Y-16617984D02*
X4240896Y-16608460D01*
X4240896Y-16608460D02*
X4250420Y-16598936D01*
X4250420Y-16598936D02*
X4269468Y-16570365D01*
X4269468Y-16570365D02*
X4278991Y-16532269D01*
X4278991Y-16532269D02*
X4278991Y-16456079D01*
X4278991Y-16456079D02*
X4269468Y-16437031D01*
X4269468Y-16437031D02*
X4259944Y-16427508D01*
X4259944Y-16427508D02*
X4240896Y-16417984D01*
X4240896Y-16417984D02*
X4202801Y-16417984D01*
X4202801Y-16417984D02*
X4183753Y-16427508D01*
X4183753Y-16427508D02*
X4174229Y-16437031D01*
X4174229Y-16437031D02*
X4164706Y-16456079D01*
X4164706Y-16456079D02*
X4164706Y-16503698D01*
X4164706Y-16503698D02*
X4174229Y-16522746D01*
X4174229Y-16522746D02*
X4183753Y-16532269D01*
X4183753Y-16532269D02*
X4202801Y-16541793D01*
X4202801Y-16541793D02*
X4240896Y-16541793D01*
X4240896Y-16541793D02*
X4259944Y-16532269D01*
X4259944Y-16532269D02*
X4269468Y-16522746D01*
X4269468Y-16522746D02*
X4278991Y-16503698D01*
X4450420Y-16484650D02*
X4450420Y-16617984D01*
X4402801Y-16408460D02*
X4355182Y-16551317D01*
X4355182Y-16551317D02*
X4478991Y-16551317D01*
X4593277Y-16417984D02*
X4612325Y-16417984D01*
X4612325Y-16417984D02*
X4631372Y-16427508D01*
X4631372Y-16427508D02*
X4640896Y-16437031D01*
X4640896Y-16437031D02*
X4650420Y-16456079D01*
X4650420Y-16456079D02*
X4659944Y-16494174D01*
X4659944Y-16494174D02*
X4659944Y-16541793D01*
X4659944Y-16541793D02*
X4650420Y-16579888D01*
X4650420Y-16579888D02*
X4640896Y-16598936D01*
X4640896Y-16598936D02*
X4631372Y-16608460D01*
X4631372Y-16608460D02*
X4612325Y-16617984D01*
X4612325Y-16617984D02*
X4593277Y-16617984D01*
X4593277Y-16617984D02*
X4574229Y-16608460D01*
X4574229Y-16608460D02*
X4564706Y-16598936D01*
X4564706Y-16598936D02*
X4555182Y-16579888D01*
X4555182Y-16579888D02*
X4545658Y-16541793D01*
X4545658Y-16541793D02*
X4545658Y-16494174D01*
X4545658Y-16494174D02*
X4555182Y-16456079D01*
X4555182Y-16456079D02*
X4564706Y-16437031D01*
X4564706Y-16437031D02*
X4574229Y-16427508D01*
X4574229Y-16427508D02*
X4593277Y-16417984D01*
X4736134Y-16417984D02*
X4736134Y-16456079D01*
X4812325Y-16417984D02*
X4812325Y-16456079D01*
X5107563Y-16694174D02*
X5098039Y-16684650D01*
X5098039Y-16684650D02*
X5078991Y-16656079D01*
X5078991Y-16656079D02*
X5069468Y-16637031D01*
X5069468Y-16637031D02*
X5059944Y-16608460D01*
X5059944Y-16608460D02*
X5050420Y-16560841D01*
X5050420Y-16560841D02*
X5050420Y-16522746D01*
X5050420Y-16522746D02*
X5059944Y-16475127D01*
X5059944Y-16475127D02*
X5069468Y-16446555D01*
X5069468Y-16446555D02*
X5078991Y-16427508D01*
X5078991Y-16427508D02*
X5098039Y-16398936D01*
X5098039Y-16398936D02*
X5107563Y-16389412D01*
X5269468Y-16484650D02*
X5269468Y-16617984D01*
X5221849Y-16408460D02*
X5174230Y-16551317D01*
X5174230Y-16551317D02*
X5298039Y-16551317D01*
X5526611Y-16617984D02*
X5526611Y-16417984D01*
X5612325Y-16617984D02*
X5612325Y-16513222D01*
X5612325Y-16513222D02*
X5602801Y-16494174D01*
X5602801Y-16494174D02*
X5583753Y-16484650D01*
X5583753Y-16484650D02*
X5555182Y-16484650D01*
X5555182Y-16484650D02*
X5536134Y-16494174D01*
X5536134Y-16494174D02*
X5526611Y-16503698D01*
X5736134Y-16617984D02*
X5717087Y-16608460D01*
X5717087Y-16608460D02*
X5707563Y-16598936D01*
X5707563Y-16598936D02*
X5698039Y-16579888D01*
X5698039Y-16579888D02*
X5698039Y-16522746D01*
X5698039Y-16522746D02*
X5707563Y-16503698D01*
X5707563Y-16503698D02*
X5717087Y-16494174D01*
X5717087Y-16494174D02*
X5736134Y-16484650D01*
X5736134Y-16484650D02*
X5764706Y-16484650D01*
X5764706Y-16484650D02*
X5783753Y-16494174D01*
X5783753Y-16494174D02*
X5793277Y-16503698D01*
X5793277Y-16503698D02*
X5802801Y-16522746D01*
X5802801Y-16522746D02*
X5802801Y-16579888D01*
X5802801Y-16579888D02*
X5793277Y-16598936D01*
X5793277Y-16598936D02*
X5783753Y-16608460D01*
X5783753Y-16608460D02*
X5764706Y-16617984D01*
X5764706Y-16617984D02*
X5736134Y-16617984D01*
X5917087Y-16617984D02*
X5898039Y-16608460D01*
X5898039Y-16608460D02*
X5888515Y-16589412D01*
X5888515Y-16589412D02*
X5888515Y-16417984D01*
X6069468Y-16608460D02*
X6050420Y-16617984D01*
X6050420Y-16617984D02*
X6012325Y-16617984D01*
X6012325Y-16617984D02*
X5993277Y-16608460D01*
X5993277Y-16608460D02*
X5983753Y-16589412D01*
X5983753Y-16589412D02*
X5983753Y-16513222D01*
X5983753Y-16513222D02*
X5993277Y-16494174D01*
X5993277Y-16494174D02*
X6012325Y-16484650D01*
X6012325Y-16484650D02*
X6050420Y-16484650D01*
X6050420Y-16484650D02*
X6069468Y-16494174D01*
X6069468Y-16494174D02*
X6078991Y-16513222D01*
X6078991Y-16513222D02*
X6078991Y-16532269D01*
X6078991Y-16532269D02*
X5983753Y-16551317D01*
X6155182Y-16608460D02*
X6174230Y-16617984D01*
X6174230Y-16617984D02*
X6212325Y-16617984D01*
X6212325Y-16617984D02*
X6231372Y-16608460D01*
X6231372Y-16608460D02*
X6240896Y-16589412D01*
X6240896Y-16589412D02*
X6240896Y-16579888D01*
X6240896Y-16579888D02*
X6231372Y-16560841D01*
X6231372Y-16560841D02*
X6212325Y-16551317D01*
X6212325Y-16551317D02*
X6183753Y-16551317D01*
X6183753Y-16551317D02*
X6164706Y-16541793D01*
X6164706Y-16541793D02*
X6155182Y-16522746D01*
X6155182Y-16522746D02*
X6155182Y-16513222D01*
X6155182Y-16513222D02*
X6164706Y-16494174D01*
X6164706Y-16494174D02*
X6183753Y-16484650D01*
X6183753Y-16484650D02*
X6212325Y-16484650D01*
X6212325Y-16484650D02*
X6231372Y-16494174D01*
X6307563Y-16694174D02*
X6317087Y-16684650D01*
X6317087Y-16684650D02*
X6336134Y-16656079D01*
X6336134Y-16656079D02*
X6345658Y-16637031D01*
X6345658Y-16637031D02*
X6355182Y-16608460D01*
X6355182Y-16608460D02*
X6364706Y-16560841D01*
X6364706Y-16560841D02*
X6364706Y-16522746D01*
X6364706Y-16522746D02*
X6355182Y-16475127D01*
X6355182Y-16475127D02*
X6345658Y-16446555D01*
X6345658Y-16446555D02*
X6336134Y-16427508D01*
X6336134Y-16427508D02*
X6317087Y-16398936D01*
X6317087Y-16398936D02*
X6307563Y-16389412D01*
X6669468Y-16694174D02*
X6659944Y-16684650D01*
X6659944Y-16684650D02*
X6640896Y-16656079D01*
X6640896Y-16656079D02*
X6631372Y-16637031D01*
X6631372Y-16637031D02*
X6621849Y-16608460D01*
X6621849Y-16608460D02*
X6612325Y-16560841D01*
X6612325Y-16560841D02*
X6612325Y-16522746D01*
X6612325Y-16522746D02*
X6621849Y-16475127D01*
X6621849Y-16475127D02*
X6631372Y-16446555D01*
X6631372Y-16446555D02*
X6640896Y-16427508D01*
X6640896Y-16427508D02*
X6659944Y-16398936D01*
X6659944Y-16398936D02*
X6669468Y-16389412D01*
X6745658Y-16484650D02*
X6745658Y-16617984D01*
X6745658Y-16503698D02*
X6755182Y-16494174D01*
X6755182Y-16494174D02*
X6774230Y-16484650D01*
X6774230Y-16484650D02*
X6802801Y-16484650D01*
X6802801Y-16484650D02*
X6821849Y-16494174D01*
X6821849Y-16494174D02*
X6831372Y-16513222D01*
X6831372Y-16513222D02*
X6831372Y-16617984D01*
X6955182Y-16617984D02*
X6936134Y-16608460D01*
X6936134Y-16608460D02*
X6926611Y-16598936D01*
X6926611Y-16598936D02*
X6917087Y-16579888D01*
X6917087Y-16579888D02*
X6917087Y-16522746D01*
X6917087Y-16522746D02*
X6926611Y-16503698D01*
X6926611Y-16503698D02*
X6936134Y-16494174D01*
X6936134Y-16494174D02*
X6955182Y-16484650D01*
X6955182Y-16484650D02*
X6983753Y-16484650D01*
X6983753Y-16484650D02*
X7002801Y-16494174D01*
X7002801Y-16494174D02*
X7012325Y-16503698D01*
X7012325Y-16503698D02*
X7021849Y-16522746D01*
X7021849Y-16522746D02*
X7021849Y-16579888D01*
X7021849Y-16579888D02*
X7012325Y-16598936D01*
X7012325Y-16598936D02*
X7002801Y-16608460D01*
X7002801Y-16608460D02*
X6983753Y-16617984D01*
X6983753Y-16617984D02*
X6955182Y-16617984D01*
X7078992Y-16484650D02*
X7155182Y-16484650D01*
X7107563Y-16417984D02*
X7107563Y-16589412D01*
X7107563Y-16589412D02*
X7117087Y-16608460D01*
X7117087Y-16608460D02*
X7136134Y-16617984D01*
X7136134Y-16617984D02*
X7155182Y-16617984D01*
X7374230Y-16484650D02*
X7374230Y-16684650D01*
X7374230Y-16494174D02*
X7393277Y-16484650D01*
X7393277Y-16484650D02*
X7431373Y-16484650D01*
X7431373Y-16484650D02*
X7450420Y-16494174D01*
X7450420Y-16494174D02*
X7459944Y-16503698D01*
X7459944Y-16503698D02*
X7469468Y-16522746D01*
X7469468Y-16522746D02*
X7469468Y-16579888D01*
X7469468Y-16579888D02*
X7459944Y-16598936D01*
X7459944Y-16598936D02*
X7450420Y-16608460D01*
X7450420Y-16608460D02*
X7431373Y-16617984D01*
X7431373Y-16617984D02*
X7393277Y-16617984D01*
X7393277Y-16617984D02*
X7374230Y-16608460D01*
X7583753Y-16617984D02*
X7564706Y-16608460D01*
X7564706Y-16608460D02*
X7555182Y-16589412D01*
X7555182Y-16589412D02*
X7555182Y-16417984D01*
X7745658Y-16617984D02*
X7745658Y-16513222D01*
X7745658Y-16513222D02*
X7736134Y-16494174D01*
X7736134Y-16494174D02*
X7717087Y-16484650D01*
X7717087Y-16484650D02*
X7678992Y-16484650D01*
X7678992Y-16484650D02*
X7659944Y-16494174D01*
X7745658Y-16608460D02*
X7726611Y-16617984D01*
X7726611Y-16617984D02*
X7678992Y-16617984D01*
X7678992Y-16617984D02*
X7659944Y-16608460D01*
X7659944Y-16608460D02*
X7650420Y-16589412D01*
X7650420Y-16589412D02*
X7650420Y-16570365D01*
X7650420Y-16570365D02*
X7659944Y-16551317D01*
X7659944Y-16551317D02*
X7678992Y-16541793D01*
X7678992Y-16541793D02*
X7726611Y-16541793D01*
X7726611Y-16541793D02*
X7745658Y-16532269D01*
X7812325Y-16484650D02*
X7888515Y-16484650D01*
X7840896Y-16417984D02*
X7840896Y-16589412D01*
X7840896Y-16589412D02*
X7850420Y-16608460D01*
X7850420Y-16608460D02*
X7869468Y-16617984D01*
X7869468Y-16617984D02*
X7888515Y-16617984D01*
X8031373Y-16608460D02*
X8012325Y-16617984D01*
X8012325Y-16617984D02*
X7974230Y-16617984D01*
X7974230Y-16617984D02*
X7955182Y-16608460D01*
X7955182Y-16608460D02*
X7945658Y-16589412D01*
X7945658Y-16589412D02*
X7945658Y-16513222D01*
X7945658Y-16513222D02*
X7955182Y-16494174D01*
X7955182Y-16494174D02*
X7974230Y-16484650D01*
X7974230Y-16484650D02*
X8012325Y-16484650D01*
X8012325Y-16484650D02*
X8031373Y-16494174D01*
X8031373Y-16494174D02*
X8040896Y-16513222D01*
X8040896Y-16513222D02*
X8040896Y-16532269D01*
X8040896Y-16532269D02*
X7945658Y-16551317D01*
X8212325Y-16617984D02*
X8212325Y-16417984D01*
X8212325Y-16608460D02*
X8193277Y-16617984D01*
X8193277Y-16617984D02*
X8155182Y-16617984D01*
X8155182Y-16617984D02*
X8136134Y-16608460D01*
X8136134Y-16608460D02*
X8126611Y-16598936D01*
X8126611Y-16598936D02*
X8117087Y-16579888D01*
X8117087Y-16579888D02*
X8117087Y-16522746D01*
X8117087Y-16522746D02*
X8126611Y-16503698D01*
X8126611Y-16503698D02*
X8136134Y-16494174D01*
X8136134Y-16494174D02*
X8155182Y-16484650D01*
X8155182Y-16484650D02*
X8193277Y-16484650D01*
X8193277Y-16484650D02*
X8212325Y-16494174D01*
X8288515Y-16694174D02*
X8298039Y-16684650D01*
X8298039Y-16684650D02*
X8317087Y-16656079D01*
X8317087Y-16656079D02*
X8326611Y-16637031D01*
X8326611Y-16637031D02*
X8336134Y-16608460D01*
X8336134Y-16608460D02*
X8345658Y-16560841D01*
X8345658Y-16560841D02*
X8345658Y-16522746D01*
X8345658Y-16522746D02*
X8336134Y-16475127D01*
X8336134Y-16475127D02*
X8326611Y-16446555D01*
X8326611Y-16446555D02*
X8317087Y-16427508D01*
X8317087Y-16427508D02*
X8298039Y-16398936D01*
X8298039Y-16398936D02*
X8288515Y-16389412D01*
X1503211Y-16917211D02*
X1503211Y-16775789D01*
X1361789Y-16775789D01*
X1361789Y-16917211D01*
X1503211Y-16917211D01*
X1774229Y-16737984D02*
X1898039Y-16737984D01*
X1898039Y-16737984D02*
X1831372Y-16814174D01*
X1831372Y-16814174D02*
X1859943Y-16814174D01*
X1859943Y-16814174D02*
X1878991Y-16823698D01*
X1878991Y-16823698D02*
X1888515Y-16833222D01*
X1888515Y-16833222D02*
X1898039Y-16852270D01*
X1898039Y-16852270D02*
X1898039Y-16899889D01*
X1898039Y-16899889D02*
X1888515Y-16918936D01*
X1888515Y-16918936D02*
X1878991Y-16928460D01*
X1878991Y-16928460D02*
X1859943Y-16937984D01*
X1859943Y-16937984D02*
X1802801Y-16937984D01*
X1802801Y-16937984D02*
X1783753Y-16928460D01*
X1783753Y-16928460D02*
X1774229Y-16918936D01*
X1983753Y-16918936D02*
X1993277Y-16928460D01*
X1993277Y-16928460D02*
X1983753Y-16937984D01*
X1983753Y-16937984D02*
X1974229Y-16928460D01*
X1974229Y-16928460D02*
X1983753Y-16918936D01*
X1983753Y-16918936D02*
X1983753Y-16937984D01*
X2069467Y-16757031D02*
X2078991Y-16747508D01*
X2078991Y-16747508D02*
X2098039Y-16737984D01*
X2098039Y-16737984D02*
X2145658Y-16737984D01*
X2145658Y-16737984D02*
X2164705Y-16747508D01*
X2164705Y-16747508D02*
X2174229Y-16757031D01*
X2174229Y-16757031D02*
X2183753Y-16776079D01*
X2183753Y-16776079D02*
X2183753Y-16795127D01*
X2183753Y-16795127D02*
X2174229Y-16823698D01*
X2174229Y-16823698D02*
X2059943Y-16937984D01*
X2059943Y-16937984D02*
X2183753Y-16937984D01*
X2307563Y-16737984D02*
X2326610Y-16737984D01*
X2326610Y-16737984D02*
X2345658Y-16747508D01*
X2345658Y-16747508D02*
X2355182Y-16757031D01*
X2355182Y-16757031D02*
X2364705Y-16776079D01*
X2364705Y-16776079D02*
X2374229Y-16814174D01*
X2374229Y-16814174D02*
X2374229Y-16861793D01*
X2374229Y-16861793D02*
X2364705Y-16899889D01*
X2364705Y-16899889D02*
X2355182Y-16918936D01*
X2355182Y-16918936D02*
X2345658Y-16928460D01*
X2345658Y-16928460D02*
X2326610Y-16937984D01*
X2326610Y-16937984D02*
X2307563Y-16937984D01*
X2307563Y-16937984D02*
X2288515Y-16928460D01*
X2288515Y-16928460D02*
X2278991Y-16918936D01*
X2278991Y-16918936D02*
X2269467Y-16899889D01*
X2269467Y-16899889D02*
X2259944Y-16861793D01*
X2259944Y-16861793D02*
X2259944Y-16814174D01*
X2259944Y-16814174D02*
X2269467Y-16776079D01*
X2269467Y-16776079D02*
X2278991Y-16757031D01*
X2278991Y-16757031D02*
X2288515Y-16747508D01*
X2288515Y-16747508D02*
X2307563Y-16737984D01*
X2498039Y-16737984D02*
X2517086Y-16737984D01*
X2517086Y-16737984D02*
X2536134Y-16747508D01*
X2536134Y-16747508D02*
X2545658Y-16757031D01*
X2545658Y-16757031D02*
X2555182Y-16776079D01*
X2555182Y-16776079D02*
X2564705Y-16814174D01*
X2564705Y-16814174D02*
X2564705Y-16861793D01*
X2564705Y-16861793D02*
X2555182Y-16899889D01*
X2555182Y-16899889D02*
X2545658Y-16918936D01*
X2545658Y-16918936D02*
X2536134Y-16928460D01*
X2536134Y-16928460D02*
X2517086Y-16937984D01*
X2517086Y-16937984D02*
X2498039Y-16937984D01*
X2498039Y-16937984D02*
X2478991Y-16928460D01*
X2478991Y-16928460D02*
X2469467Y-16918936D01*
X2469467Y-16918936D02*
X2459944Y-16899889D01*
X2459944Y-16899889D02*
X2450420Y-16861793D01*
X2450420Y-16861793D02*
X2450420Y-16814174D01*
X2450420Y-16814174D02*
X2459944Y-16776079D01*
X2459944Y-16776079D02*
X2469467Y-16757031D01*
X2469467Y-16757031D02*
X2478991Y-16747508D01*
X2478991Y-16747508D02*
X2498039Y-16737984D01*
X2650420Y-16937984D02*
X2650420Y-16804650D01*
X2650420Y-16823698D02*
X2659944Y-16814174D01*
X2659944Y-16814174D02*
X2678991Y-16804650D01*
X2678991Y-16804650D02*
X2707563Y-16804650D01*
X2707563Y-16804650D02*
X2726610Y-16814174D01*
X2726610Y-16814174D02*
X2736134Y-16833222D01*
X2736134Y-16833222D02*
X2736134Y-16937984D01*
X2736134Y-16833222D02*
X2745658Y-16814174D01*
X2745658Y-16814174D02*
X2764705Y-16804650D01*
X2764705Y-16804650D02*
X2793277Y-16804650D01*
X2793277Y-16804650D02*
X2812324Y-16814174D01*
X2812324Y-16814174D02*
X2821848Y-16833222D01*
X2821848Y-16833222D02*
X2821848Y-16937984D01*
X2917086Y-16937984D02*
X2917086Y-16804650D01*
X2917086Y-16823698D02*
X2926610Y-16814174D01*
X2926610Y-16814174D02*
X2945658Y-16804650D01*
X2945658Y-16804650D02*
X2974229Y-16804650D01*
X2974229Y-16804650D02*
X2993277Y-16814174D01*
X2993277Y-16814174D02*
X3002801Y-16833222D01*
X3002801Y-16833222D02*
X3002801Y-16937984D01*
X3002801Y-16833222D02*
X3012324Y-16814174D01*
X3012324Y-16814174D02*
X3031372Y-16804650D01*
X3031372Y-16804650D02*
X3059943Y-16804650D01*
X3059943Y-16804650D02*
X3078991Y-16814174D01*
X3078991Y-16814174D02*
X3088515Y-16833222D01*
X3088515Y-16833222D02*
X3088515Y-16937984D01*
X3478991Y-16728460D02*
X3307563Y-16985603D01*
X3736134Y-16737984D02*
X3755182Y-16737984D01*
X3755182Y-16737984D02*
X3774229Y-16747508D01*
X3774229Y-16747508D02*
X3783753Y-16757031D01*
X3783753Y-16757031D02*
X3793277Y-16776079D01*
X3793277Y-16776079D02*
X3802801Y-16814174D01*
X3802801Y-16814174D02*
X3802801Y-16861793D01*
X3802801Y-16861793D02*
X3793277Y-16899889D01*
X3793277Y-16899889D02*
X3783753Y-16918936D01*
X3783753Y-16918936D02*
X3774229Y-16928460D01*
X3774229Y-16928460D02*
X3755182Y-16937984D01*
X3755182Y-16937984D02*
X3736134Y-16937984D01*
X3736134Y-16937984D02*
X3717086Y-16928460D01*
X3717086Y-16928460D02*
X3707563Y-16918936D01*
X3707563Y-16918936D02*
X3698039Y-16899889D01*
X3698039Y-16899889D02*
X3688515Y-16861793D01*
X3688515Y-16861793D02*
X3688515Y-16814174D01*
X3688515Y-16814174D02*
X3698039Y-16776079D01*
X3698039Y-16776079D02*
X3707563Y-16757031D01*
X3707563Y-16757031D02*
X3717086Y-16747508D01*
X3717086Y-16747508D02*
X3736134Y-16737984D01*
X3888515Y-16918936D02*
X3898039Y-16928460D01*
X3898039Y-16928460D02*
X3888515Y-16937984D01*
X3888515Y-16937984D02*
X3878991Y-16928460D01*
X3878991Y-16928460D02*
X3888515Y-16918936D01*
X3888515Y-16918936D02*
X3888515Y-16937984D01*
X4088515Y-16937984D02*
X3974229Y-16937984D01*
X4031372Y-16937984D02*
X4031372Y-16737984D01*
X4031372Y-16737984D02*
X4012325Y-16766555D01*
X4012325Y-16766555D02*
X3993277Y-16785603D01*
X3993277Y-16785603D02*
X3974229Y-16795127D01*
X4164706Y-16757031D02*
X4174229Y-16747508D01*
X4174229Y-16747508D02*
X4193277Y-16737984D01*
X4193277Y-16737984D02*
X4240896Y-16737984D01*
X4240896Y-16737984D02*
X4259944Y-16747508D01*
X4259944Y-16747508D02*
X4269468Y-16757031D01*
X4269468Y-16757031D02*
X4278991Y-16776079D01*
X4278991Y-16776079D02*
X4278991Y-16795127D01*
X4278991Y-16795127D02*
X4269468Y-16823698D01*
X4269468Y-16823698D02*
X4155182Y-16937984D01*
X4155182Y-16937984D02*
X4278991Y-16937984D01*
X4450420Y-16737984D02*
X4412325Y-16737984D01*
X4412325Y-16737984D02*
X4393277Y-16747508D01*
X4393277Y-16747508D02*
X4383753Y-16757031D01*
X4383753Y-16757031D02*
X4364706Y-16785603D01*
X4364706Y-16785603D02*
X4355182Y-16823698D01*
X4355182Y-16823698D02*
X4355182Y-16899889D01*
X4355182Y-16899889D02*
X4364706Y-16918936D01*
X4364706Y-16918936D02*
X4374229Y-16928460D01*
X4374229Y-16928460D02*
X4393277Y-16937984D01*
X4393277Y-16937984D02*
X4431372Y-16937984D01*
X4431372Y-16937984D02*
X4450420Y-16928460D01*
X4450420Y-16928460D02*
X4459944Y-16918936D01*
X4459944Y-16918936D02*
X4469468Y-16899889D01*
X4469468Y-16899889D02*
X4469468Y-16852270D01*
X4469468Y-16852270D02*
X4459944Y-16833222D01*
X4459944Y-16833222D02*
X4450420Y-16823698D01*
X4450420Y-16823698D02*
X4431372Y-16814174D01*
X4431372Y-16814174D02*
X4393277Y-16814174D01*
X4393277Y-16814174D02*
X4374229Y-16823698D01*
X4374229Y-16823698D02*
X4364706Y-16833222D01*
X4364706Y-16833222D02*
X4355182Y-16852270D01*
X4593277Y-16737984D02*
X4612325Y-16737984D01*
X4612325Y-16737984D02*
X4631372Y-16747508D01*
X4631372Y-16747508D02*
X4640896Y-16757031D01*
X4640896Y-16757031D02*
X4650420Y-16776079D01*
X4650420Y-16776079D02*
X4659944Y-16814174D01*
X4659944Y-16814174D02*
X4659944Y-16861793D01*
X4659944Y-16861793D02*
X4650420Y-16899889D01*
X4650420Y-16899889D02*
X4640896Y-16918936D01*
X4640896Y-16918936D02*
X4631372Y-16928460D01*
X4631372Y-16928460D02*
X4612325Y-16937984D01*
X4612325Y-16937984D02*
X4593277Y-16937984D01*
X4593277Y-16937984D02*
X4574229Y-16928460D01*
X4574229Y-16928460D02*
X4564706Y-16918936D01*
X4564706Y-16918936D02*
X4555182Y-16899889D01*
X4555182Y-16899889D02*
X4545658Y-16861793D01*
X4545658Y-16861793D02*
X4545658Y-16814174D01*
X4545658Y-16814174D02*
X4555182Y-16776079D01*
X4555182Y-16776079D02*
X4564706Y-16757031D01*
X4564706Y-16757031D02*
X4574229Y-16747508D01*
X4574229Y-16747508D02*
X4593277Y-16737984D01*
X4736134Y-16737984D02*
X4736134Y-16776079D01*
X4812325Y-16737984D02*
X4812325Y-16776079D01*
X5107563Y-17014174D02*
X5098039Y-17004650D01*
X5098039Y-17004650D02*
X5078991Y-16976079D01*
X5078991Y-16976079D02*
X5069468Y-16957031D01*
X5069468Y-16957031D02*
X5059944Y-16928460D01*
X5059944Y-16928460D02*
X5050420Y-16880841D01*
X5050420Y-16880841D02*
X5050420Y-16842746D01*
X5050420Y-16842746D02*
X5059944Y-16795127D01*
X5059944Y-16795127D02*
X5069468Y-16766555D01*
X5069468Y-16766555D02*
X5078991Y-16747508D01*
X5078991Y-16747508D02*
X5098039Y-16718936D01*
X5098039Y-16718936D02*
X5107563Y-16709412D01*
X5269468Y-16804650D02*
X5269468Y-16937984D01*
X5221849Y-16728460D02*
X5174230Y-16871317D01*
X5174230Y-16871317D02*
X5298039Y-16871317D01*
X5526611Y-16937984D02*
X5526611Y-16737984D01*
X5612325Y-16937984D02*
X5612325Y-16833222D01*
X5612325Y-16833222D02*
X5602801Y-16814174D01*
X5602801Y-16814174D02*
X5583753Y-16804650D01*
X5583753Y-16804650D02*
X5555182Y-16804650D01*
X5555182Y-16804650D02*
X5536134Y-16814174D01*
X5536134Y-16814174D02*
X5526611Y-16823698D01*
X5736134Y-16937984D02*
X5717087Y-16928460D01*
X5717087Y-16928460D02*
X5707563Y-16918936D01*
X5707563Y-16918936D02*
X5698039Y-16899889D01*
X5698039Y-16899889D02*
X5698039Y-16842746D01*
X5698039Y-16842746D02*
X5707563Y-16823698D01*
X5707563Y-16823698D02*
X5717087Y-16814174D01*
X5717087Y-16814174D02*
X5736134Y-16804650D01*
X5736134Y-16804650D02*
X5764706Y-16804650D01*
X5764706Y-16804650D02*
X5783753Y-16814174D01*
X5783753Y-16814174D02*
X5793277Y-16823698D01*
X5793277Y-16823698D02*
X5802801Y-16842746D01*
X5802801Y-16842746D02*
X5802801Y-16899889D01*
X5802801Y-16899889D02*
X5793277Y-16918936D01*
X5793277Y-16918936D02*
X5783753Y-16928460D01*
X5783753Y-16928460D02*
X5764706Y-16937984D01*
X5764706Y-16937984D02*
X5736134Y-16937984D01*
X5917087Y-16937984D02*
X5898039Y-16928460D01*
X5898039Y-16928460D02*
X5888515Y-16909412D01*
X5888515Y-16909412D02*
X5888515Y-16737984D01*
X6069468Y-16928460D02*
X6050420Y-16937984D01*
X6050420Y-16937984D02*
X6012325Y-16937984D01*
X6012325Y-16937984D02*
X5993277Y-16928460D01*
X5993277Y-16928460D02*
X5983753Y-16909412D01*
X5983753Y-16909412D02*
X5983753Y-16833222D01*
X5983753Y-16833222D02*
X5993277Y-16814174D01*
X5993277Y-16814174D02*
X6012325Y-16804650D01*
X6012325Y-16804650D02*
X6050420Y-16804650D01*
X6050420Y-16804650D02*
X6069468Y-16814174D01*
X6069468Y-16814174D02*
X6078991Y-16833222D01*
X6078991Y-16833222D02*
X6078991Y-16852270D01*
X6078991Y-16852270D02*
X5983753Y-16871317D01*
X6155182Y-16928460D02*
X6174230Y-16937984D01*
X6174230Y-16937984D02*
X6212325Y-16937984D01*
X6212325Y-16937984D02*
X6231372Y-16928460D01*
X6231372Y-16928460D02*
X6240896Y-16909412D01*
X6240896Y-16909412D02*
X6240896Y-16899889D01*
X6240896Y-16899889D02*
X6231372Y-16880841D01*
X6231372Y-16880841D02*
X6212325Y-16871317D01*
X6212325Y-16871317D02*
X6183753Y-16871317D01*
X6183753Y-16871317D02*
X6164706Y-16861793D01*
X6164706Y-16861793D02*
X6155182Y-16842746D01*
X6155182Y-16842746D02*
X6155182Y-16833222D01*
X6155182Y-16833222D02*
X6164706Y-16814174D01*
X6164706Y-16814174D02*
X6183753Y-16804650D01*
X6183753Y-16804650D02*
X6212325Y-16804650D01*
X6212325Y-16804650D02*
X6231372Y-16814174D01*
X6307563Y-17014174D02*
X6317087Y-17004650D01*
X6317087Y-17004650D02*
X6336134Y-16976079D01*
X6336134Y-16976079D02*
X6345658Y-16957031D01*
X6345658Y-16957031D02*
X6355182Y-16928460D01*
X6355182Y-16928460D02*
X6364706Y-16880841D01*
X6364706Y-16880841D02*
X6364706Y-16842746D01*
X6364706Y-16842746D02*
X6355182Y-16795127D01*
X6355182Y-16795127D02*
X6345658Y-16766555D01*
X6345658Y-16766555D02*
X6336134Y-16747508D01*
X6336134Y-16747508D02*
X6317087Y-16718936D01*
X6317087Y-16718936D02*
X6307563Y-16709412D01*
X6669468Y-17014174D02*
X6659944Y-17004650D01*
X6659944Y-17004650D02*
X6640896Y-16976079D01*
X6640896Y-16976079D02*
X6631372Y-16957031D01*
X6631372Y-16957031D02*
X6621849Y-16928460D01*
X6621849Y-16928460D02*
X6612325Y-16880841D01*
X6612325Y-16880841D02*
X6612325Y-16842746D01*
X6612325Y-16842746D02*
X6621849Y-16795127D01*
X6621849Y-16795127D02*
X6631372Y-16766555D01*
X6631372Y-16766555D02*
X6640896Y-16747508D01*
X6640896Y-16747508D02*
X6659944Y-16718936D01*
X6659944Y-16718936D02*
X6669468Y-16709412D01*
X6745658Y-16804650D02*
X6745658Y-16937984D01*
X6745658Y-16823698D02*
X6755182Y-16814174D01*
X6755182Y-16814174D02*
X6774230Y-16804650D01*
X6774230Y-16804650D02*
X6802801Y-16804650D01*
X6802801Y-16804650D02*
X6821849Y-16814174D01*
X6821849Y-16814174D02*
X6831372Y-16833222D01*
X6831372Y-16833222D02*
X6831372Y-16937984D01*
X6955182Y-16937984D02*
X6936134Y-16928460D01*
X6936134Y-16928460D02*
X6926611Y-16918936D01*
X6926611Y-16918936D02*
X6917087Y-16899889D01*
X6917087Y-16899889D02*
X6917087Y-16842746D01*
X6917087Y-16842746D02*
X6926611Y-16823698D01*
X6926611Y-16823698D02*
X6936134Y-16814174D01*
X6936134Y-16814174D02*
X6955182Y-16804650D01*
X6955182Y-16804650D02*
X6983753Y-16804650D01*
X6983753Y-16804650D02*
X7002801Y-16814174D01*
X7002801Y-16814174D02*
X7012325Y-16823698D01*
X7012325Y-16823698D02*
X7021849Y-16842746D01*
X7021849Y-16842746D02*
X7021849Y-16899889D01*
X7021849Y-16899889D02*
X7012325Y-16918936D01*
X7012325Y-16918936D02*
X7002801Y-16928460D01*
X7002801Y-16928460D02*
X6983753Y-16937984D01*
X6983753Y-16937984D02*
X6955182Y-16937984D01*
X7078992Y-16804650D02*
X7155182Y-16804650D01*
X7107563Y-16737984D02*
X7107563Y-16909412D01*
X7107563Y-16909412D02*
X7117087Y-16928460D01*
X7117087Y-16928460D02*
X7136134Y-16937984D01*
X7136134Y-16937984D02*
X7155182Y-16937984D01*
X7374230Y-16804650D02*
X7374230Y-17004650D01*
X7374230Y-16814174D02*
X7393277Y-16804650D01*
X7393277Y-16804650D02*
X7431373Y-16804650D01*
X7431373Y-16804650D02*
X7450420Y-16814174D01*
X7450420Y-16814174D02*
X7459944Y-16823698D01*
X7459944Y-16823698D02*
X7469468Y-16842746D01*
X7469468Y-16842746D02*
X7469468Y-16899889D01*
X7469468Y-16899889D02*
X7459944Y-16918936D01*
X7459944Y-16918936D02*
X7450420Y-16928460D01*
X7450420Y-16928460D02*
X7431373Y-16937984D01*
X7431373Y-16937984D02*
X7393277Y-16937984D01*
X7393277Y-16937984D02*
X7374230Y-16928460D01*
X7583753Y-16937984D02*
X7564706Y-16928460D01*
X7564706Y-16928460D02*
X7555182Y-16909412D01*
X7555182Y-16909412D02*
X7555182Y-16737984D01*
X7745658Y-16937984D02*
X7745658Y-16833222D01*
X7745658Y-16833222D02*
X7736134Y-16814174D01*
X7736134Y-16814174D02*
X7717087Y-16804650D01*
X7717087Y-16804650D02*
X7678992Y-16804650D01*
X7678992Y-16804650D02*
X7659944Y-16814174D01*
X7745658Y-16928460D02*
X7726611Y-16937984D01*
X7726611Y-16937984D02*
X7678992Y-16937984D01*
X7678992Y-16937984D02*
X7659944Y-16928460D01*
X7659944Y-16928460D02*
X7650420Y-16909412D01*
X7650420Y-16909412D02*
X7650420Y-16890365D01*
X7650420Y-16890365D02*
X7659944Y-16871317D01*
X7659944Y-16871317D02*
X7678992Y-16861793D01*
X7678992Y-16861793D02*
X7726611Y-16861793D01*
X7726611Y-16861793D02*
X7745658Y-16852270D01*
X7812325Y-16804650D02*
X7888515Y-16804650D01*
X7840896Y-16737984D02*
X7840896Y-16909412D01*
X7840896Y-16909412D02*
X7850420Y-16928460D01*
X7850420Y-16928460D02*
X7869468Y-16937984D01*
X7869468Y-16937984D02*
X7888515Y-16937984D01*
X8031373Y-16928460D02*
X8012325Y-16937984D01*
X8012325Y-16937984D02*
X7974230Y-16937984D01*
X7974230Y-16937984D02*
X7955182Y-16928460D01*
X7955182Y-16928460D02*
X7945658Y-16909412D01*
X7945658Y-16909412D02*
X7945658Y-16833222D01*
X7945658Y-16833222D02*
X7955182Y-16814174D01*
X7955182Y-16814174D02*
X7974230Y-16804650D01*
X7974230Y-16804650D02*
X8012325Y-16804650D01*
X8012325Y-16804650D02*
X8031373Y-16814174D01*
X8031373Y-16814174D02*
X8040896Y-16833222D01*
X8040896Y-16833222D02*
X8040896Y-16852270D01*
X8040896Y-16852270D02*
X7945658Y-16871317D01*
X8212325Y-16937984D02*
X8212325Y-16737984D01*
X8212325Y-16928460D02*
X8193277Y-16937984D01*
X8193277Y-16937984D02*
X8155182Y-16937984D01*
X8155182Y-16937984D02*
X8136134Y-16928460D01*
X8136134Y-16928460D02*
X8126611Y-16918936D01*
X8126611Y-16918936D02*
X8117087Y-16899889D01*
X8117087Y-16899889D02*
X8117087Y-16842746D01*
X8117087Y-16842746D02*
X8126611Y-16823698D01*
X8126611Y-16823698D02*
X8136134Y-16814174D01*
X8136134Y-16814174D02*
X8155182Y-16804650D01*
X8155182Y-16804650D02*
X8193277Y-16804650D01*
X8193277Y-16804650D02*
X8212325Y-16814174D01*
X8288515Y-17014174D02*
X8298039Y-17004650D01*
X8298039Y-17004650D02*
X8317087Y-16976079D01*
X8317087Y-16976079D02*
X8326611Y-16957031D01*
X8326611Y-16957031D02*
X8336134Y-16928460D01*
X8336134Y-16928460D02*
X8345658Y-16880841D01*
X8345658Y-16880841D02*
X8345658Y-16842746D01*
X8345658Y-16842746D02*
X8336134Y-16795127D01*
X8336134Y-16795127D02*
X8326611Y-16766555D01*
X8326611Y-16766555D02*
X8317087Y-16747508D01*
X8317087Y-16747508D02*
X8298039Y-16718936D01*
X8298039Y-16718936D02*
X8288515Y-16709412D01*
M02*
