G04 #@! TF.GenerationSoftware,KiCad,Pcbnew,9.0.0*
G04 #@! TF.CreationDate,2025-03-14T23:22:54+09:00*
G04 #@! TF.ProjectId,cv-depot,63762d64-6570-46f7-942e-6b696361645f,rev?*
G04 #@! TF.SameCoordinates,Original*
G04 #@! TF.FileFunction,Soldermask,Bot*
G04 #@! TF.FilePolarity,Negative*
%FSLAX46Y46*%
G04 Gerber Fmt 4.6, Leading zero omitted, Abs format (unit mm)*
G04 Created by KiCad (PCBNEW 9.0.0) date 2025-03-14 23:22:54*
%MOMM*%
%LPD*%
G01*
G04 APERTURE LIST*
G04 Aperture macros list*
%AMRoundRect*
0 Rectangle with rounded corners*
0 $1 Rounding radius*
0 $2 $3 $4 $5 $6 $7 $8 $9 X,Y pos of 4 corners*
0 Add a 4 corners polygon primitive as box body*
4,1,4,$2,$3,$4,$5,$6,$7,$8,$9,$2,$3,0*
0 Add four circle primitives for the rounded corners*
1,1,$1+$1,$2,$3*
1,1,$1+$1,$4,$5*
1,1,$1+$1,$6,$7*
1,1,$1+$1,$8,$9*
0 Add four rect primitives between the rounded corners*
20,1,$1+$1,$2,$3,$4,$5,0*
20,1,$1+$1,$4,$5,$6,$7,0*
20,1,$1+$1,$6,$7,$8,$9,0*
20,1,$1+$1,$8,$9,$2,$3,0*%
G04 Aperture macros list end*
%ADD10C,2.550000*%
%ADD11C,3.200000*%
%ADD12C,0.500000*%
%ADD13O,1.270000X2.286000*%
%ADD14O,2.286000X1.270000*%
%ADD15C,2.300000*%
%ADD16C,1.524000*%
%ADD17R,1.700000X1.700000*%
%ADD18O,1.700000X1.700000*%
%ADD19R,1.600000X1.600000*%
%ADD20C,1.600000*%
%ADD21RoundRect,0.250000X0.600000X0.600000X-0.600000X0.600000X-0.600000X-0.600000X0.600000X-0.600000X0*%
%ADD22C,1.700000*%
%ADD23R,1.498600X1.498600*%
%ADD24C,1.498600*%
%ADD25C,1.574800*%
%ADD26R,1.800000X1.800000*%
%ADD27C,1.800000*%
%ADD28C,2.387600*%
%ADD29C,1.803400*%
%ADD30C,1.270000*%
%ADD31R,2.400000X1.600000*%
%ADD32O,2.400000X1.600000*%
%ADD33R,3.000000X3.000000*%
%ADD34C,1.750000*%
%ADD35O,1.600000X1.600000*%
%ADD36RoundRect,0.250000X-0.475000X0.337500X-0.475000X-0.337500X0.475000X-0.337500X0.475000X0.337500X0*%
%ADD37RoundRect,0.250000X-0.450000X0.350000X-0.450000X-0.350000X0.450000X-0.350000X0.450000X0.350000X0*%
%ADD38RoundRect,0.250000X-0.325000X-0.450000X0.325000X-0.450000X0.325000X0.450000X-0.325000X0.450000X0*%
%ADD39R,3.405000X2.006600*%
%ADD40RoundRect,0.250000X0.337500X0.475000X-0.337500X0.475000X-0.337500X-0.475000X0.337500X-0.475000X0*%
%ADD41RoundRect,0.150000X0.587500X0.150000X-0.587500X0.150000X-0.587500X-0.150000X0.587500X-0.150000X0*%
%ADD42O,4.000000X6.500000*%
%ADD43RoundRect,0.250000X0.475000X-0.337500X0.475000X0.337500X-0.475000X0.337500X-0.475000X-0.337500X0*%
%ADD44RoundRect,0.150000X-0.587500X-0.150000X0.587500X-0.150000X0.587500X0.150000X-0.587500X0.150000X0*%
%ADD45RoundRect,0.250000X0.350000X0.450000X-0.350000X0.450000X-0.350000X-0.450000X0.350000X-0.450000X0*%
%ADD46RoundRect,0.250000X0.325000X0.450000X-0.325000X0.450000X-0.325000X-0.450000X0.325000X-0.450000X0*%
%ADD47RoundRect,0.250000X-0.450000X0.325000X-0.450000X-0.325000X0.450000X-0.325000X0.450000X0.325000X0*%
%ADD48RoundRect,0.250000X0.450000X-0.325000X0.450000X0.325000X-0.450000X0.325000X-0.450000X-0.325000X0*%
%ADD49RoundRect,0.250000X0.450000X-0.350000X0.450000X0.350000X-0.450000X0.350000X-0.450000X-0.350000X0*%
%ADD50RoundRect,0.250000X-0.337500X-0.475000X0.337500X-0.475000X0.337500X0.475000X-0.337500X0.475000X0*%
G04 APERTURE END LIST*
D10*
X24525000Y-62000000D02*
G75*
G02*
X21975000Y-62000000I-1275000J0D01*
G01*
X21975000Y-62000000D02*
G75*
G02*
X24525000Y-62000000I1275000J0D01*
G01*
X33525000Y-62000000D02*
G75*
G02*
X30975000Y-62000000I-1275000J0D01*
G01*
X30975000Y-62000000D02*
G75*
G02*
X33525000Y-62000000I1275000J0D01*
G01*
D11*
X90650000Y-135630502D03*
D12*
X55900000Y-112658305D03*
X57400000Y-112658305D03*
X55900000Y-111908305D03*
X57400000Y-111908305D03*
X55900000Y-111158305D03*
X57400000Y-111158305D03*
D13*
X60050001Y-107250000D03*
D14*
X67843002Y-102049800D03*
X66443002Y-104744800D03*
D13*
X71043002Y-111250200D03*
D14*
X63450002Y-111755200D03*
D15*
X39361634Y-78814655D03*
D16*
X52750000Y-87380502D03*
D15*
X39343635Y-96000000D03*
D17*
X84150000Y-87630502D03*
D18*
X81610000Y-87630502D03*
X79070000Y-87630502D03*
D19*
X152000000Y-145500000D03*
D20*
X152000000Y-148000000D03*
D11*
X104450000Y-69750000D03*
D21*
X161900000Y-145380000D03*
D22*
X159360000Y-145380000D03*
X161900000Y-142840000D03*
X159360000Y-142840000D03*
X161900000Y-140300000D03*
X159360000Y-140300000D03*
X161900000Y-137760000D03*
X159360000Y-137760000D03*
X161900000Y-135220000D03*
X159360000Y-135220000D03*
X161900000Y-132680000D03*
X159360000Y-132680000D03*
X161900000Y-130140000D03*
X159360000Y-130140000D03*
D13*
X60050001Y-82750000D03*
D14*
X67843002Y-77549800D03*
X66443002Y-80244800D03*
D13*
X71043002Y-86750200D03*
D14*
X63450002Y-87255200D03*
D13*
X60050001Y-95050000D03*
D14*
X67843002Y-89849800D03*
X66443002Y-92544800D03*
D13*
X71043002Y-99050200D03*
D14*
X63450002Y-99555200D03*
D13*
X60050001Y-143850000D03*
D14*
X67843002Y-138649800D03*
X66443002Y-141344800D03*
D13*
X71043002Y-147850200D03*
D14*
X63450002Y-148355200D03*
D12*
X55900000Y-50888195D03*
X57400000Y-50888195D03*
X55900000Y-50138195D03*
X57400000Y-50138195D03*
X55900000Y-49388195D03*
X57400000Y-49388195D03*
D11*
X90650000Y-89880502D03*
D23*
X110900000Y-79299999D03*
D24*
X104399999Y-79299999D03*
X110900000Y-83800000D03*
X104399999Y-83800000D03*
D13*
X60050001Y-131650000D03*
D14*
X67843002Y-126449800D03*
X66443002Y-129144800D03*
D13*
X71043002Y-135650200D03*
D14*
X63450002Y-136155200D03*
D17*
X152450000Y-63250000D03*
D18*
X152450000Y-60710000D03*
X152450000Y-58170000D03*
D25*
X161150000Y-119050000D03*
X161150000Y-116510000D03*
D26*
X92590000Y-43500000D03*
D27*
X90050000Y-43500000D03*
X87510000Y-43500000D03*
D28*
X151450000Y-44500000D03*
X136450000Y-44500000D03*
D29*
X136450000Y-49500000D03*
X143950000Y-49500000D03*
X151450000Y-49500000D03*
X138950000Y-52000000D03*
X148950000Y-52000000D03*
X141450000Y-39500000D03*
X146450000Y-39500000D03*
D12*
X77250000Y-74250000D03*
X77250000Y-75750000D03*
X78000000Y-74250000D03*
X78000000Y-75750000D03*
X78750000Y-74250000D03*
X78750000Y-75750000D03*
D19*
X99790000Y-109800000D03*
D20*
X102330000Y-109800000D03*
X104870000Y-109800000D03*
X107410000Y-109800000D03*
X109950000Y-109800000D03*
X112490000Y-109800000D03*
X115030000Y-109800000D03*
X117570000Y-109800000D03*
X120110000Y-109800000D03*
X122650000Y-109800000D03*
X125190000Y-109800000D03*
X127730000Y-109800000D03*
X130270000Y-109800000D03*
X132810000Y-109800000D03*
X135350000Y-109800000D03*
X137890000Y-109800000D03*
X140430000Y-109800000D03*
X142970000Y-109800000D03*
X145510000Y-109800000D03*
X148050000Y-109800000D03*
X150590000Y-109800000D03*
X153130000Y-109800000D03*
X155670000Y-109800000D03*
X158210000Y-109800000D03*
X160750000Y-109800000D03*
X163290000Y-109800000D03*
D19*
X99790000Y-89480000D03*
D20*
X102330000Y-89480000D03*
X104870000Y-89480000D03*
X107410000Y-89480000D03*
X109950000Y-89480000D03*
X112490000Y-89480000D03*
X115030000Y-89480000D03*
X117570000Y-89480000D03*
X120110000Y-89480000D03*
X122650000Y-89480000D03*
X125190000Y-89480000D03*
X127730000Y-89480000D03*
X130270000Y-89480000D03*
X132810000Y-89480000D03*
X135350000Y-89480000D03*
X137890000Y-89480000D03*
X140430000Y-89480000D03*
X142970000Y-89480000D03*
X145510000Y-89480000D03*
X148050000Y-89480000D03*
X150590000Y-89480000D03*
X153130000Y-89480000D03*
X155670000Y-89480000D03*
X158210000Y-89480000D03*
X160750000Y-89480000D03*
X163290000Y-89480000D03*
D17*
X123620000Y-81300000D03*
D18*
X123620000Y-78760000D03*
X126160000Y-81300000D03*
X126160000Y-78760000D03*
X128700000Y-81300000D03*
X128700000Y-78760000D03*
X131240000Y-81300000D03*
X131240000Y-78760000D03*
X133780000Y-81300000D03*
X133780000Y-78760000D03*
X136320000Y-81300000D03*
X136320000Y-78760000D03*
X138860000Y-81300000D03*
X138860000Y-78760000D03*
X141400000Y-81300000D03*
X141400000Y-78760000D03*
X143940000Y-81300000D03*
X143940000Y-78760000D03*
X146480000Y-81300000D03*
X146480000Y-78760000D03*
X149020000Y-81300000D03*
X149020000Y-78760000D03*
X151560000Y-81300000D03*
X151560000Y-78760000D03*
D26*
X83590000Y-43500000D03*
D27*
X81050000Y-43500000D03*
X78510000Y-43500000D03*
D30*
X84160000Y-55170000D03*
X81620000Y-55170000D03*
X79080000Y-55170000D03*
X76540000Y-55170000D03*
X74000000Y-55170000D03*
X71460000Y-55170000D03*
X68920000Y-55170000D03*
X68920000Y-65330000D03*
X76540000Y-65330000D03*
X79080000Y-65330000D03*
X84160000Y-65330000D03*
X86700000Y-65330000D03*
D31*
X135820000Y-70250000D03*
D32*
X135820000Y-67710000D03*
X135820000Y-65170000D03*
X135820000Y-62630000D03*
X128200000Y-62630000D03*
X128200000Y-65170000D03*
X128200000Y-67710000D03*
X128200000Y-70250000D03*
D13*
X60050001Y-119450000D03*
D14*
X67843002Y-114249800D03*
X66443002Y-116944800D03*
D13*
X71043002Y-123450200D03*
D14*
X63450002Y-123955200D03*
D19*
X152000000Y-138500000D03*
D20*
X152000000Y-141000000D03*
D11*
X150200000Y-69750000D03*
D28*
X117950000Y-44500000D03*
X102950000Y-44500000D03*
D29*
X102950000Y-49500000D03*
X110450000Y-49500000D03*
X117950000Y-49500000D03*
X105450000Y-52000000D03*
X115450000Y-52000000D03*
X107950000Y-39500000D03*
X112950000Y-39500000D03*
D33*
X71888000Y-44250000D03*
X60712000Y-44250000D03*
D34*
X63300000Y-51250000D03*
X65300000Y-51250000D03*
X67300000Y-51250000D03*
X69299744Y-51269700D03*
D29*
X68800000Y-36750000D03*
X63800000Y-36750000D03*
X66300000Y-36750000D03*
D12*
X127000000Y-74250000D03*
X127000000Y-75750000D03*
X127750000Y-74250000D03*
X127750000Y-75750000D03*
X128500000Y-74250000D03*
X128500000Y-75750000D03*
X98200000Y-57250000D03*
X99700000Y-57250000D03*
X98200000Y-56500000D03*
X99700000Y-56500000D03*
X98200000Y-55750000D03*
X99700000Y-55750000D03*
D15*
X39361634Y-112314655D03*
D16*
X52750000Y-120880502D03*
D15*
X39343635Y-129500000D03*
D19*
X142450000Y-67560000D03*
D35*
X142450000Y-59940000D03*
D36*
X100750000Y-134175000D03*
X100750000Y-136250000D03*
D37*
X78950000Y-56750000D03*
X78950000Y-58750000D03*
X71450000Y-57000000D03*
X71450000Y-59000000D03*
D38*
X81450000Y-46000000D03*
X83500000Y-46000000D03*
D36*
X80500000Y-129462500D03*
X80500000Y-131537500D03*
D39*
X144000000Y-94000000D03*
X138207400Y-94000000D03*
D40*
X115812500Y-139190000D03*
X113737500Y-139190000D03*
D41*
X74375000Y-48050000D03*
X74375000Y-49950000D03*
X72500000Y-49000000D03*
D42*
X17850000Y-41520000D03*
D43*
X93500000Y-125750000D03*
X93500000Y-123675000D03*
D36*
X136500000Y-136250000D03*
X136500000Y-138325000D03*
D44*
X94125000Y-59925000D03*
X94125000Y-58025000D03*
X96000000Y-58975000D03*
D40*
X91587500Y-108380000D03*
X89512500Y-108380000D03*
D45*
X155750000Y-138500000D03*
X153750000Y-138500000D03*
D44*
X87875000Y-60000000D03*
X87875000Y-58100000D03*
X89750000Y-59050000D03*
D38*
X90000000Y-62250000D03*
X92050000Y-62250000D03*
D46*
X88025000Y-62250000D03*
X85975000Y-62250000D03*
D42*
X53150000Y-41520000D03*
D47*
X64950000Y-53475000D03*
X64950000Y-55525000D03*
D37*
X81700000Y-56750000D03*
X81700000Y-58750000D03*
D44*
X66875000Y-48900000D03*
X66875000Y-47000000D03*
X68750000Y-47950000D03*
D36*
X139500000Y-136175000D03*
X139500000Y-138250000D03*
D47*
X64500000Y-46975000D03*
X64500000Y-49025000D03*
D17*
X64010000Y-69000000D03*
D18*
X64010000Y-71540000D03*
X66550000Y-69000000D03*
X66550000Y-71540000D03*
X69090000Y-69000000D03*
X69090000Y-71540000D03*
X71630000Y-69000000D03*
X71630000Y-71540000D03*
X74170000Y-69000000D03*
X74170000Y-71540000D03*
X76710000Y-69000000D03*
X76710000Y-71540000D03*
X79250000Y-69000000D03*
X79250000Y-71540000D03*
X81790000Y-69000000D03*
X81790000Y-71540000D03*
X84330000Y-69000000D03*
X84330000Y-71540000D03*
X86870000Y-69000000D03*
X86870000Y-71540000D03*
X89410000Y-69000000D03*
X89410000Y-71540000D03*
X91950000Y-69000000D03*
X91950000Y-71540000D03*
D36*
X89500000Y-103750000D03*
X89500000Y-105825000D03*
D48*
X67200000Y-55525000D03*
X67200000Y-53475000D03*
D42*
X17850000Y-56520000D03*
D48*
X64500000Y-45000000D03*
X64500000Y-42950000D03*
D49*
X132200000Y-67500000D03*
X132200000Y-65500000D03*
D38*
X74725000Y-52000000D03*
X76775000Y-52000000D03*
D43*
X91500000Y-127075000D03*
X91500000Y-125000000D03*
D46*
X76050000Y-41250000D03*
X74000000Y-41250000D03*
D40*
X140250000Y-140300000D03*
X138175000Y-140300000D03*
D44*
X88000000Y-56250000D03*
X88000000Y-54350000D03*
X89875000Y-55300000D03*
D37*
X76450000Y-56750000D03*
X76450000Y-58750000D03*
D45*
X156000000Y-148000000D03*
X154000000Y-148000000D03*
D40*
X136150000Y-140300000D03*
X134075000Y-140300000D03*
X145037500Y-97500000D03*
X142962500Y-97500000D03*
D37*
X81200000Y-63500000D03*
X81200000Y-65500000D03*
D44*
X66875000Y-45200000D03*
X66875000Y-43300000D03*
X68750000Y-44250000D03*
D40*
X87662500Y-108380000D03*
X85587500Y-108380000D03*
D42*
X53150000Y-72500000D03*
D37*
X88450000Y-64250000D03*
X88450000Y-66250000D03*
D48*
X92000000Y-60000000D03*
X92000000Y-57950000D03*
D50*
X137212500Y-97500000D03*
X139287500Y-97500000D03*
D47*
X76500000Y-47975000D03*
X76500000Y-50025000D03*
D37*
X67200000Y-63750000D03*
X67200000Y-65750000D03*
X74700000Y-63750000D03*
X74700000Y-65750000D03*
D36*
X100500000Y-143425000D03*
X100500000Y-145500000D03*
M02*
